<svg xmlns="http://www.w3.org/2000/svg" xmlns:xlink="http://www.w3.org/1999/xlink" width="1080" zoomAndPan="magnify" viewBox="0 0 810 1439.999935" height="1920" preserveAspectRatio="xMidYMid meet" version="1.0"><defs><clipPath id="0805f48208"><path d="M 404.296875 675 L 554.296875 675 L 554.296875 790 L 404.296875 790 Z M 404.296875 675 " clip-rule="nonzero"/></clipPath><clipPath id="c65f94e763"><path d="M 404.296875 675 L 554.296875 675 L 554.296875 723 L 404.296875 723 Z M 404.296875 675 " clip-rule="nonzero"/></clipPath><clipPath id="9d696e444f"><path d="M 450 652.082031 L 508 652.082031 L 508 684 L 450 684 Z M 450 652.082031 " clip-rule="nonzero"/></clipPath></defs><g clip-path="url(#0805f48208)"><path fill="#ffffff" d="M 545.90625 685.375 C 545.90625 686.621094 545.90625 687.863281 545.90625 689.125 C 545.90625 692.457031 545.90625 695.789062 545.90625 699.105469 C 545.90625 703.832031 545.90625 708.558594 545.90625 713.28125 C 545.90625 718.769531 545.90625 724.257812 545.90625 729.746094 C 545.90625 735.351562 545.90625 740.941406 545.90625 746.542969 C 545.90625 751.636719 545.90625 756.707031 545.90625 761.800781 C 545.90625 765.664062 545.90625 769.527344 545.90625 773.390625 C 545.90625 775.414062 545.90625 777.433594 545.90625 779.457031 C 545.90625 779.605469 545.90625 779.738281 545.90625 779.890625 C 545.90625 779.90625 545.90625 779.90625 545.90625 779.921875 C 545.90625 780.039062 545.890625 780.15625 545.890625 780.269531 C 545.925781 780.75 546.074219 779.390625 545.957031 779.855469 C 545.90625 780.070312 545.859375 780.289062 545.792969 780.503906 C 545.757812 780.601562 545.691406 780.71875 545.691406 780.816406 C 545.691406 780.816406 546.105469 780.003906 545.890625 780.335938 C 545.773438 780.519531 545.675781 780.71875 545.578125 780.917969 C 545.492188 781.066406 545.179688 781.464844 545.59375 780.949219 C 546.007812 780.417969 545.675781 780.851562 545.558594 780.949219 C 545.410156 781.101562 545.226562 781.25 545.09375 781.398438 C 544.847656 781.679688 545.492188 781.101562 545.511719 781.082031 C 545.425781 781.101562 545.3125 781.214844 545.246094 781.265625 C 545.0625 781.363281 544.847656 781.464844 544.664062 781.582031 C 544.332031 781.796875 545.144531 781.382812 545.144531 781.382812 C 545.011719 781.398438 544.863281 781.480469 544.714844 781.515625 C 544.5 781.582031 544.265625 781.597656 544.050781 781.664062 C 544.132812 781.628906 545.128906 781.597656 544.464844 781.582031 C 544.464844 781.582031 544.234375 781.582031 544.234375 781.582031 C 544.234375 781.582031 544.214844 781.582031 544.214844 781.582031 C 544.117188 781.582031 544.035156 781.582031 543.933594 781.582031 C 542.457031 781.582031 540.964844 781.582031 539.492188 781.582031 C 536.472656 781.582031 533.4375 781.582031 530.421875 781.582031 C 526.226562 781.582031 522.046875 781.582031 517.851562 781.582031 C 512.828125 781.582031 507.820312 781.582031 502.796875 781.582031 C 497.257812 781.582031 491.738281 781.582031 486.199219 781.582031 C 480.546875 781.582031 474.90625 781.582031 469.253906 781.582031 C 463.816406 781.582031 458.359375 781.582031 452.921875 781.582031 C 448.03125 781.582031 443.121094 781.582031 438.230469 781.582031 C 434.21875 781.582031 430.222656 781.582031 426.207031 781.582031 C 423.421875 781.582031 420.652344 781.582031 417.867188 781.582031 C 416.691406 781.582031 415.496094 781.597656 414.320312 781.582031 C 414.304688 781.582031 414.285156 781.582031 414.253906 781.582031 C 414.136719 781.582031 414.023438 781.5625 413.90625 781.5625 C 413.492188 781.582031 414.453125 781.648438 414.4375 781.648438 C 414.335938 781.613281 414.203125 781.613281 414.105469 781.582031 C 413.890625 781.53125 413.671875 781.449219 413.457031 781.398438 C 413.058594 781.296875 413.9375 781.613281 413.9375 781.613281 C 413.839844 781.53125 413.65625 781.480469 413.539062 781.414062 C 413.359375 781.316406 413.175781 781.132812 412.992188 781.066406 C 413.640625 781.28125 413.605469 781.597656 413.324219 781.296875 C 413.242188 781.214844 413.160156 781.148438 413.09375 781.066406 C 412.976562 780.949219 412.480469 780.355469 412.910156 780.917969 C 413.34375 781.480469 412.84375 780.769531 412.746094 780.601562 C 412.695312 780.503906 412.644531 780.402344 412.59375 780.304688 C 412.378906 779.972656 412.792969 780.785156 412.792969 780.785156 C 412.761719 780.570312 412.644531 780.355469 412.59375 780.136719 C 412.5625 780.023438 412.5625 779.921875 412.53125 779.804688 C 412.429688 779.410156 412.59375 780.355469 412.59375 780.335938 C 412.628906 780.253906 412.578125 779.9375 412.578125 779.871094 C 412.578125 779.523438 412.578125 779.175781 412.578125 778.828125 C 412.578125 776.421875 412.578125 774.003906 412.578125 771.597656 C 412.578125 767.46875 412.578125 763.339844 412.578125 759.210938 C 412.578125 754.007812 412.578125 748.816406 412.578125 743.609375 C 412.578125 737.988281 412.578125 732.351562 412.578125 726.730469 C 412.578125 721.324219 412.578125 715.917969 412.578125 710.53125 C 412.578125 705.988281 412.578125 701.445312 412.578125 696.882812 C 412.578125 693.882812 412.578125 690.898438 412.578125 687.898438 C 412.578125 687.167969 412.578125 686.453125 412.578125 685.726562 C 412.578125 685.59375 412.578125 685.460938 412.578125 685.34375 C 412.578125 685.34375 412.578125 685.328125 412.578125 685.328125 C 412.578125 685.210938 412.59375 685.09375 412.59375 684.980469 C 412.578125 684.5625 412.511719 685.527344 412.511719 685.507812 C 412.5625 685.34375 412.578125 685.128906 412.628906 684.960938 C 412.679688 684.78125 412.960938 684.066406 412.679688 684.730469 C 412.398438 685.394531 412.726562 684.679688 412.8125 684.53125 C 412.894531 684.382812 413.359375 683.753906 412.910156 684.316406 C 412.464844 684.878906 413.027344 684.214844 413.160156 684.082031 C 413.242188 684.015625 413.324219 683.949219 413.40625 683.867188 C 413.65625 683.585938 413.011719 684.167969 412.992188 684.183594 C 413.191406 684.132812 413.472656 683.882812 413.640625 683.785156 C 413.722656 683.734375 413.855469 683.703125 413.9375 683.636719 C 413.9375 683.636719 413.078125 683.933594 413.457031 683.851562 C 413.707031 683.785156 413.957031 683.703125 414.203125 683.652344 C 414.882812 683.488281 413.292969 683.667969 414.003906 683.6875 C 414.054688 683.6875 414.1875 683.6875 414.238281 683.6875 C 414.238281 683.6875 414.253906 683.6875 414.253906 683.6875 C 414.351562 683.6875 414.453125 683.6875 414.550781 683.6875 C 415.097656 683.6875 415.648438 683.6875 416.175781 683.6875 C 418.5 683.6875 420.835938 683.6875 423.15625 683.6875 C 426.824219 683.6875 430.488281 683.6875 434.152344 683.6875 C 438.808594 683.6875 443.46875 683.6875 448.128906 683.6875 C 453.433594 683.6875 458.757812 683.6875 464.0625 683.6875 C 469.71875 683.6875 475.355469 683.6875 481.007812 683.6875 C 486.597656 683.6875 492.183594 683.6875 497.773438 683.6875 C 502.980469 683.6875 508.1875 683.6875 513.390625 683.6875 C 517.871094 683.6875 522.347656 683.6875 526.824219 683.6875 C 530.238281 683.6875 533.671875 683.6875 537.085938 683.6875 C 539.078125 683.6875 541.066406 683.6875 543.054688 683.6875 C 543.402344 683.6875 543.753906 683.6875 544.101562 683.6875 C 544.117188 683.6875 544.132812 683.6875 544.167969 683.6875 C 544.199219 683.6875 544.234375 683.6875 544.28125 683.6875 C 544.382812 683.6875 544.53125 683.71875 544.632812 683.703125 C 544.648438 683.703125 543.6875 683.519531 544.101562 683.636719 C 544.347656 683.703125 544.613281 683.769531 544.863281 683.816406 C 545.527344 683.96875 544.117188 683.386719 544.679688 683.734375 C 544.863281 683.851562 545.0625 683.96875 545.246094 684.066406 C 545.824219 684.398438 544.632812 683.46875 545.09375 683.949219 C 545.246094 684.101562 545.394531 684.265625 545.558594 684.414062 C 546.039062 684.878906 545.113281 683.6875 545.445312 684.265625 C 545.558594 684.480469 545.691406 684.730469 545.824219 684.929688 C 546.039062 685.261719 545.625 684.449219 545.625 684.449219 C 545.640625 684.546875 545.707031 684.664062 545.726562 684.761719 C 545.792969 684.980469 545.824219 685.195312 545.890625 685.410156 C 545.992188 685.808594 545.824219 684.863281 545.824219 684.878906 C 545.859375 684.996094 545.90625 685.328125 545.90625 685.375 C 545.957031 687.550781 547.78125 689.621094 550.054688 689.523438 C 552.257812 689.421875 554.25 687.699219 554.199219 685.375 C 554.082031 679.90625 549.722656 675.511719 544.234375 675.429688 C 543.933594 675.429688 543.652344 675.429688 543.355469 675.429688 C 541.449219 675.429688 539.539062 675.429688 537.632812 675.429688 C 534.25 675.429688 530.851562 675.429688 527.46875 675.429688 C 522.992188 675.429688 518.5 675.429688 514.023438 675.429688 C 508.765625 675.429688 503.492188 675.429688 498.238281 675.429688 C 492.566406 675.429688 486.914062 675.429688 481.242188 675.429688 C 475.570312 675.429688 469.882812 675.429688 464.210938 675.429688 C 458.824219 675.429688 453.433594 675.429688 448.046875 675.429688 C 443.355469 675.429688 438.660156 675.429688 433.96875 675.429688 C 430.289062 675.429688 426.605469 675.429688 422.925781 675.429688 C 420.636719 675.429688 418.347656 675.429688 416.0625 675.429688 C 415.546875 675.429688 415.050781 675.429688 414.535156 675.429688 C 411.867188 675.445312 409.378906 676.375 407.421875 678.199219 C 405.351562 680.121094 404.355469 682.890625 404.339844 685.660156 C 404.339844 686.320312 404.339844 687 404.339844 687.664062 C 404.339844 690.601562 404.339844 693.550781 404.339844 696.484375 C 404.339844 701.03125 404.339844 705.589844 404.339844 710.132812 C 404.339844 715.605469 404.339844 721.058594 404.339844 726.53125 C 404.339844 732.21875 404.339844 737.890625 404.339844 743.578125 C 404.339844 748.847656 404.339844 754.121094 404.339844 759.394531 C 404.339844 763.539062 404.339844 767.6875 404.339844 771.832031 C 404.339844 774.21875 404.339844 776.589844 404.339844 778.976562 C 404.339844 779.441406 404.320312 779.90625 404.355469 780.371094 C 404.734375 785.660156 408.964844 789.773438 414.304688 789.855469 C 415.382812 789.871094 416.441406 789.855469 417.519531 789.855469 C 420.238281 789.855469 422.957031 789.855469 425.695312 789.855469 C 429.691406 789.855469 433.671875 789.855469 437.667969 789.855469 C 442.609375 789.855469 447.546875 789.855469 452.488281 789.855469 C 457.976562 789.855469 463.464844 789.855469 468.953125 789.855469 C 474.691406 789.855469 480.414062 789.855469 486.148438 789.855469 C 491.738281 789.855469 497.324219 789.855469 502.914062 789.855469 C 507.96875 789.855469 513.027344 789.855469 518.101562 789.855469 C 522.328125 789.855469 526.558594 789.855469 530.769531 789.855469 C 533.769531 789.855469 536.753906 789.855469 539.757812 789.855469 C 541.183594 789.855469 542.625 789.855469 544.050781 789.855469 C 546.804688 789.839844 549.554688 788.808594 551.445312 786.769531 C 553.304688 784.78125 554.214844 782.277344 554.214844 779.574219 C 554.214844 777.632812 554.214844 775.695312 554.214844 773.769531 C 554.214844 769.90625 554.214844 766.042969 554.214844 762.179688 C 554.214844 757.089844 554.214844 752.015625 554.214844 746.925781 C 554.214844 741.253906 554.214844 735.566406 554.214844 729.898438 C 554.214844 724.324219 554.214844 718.753906 554.214844 713.183594 C 554.214844 708.425781 554.214844 703.664062 554.214844 698.890625 C 554.214844 695.558594 554.214844 692.242188 554.214844 688.910156 C 554.214844 687.714844 554.214844 686.519531 554.214844 685.34375 C 554.214844 683.171875 552.308594 681.097656 550.070312 681.199219 C 547.796875 681.347656 545.90625 683.054688 545.90625 685.375 Z M 545.90625 685.375 " fill-opacity="1" fill-rule="nonzero"/></g><path fill="#ffffff" d="M 487.675781 710.148438 C 487.675781 712.652344 487.675781 715.171875 487.675781 717.675781 C 487.675781 720.613281 487.558594 723.578125 487.675781 726.515625 C 487.675781 726.5625 487.660156 726.628906 487.675781 726.679688 C 487.460938 725.421875 489.050781 723.945312 490.246094 724.109375 C 490.046875 724.078125 489.832031 724.109375 489.632812 724.109375 C 488.453125 724.109375 487.261719 724.109375 486.082031 724.109375 C 482.386719 724.109375 478.6875 724.109375 474.992188 724.109375 C 473.464844 724.109375 471.921875 724.109375 470.398438 724.109375 C 469.734375 724.109375 468.972656 724.011719 468.308594 724.109375 C 469.503906 723.945312 471.09375 725.421875 470.878906 726.679688 C 470.894531 726.628906 470.878906 726.5625 470.878906 726.515625 C 470.894531 726.117188 470.878906 725.71875 470.878906 725.320312 C 470.878906 723.730469 470.878906 722.136719 470.878906 720.546875 C 470.878906 717.296875 470.878906 714.046875 470.878906 710.796875 C 470.878906 710.761719 470.878906 710.132812 470.878906 710.132812 C 471.027344 710.132812 470.464844 711.542969 470.53125 711.425781 C 470.316406 711.789062 469.964844 712.140625 469.601562 712.355469 C 469.632812 712.335938 468.375 712.867188 468.308594 712.703125 C 468.308594 712.71875 468.492188 712.703125 468.507812 712.703125 C 469.46875 712.753906 470.429688 712.703125 471.390625 712.703125 C 474.972656 712.703125 478.554688 712.703125 482.136719 712.703125 C 484.757812 712.703125 487.410156 712.820312 490.03125 712.703125 C 490.0625 712.703125 490.210938 712.71875 490.226562 712.703125 C 490.246094 712.6875 489.582031 712.621094 489.566406 712.601562 C 488.40625 712.371094 487.742188 711.261719 487.675781 710.148438 C 487.824219 712.304688 489.480469 714.394531 491.820312 714.292969 C 493.941406 714.195312 496.113281 712.46875 495.964844 710.148438 C 495.75 706.980469 493.511719 704.527344 490.246094 704.429688 C 490.046875 704.429688 489.832031 704.429688 489.632812 704.429688 C 488.386719 704.429688 487.128906 704.429688 485.882812 704.429688 C 481.921875 704.429688 477.976562 704.429688 474.011719 704.429688 C 472.519531 704.429688 471.042969 704.429688 469.550781 704.429688 C 467.644531 704.429688 465.820312 704.59375 464.328125 706.035156 C 462.6875 707.613281 462.585938 709.585938 462.585938 711.65625 C 462.585938 713.414062 462.585938 715.171875 462.585938 716.929688 C 462.585938 720.132812 462.539062 723.316406 462.585938 726.515625 C 462.652344 729.847656 465.140625 732.335938 468.472656 732.402344 C 469.484375 732.417969 470.496094 732.402344 471.507812 732.402344 C 475.371094 732.402344 479.21875 732.402344 483.082031 732.402344 C 485.46875 732.402344 487.855469 732.5 490.246094 732.402344 C 493.429688 732.285156 495.832031 729.863281 495.964844 726.679688 C 495.980469 726.433594 495.964844 726.199219 495.964844 725.949219 C 495.964844 724.457031 495.964844 722.964844 495.964844 721.492188 C 495.964844 717.941406 495.964844 714.394531 495.964844 710.84375 C 495.964844 710.613281 495.964844 710.382812 495.964844 710.148438 C 495.964844 707.976562 494.058594 705.90625 491.820312 706.003906 C 489.566406 706.101562 487.675781 707.828125 487.675781 710.148438 Z M 487.675781 710.148438 " fill-opacity="1" fill-rule="nonzero"/><g clip-path="url(#c65f94e763)"><path fill="#ffffff" d="M 545.90625 684.863281 C 545.90625 687.019531 545.90625 689.191406 545.90625 691.347656 C 545.90625 693.617188 546.007812 695.90625 545.875 698.175781 C 545.859375 698.441406 545.839844 698.707031 545.808594 698.972656 C 545.792969 699.121094 545.773438 699.273438 545.757812 699.421875 C 545.726562 699.886719 545.839844 698.824219 545.839844 698.890625 C 545.707031 699.4375 545.660156 700 545.527344 700.566406 C 545.277344 701.625 544.945312 702.636719 544.566406 703.648438 C 544.316406 704.296875 545.011719 702.703125 544.597656 703.566406 C 544.480469 703.796875 544.382812 704.03125 544.265625 704.261719 C 544.015625 704.761719 543.753906 705.242188 543.46875 705.707031 C 543.222656 706.101562 542.972656 706.5 542.691406 706.898438 C 542.523438 707.132812 542.34375 707.363281 542.175781 707.613281 C 542.144531 707.644531 542.789062 706.882812 542.492188 707.199219 C 542.375 707.332031 542.261719 707.480469 542.144531 707.613281 C 541.480469 708.390625 540.769531 709.121094 540.003906 709.785156 C 539.804688 709.949219 539.625 710.117188 539.425781 710.28125 C 538.695312 710.894531 540.054688 709.835938 539.492188 710.230469 C 539.042969 710.546875 538.59375 710.863281 538.148438 711.160156 C 537.234375 711.742188 536.257812 712.121094 535.34375 712.652344 C 535.296875 712.6875 536.242188 712.289062 535.828125 712.453125 C 535.695312 712.503906 535.542969 712.570312 535.410156 712.621094 C 535.164062 712.71875 534.929688 712.800781 534.683594 712.886719 C 534.152344 713.066406 533.621094 713.214844 533.074219 713.367188 C 532.59375 713.480469 532.128906 713.582031 531.648438 713.679688 C 531.5 713.714844 530.519531 713.847656 531.300781 713.746094 C 532.078125 713.648438 531.019531 713.765625 530.820312 713.78125 C 530.222656 713.832031 529.625 713.847656 529.027344 713.847656 C 528.648438 713.847656 528.28125 713.847656 527.902344 713.847656 C 525.960938 713.847656 524.039062 713.847656 522.097656 713.847656 C 516.078125 713.847656 510.042969 713.847656 504.023438 713.847656 C 500.027344 713.847656 496 713.746094 492.003906 713.847656 C 491.9375 713.847656 491.871094 713.847656 491.804688 713.847656 C 493.179688 715.222656 494.574219 716.617188 495.949219 717.992188 C 495.949219 716.597656 495.949219 715.207031 495.949219 713.832031 C 495.949219 712.1875 496.179688 710.25 495.75 708.640625 C 495.070312 706.136719 492.765625 704.511719 490.226562 704.445312 C 489.996094 704.445312 489.765625 704.445312 489.53125 704.445312 C 488.273438 704.445312 486.996094 704.445312 485.734375 704.445312 C 481.855469 704.445312 477.957031 704.445312 474.078125 704.445312 C 472.621094 704.445312 471.144531 704.445312 469.683594 704.445312 C 468.191406 704.445312 466.78125 704.429688 465.40625 705.222656 C 463.515625 706.335938 462.570312 708.375 462.570312 710.496094 C 462.570312 711.328125 462.570312 712.171875 462.570312 713 C 462.570312 714.660156 462.570312 716.316406 462.570312 717.992188 C 463.949219 716.617188 465.339844 715.222656 466.714844 713.847656 C 459.902344 713.847656 453.085938 713.847656 446.273438 713.847656 C 441.976562 713.847656 437.667969 713.847656 433.371094 713.847656 C 432.246094 713.847656 431.101562 713.847656 429.972656 713.847656 C 429.808594 713.847656 429.625 713.847656 429.457031 713.847656 C 428.679688 713.847656 427.917969 713.78125 427.152344 713.714844 C 426.472656 713.648438 427.535156 713.765625 427.585938 713.78125 C 427.371094 713.730469 427.136719 713.714844 426.90625 713.664062 C 426.457031 713.582031 426.027344 713.5 425.578125 713.382812 C 424.78125 713.183594 424.003906 712.953125 423.242188 712.652344 C 423.042969 712.570312 422.828125 712.488281 422.628906 712.402344 C 423.820312 712.800781 423.089844 712.601562 422.808594 712.46875 C 422.410156 712.289062 422.015625 712.089844 421.632812 711.875 C 420.917969 711.492188 420.238281 711.0625 419.59375 710.613281 C 419.277344 710.398438 418.433594 709.570312 419.378906 710.480469 C 419.0625 710.183594 418.699219 709.933594 418.382812 709.636719 C 417.785156 709.105469 417.222656 708.523438 416.691406 707.925781 C 416.460938 707.660156 416.242188 707.347656 415.996094 707.097656 C 416.824219 707.945312 416.308594 707.511719 416.109375 707.246094 C 415.945312 707.015625 415.777344 706.765625 415.613281 706.535156 C 415.183594 705.90625 414.800781 705.242188 414.4375 704.5625 C 414.253906 704.195312 414.089844 703.832031 413.90625 703.46875 C 413.539062 702.722656 414.269531 704.429688 413.972656 703.648438 C 413.890625 703.449219 413.804688 703.234375 413.738281 703.035156 C 413.457031 702.273438 413.226562 701.476562 413.042969 700.679688 C 412.960938 700.316406 412.878906 699.953125 412.8125 699.570312 C 412.777344 699.355469 412.746094 699.121094 412.695312 698.890625 C 412.976562 700.234375 412.746094 699.207031 412.710938 698.855469 C 412.644531 698.0625 412.628906 697.265625 412.628906 696.46875 C 412.628906 694.398438 412.628906 692.339844 412.628906 690.269531 C 412.628906 688.496094 412.613281 686.71875 412.628906 684.960938 C 412.628906 684.929688 412.628906 684.894531 412.628906 684.863281 C 412.628906 684.914062 412.644531 684.367188 412.644531 684.398438 C 412.792969 685.078125 412.496094 685.277344 412.628906 684.730469 C 412.660156 684.582031 412.777344 684.367188 412.777344 684.199219 C 412.695312 684.398438 412.613281 684.597656 412.53125 684.78125 C 412.59375 684.648438 412.644531 684.515625 412.726562 684.398438 C 412.828125 684.234375 413.011719 684.035156 413.078125 683.851562 C 412.960938 684.199219 412.445312 684.5625 412.976562 684.035156 C 413.34375 683.667969 413.589844 683.785156 412.792969 684.132812 C 412.976562 684.050781 413.160156 683.882812 413.34375 683.785156 C 413.457031 683.71875 413.625 683.667969 413.722656 683.585938 C 412.945312 684.132812 413.078125 683.835938 413.558594 683.71875 C 414.023438 683.601562 414.351562 683.769531 413.324219 683.71875 C 413.472656 683.734375 413.640625 683.703125 413.773438 683.703125 C 413.773438 683.703125 413.789062 683.703125 413.789062 683.703125 C 414.601562 683.6875 415.414062 683.703125 416.210938 683.703125 C 421.398438 683.703125 426.589844 683.703125 431.78125 683.703125 C 440.152344 683.703125 448.511719 683.703125 456.882812 683.703125 C 466.699219 683.703125 476.5 683.703125 486.316406 683.703125 C 495.632812 683.703125 504.96875 683.703125 514.289062 683.703125 C 521.417969 683.703125 528.53125 683.703125 535.660156 683.703125 C 538.679688 683.703125 541.710938 683.652344 544.730469 683.703125 C 544.746094 683.703125 544.765625 683.703125 544.765625 683.703125 C 544.714844 683.703125 545.277344 683.703125 545.210938 683.71875 C 544.996094 683.6875 544.78125 683.652344 544.546875 683.636719 C 544.699219 683.667969 544.828125 683.6875 544.980469 683.734375 C 545.09375 683.769531 545.292969 683.867188 545.394531 683.867188 C 545.195312 683.785156 544.996094 683.703125 544.8125 683.621094 C 544.945312 683.6875 545.078125 683.734375 545.195312 683.816406 C 545.359375 683.917969 545.558594 684.101562 545.742188 684.167969 C 545.660156 684.132812 544.980469 683.46875 545.394531 683.917969 C 545.511719 684.050781 545.691406 684.28125 545.839844 684.382812 C 545.707031 684.214844 545.59375 684.050781 545.460938 683.882812 C 545.542969 684 545.625 684.117188 545.691406 684.25 C 545.773438 684.367188 545.824219 684.5 545.90625 684.628906 C 546.304688 685.3125 545.640625 683.667969 545.808594 684.449219 C 545.839844 684.628906 545.890625 684.914062 545.957031 685.09375 C 545.925781 684.878906 545.890625 684.664062 545.875 684.433594 C 545.890625 684.5625 545.90625 684.714844 545.90625 684.863281 C 545.957031 687.035156 547.78125 689.109375 550.054688 689.007812 C 552.257812 688.910156 554.25 687.183594 554.199219 684.863281 C 554.082031 679.671875 549.96875 675.527344 544.765625 675.429688 C 544.546875 675.429688 544.347656 675.429688 544.132812 675.429688 C 542.675781 675.429688 541.230469 675.429688 539.773438 675.429688 C 533.523438 675.429688 527.253906 675.429688 521.003906 675.429688 C 511.867188 675.429688 502.730469 675.429688 493.59375 675.429688 C 483.5625 675.429688 473.53125 675.429688 463.5 675.429688 C 454.480469 675.429688 445.460938 675.429688 436.4375 675.429688 C 430.355469 675.429688 424.285156 675.429688 418.199219 675.429688 C 416.875 675.429688 415.53125 675.429688 414.203125 675.429688 C 413.242188 675.429688 412.28125 675.511719 411.351562 675.742188 C 407.140625 676.855469 404.371094 680.785156 404.355469 685.0625 C 404.339844 688.941406 404.355469 692.839844 404.355469 696.71875 C 404.355469 703.78125 407.238281 710.730469 412.511719 715.488281 C 417.289062 719.800781 423.375 722.105469 429.808594 722.105469 C 432.824219 722.105469 435.859375 722.105469 438.875 722.105469 C 447.582031 722.105469 456.285156 722.105469 464.992188 722.105469 C 465.574219 722.105469 466.152344 722.105469 466.714844 722.105469 C 468.953125 722.105469 470.863281 720.195312 470.863281 717.957031 C 470.863281 716.714844 470.863281 715.453125 470.863281 714.210938 C 470.863281 713.316406 470.863281 712.402344 470.863281 711.507812 C 470.863281 711.078125 470.929688 710.582031 470.863281 710.148438 C 470.910156 710.480469 470.695312 711.078125 470.511719 711.425781 C 470.332031 711.773438 469.949219 712.140625 469.585938 712.355469 C 469.699219 712.289062 468.273438 712.851562 468.273438 712.703125 C 468.273438 712.703125 468.40625 712.703125 468.40625 712.703125 C 468.707031 712.734375 469.039062 712.703125 469.335938 712.703125 C 470.628906 712.703125 471.90625 712.703125 473.199219 712.703125 C 476.8125 712.703125 480.445312 712.703125 484.058594 712.703125 C 485.519531 712.703125 486.960938 712.703125 488.421875 712.703125 C 488.984375 712.703125 489.648438 712.800781 490.210938 712.703125 C 489.382812 712.851562 488.371094 712.089844 487.988281 711.425781 C 487.875 711.242188 487.558594 710.316406 487.640625 710.164062 C 487.574219 710.296875 487.640625 710.679688 487.640625 710.8125 C 487.640625 711.691406 487.640625 712.585938 487.640625 713.464844 C 487.640625 714.957031 487.640625 716.464844 487.640625 717.957031 C 487.640625 720.195312 489.546875 722.105469 491.785156 722.105469 C 495.253906 722.105469 498.703125 722.105469 502.167969 722.105469 C 508.367188 722.105469 514.570312 722.105469 520.789062 722.105469 C 524.933594 722.105469 529.160156 722.335938 533.257812 721.722656 C 542.972656 720.261719 551.246094 712.355469 553.46875 702.851562 C 554.164062 699.867188 554.164062 696.902344 554.164062 693.867188 C 554.164062 691.046875 554.164062 688.230469 554.164062 685.425781 C 554.164062 685.226562 554.164062 685.046875 554.164062 684.847656 C 554.164062 682.675781 552.257812 680.601562 550.019531 680.699219 C 547.796875 680.816406 545.90625 682.542969 545.90625 684.863281 Z M 545.90625 684.863281 " fill-opacity="1" fill-rule="nonzero"/></g><g clip-path="url(#9d696e444f)"><path fill="#ffffff" d="M 503.660156 675.429688 C 498.136719 675.429688 492.617188 675.429688 487.09375 675.429688 C 478.371094 675.429688 469.632812 675.429688 460.914062 675.429688 C 458.90625 675.429688 456.898438 675.429688 454.894531 675.429688 C 456.269531 676.804688 457.664062 678.199219 459.039062 679.574219 C 459.039062 673.621094 459.039062 667.667969 459.039062 661.714844 C 459.039062 661.402344 459.039062 661.101562 459.039062 660.789062 C 459.039062 660.769531 459.039062 660.753906 459.039062 660.738281 C 459.039062 660.804688 459.054688 660.421875 459.054688 660.390625 C 459.054688 659.859375 458.757812 661.449219 459.039062 660.722656 C 459.074219 660.621094 459.171875 660.390625 459.171875 660.304688 C 459.15625 661.003906 458.789062 661.050781 459.023438 660.703125 C 459.105469 660.570312 459.519531 660.039062 459.054688 660.589844 C 458.558594 661.152344 459.121094 660.554688 459.222656 660.4375 C 459.320312 660.324219 459.734375 659.957031 459.222656 660.421875 C 458.691406 660.902344 459.207031 660.488281 459.335938 660.390625 C 459.703125 660.15625 459.636719 660.523438 458.941406 660.539062 C 459.023438 660.539062 459.273438 660.4375 459.355469 660.40625 C 460.082031 660.125 458.492188 660.4375 459.023438 660.421875 C 459.039062 660.421875 459.4375 660.40625 459.371094 660.40625 C 459.386719 660.40625 459.386719 660.40625 459.402344 660.40625 C 459.554688 660.40625 459.71875 660.40625 459.867188 660.40625 C 462.105469 660.40625 464.34375 660.40625 466.566406 660.40625 C 474.210938 660.40625 481.839844 660.40625 489.480469 660.40625 C 492.21875 660.40625 494.953125 660.40625 497.691406 660.40625 C 498.1875 660.40625 498.667969 660.390625 499.164062 660.40625 C 499.164062 660.40625 499.183594 660.40625 499.183594 660.40625 C 499.230469 660.40625 499.363281 660.40625 499.414062 660.40625 C 500.195312 660.40625 498.652344 660.140625 499.082031 660.371094 C 499.183594 660.421875 499.515625 660.539062 499.613281 660.523438 C 499.515625 660.523438 498.703125 660.023438 499.214844 660.371094 C 499.265625 660.40625 499.515625 660.589844 499.582031 660.605469 C 499.066406 660.191406 498.933594 660.074219 499.164062 660.289062 C 499.25 660.355469 499.332031 660.4375 499.398438 660.503906 C 499.480469 660.589844 499.597656 660.753906 499.679688 660.820312 C 499.082031 660.390625 499.199219 660.171875 499.464844 660.605469 C 499.746094 661.085938 499.382812 660.96875 499.363281 660.304688 C 499.363281 660.390625 499.464844 660.65625 499.496094 660.722656 C 499.761719 661.402344 499.363281 660.238281 499.464844 660.273438 C 499.496094 660.273438 499.480469 660.671875 499.480469 660.738281 C 499.480469 660.753906 499.480469 660.769531 499.480469 660.789062 C 499.597656 666.839844 499.480469 672.925781 499.480469 678.976562 C 499.480469 679.175781 499.480469 679.359375 499.480469 679.558594 C 499.480469 681.730469 501.386719 683.800781 503.625 683.703125 C 505.863281 683.601562 507.769531 681.878906 507.769531 679.558594 C 507.769531 673.488281 507.769531 667.4375 507.769531 661.367188 C 507.769531 658.847656 507.058594 656.460938 505.234375 654.636719 C 503.527344 652.925781 501.222656 652.113281 498.816406 652.097656 C 496.644531 652.097656 494.488281 652.097656 492.316406 652.097656 C 484.457031 652.097656 476.582031 652.097656 468.722656 652.097656 C 466.003906 652.097656 463.265625 652.097656 460.546875 652.097656 C 460.132812 652.097656 459.71875 652.082031 459.320312 652.097656 C 454.5625 652.199219 450.816406 655.960938 450.699219 660.722656 C 450.566406 666.773438 450.699219 672.839844 450.699219 678.910156 C 450.699219 679.125 450.699219 679.339844 450.699219 679.558594 C 450.699219 681.796875 452.605469 683.703125 454.84375 683.703125 C 460.367188 683.703125 465.886719 683.703125 471.410156 683.703125 C 480.128906 683.703125 488.867188 683.703125 497.589844 683.703125 C 499.597656 683.703125 501.601562 683.703125 503.609375 683.703125 C 505.78125 683.703125 507.855469 681.796875 507.753906 679.558594 C 507.703125 677.335938 505.980469 675.429688 503.660156 675.429688 Z M 503.660156 675.429688 " fill-opacity="1" fill-rule="nonzero"/></g></svg>