<svg xmlns="http://www.w3.org/2000/svg" xmlns:xlink="http://www.w3.org/1999/xlink" width="500" zoomAndPan="magnify" viewBox="0 0 375 374.999991" height="500" preserveAspectRatio="xMidYMid meet" version="1.0"><defs><clipPath id="b3f820c307"><path d="M 187.25 171 L 241 171 L 241 212.683594 L 187.25 212.683594 Z M 187.25 171 " clip-rule="nonzero"/></clipPath><clipPath id="6261f05d3e"><path d="M 187.25 171 L 241 171 L 241 189 L 187.25 189 Z M 187.25 171 " clip-rule="nonzero"/></clipPath><clipPath id="73771ff690"><path d="M 203 163.183594 L 225 163.183594 L 225 175 L 203 175 Z M 203 163.183594 " clip-rule="nonzero"/></clipPath></defs><g clip-path="url(#b3f820c307)"><path fill="#ffffff" d="M 237.945312 175.101562 C 237.945312 175.546875 237.945312 175.992188 237.945312 176.445312 C 237.945312 177.636719 237.945312 178.832031 237.945312 180.015625 C 237.945312 181.707031 237.945312 183.402344 237.945312 185.09375 C 237.945312 187.058594 237.945312 189.023438 237.945312 190.984375 C 237.945312 192.992188 237.945312 194.992188 237.945312 197 C 237.945312 198.820312 237.945312 200.636719 237.945312 202.460938 C 237.945312 203.84375 237.945312 205.226562 237.945312 206.609375 C 237.945312 207.332031 237.945312 208.058594 237.945312 208.78125 C 237.945312 208.835938 237.945312 208.882812 237.945312 208.933594 C 237.945312 208.941406 237.945312 208.941406 237.945312 208.945312 C 237.945312 208.988281 237.9375 209.03125 237.9375 209.070312 C 237.949219 209.242188 238.003906 208.757812 237.960938 208.921875 C 237.945312 209 237.925781 209.078125 237.902344 209.15625 C 237.890625 209.191406 237.867188 209.230469 237.867188 209.269531 C 237.867188 209.269531 238.015625 208.976562 237.9375 209.09375 C 237.898438 209.160156 237.863281 209.230469 237.824219 209.304688 C 237.796875 209.355469 237.683594 209.5 237.832031 209.316406 C 237.980469 209.125 237.863281 209.28125 237.820312 209.316406 C 237.765625 209.367188 237.703125 209.421875 237.652344 209.476562 C 237.566406 209.578125 237.796875 209.367188 237.800781 209.363281 C 237.773438 209.367188 237.730469 209.410156 237.707031 209.429688 C 237.640625 209.464844 237.566406 209.5 237.5 209.539062 C 237.382812 209.617188 237.671875 209.46875 237.671875 209.46875 C 237.625 209.476562 237.570312 209.503906 237.515625 209.515625 C 237.441406 209.539062 237.355469 209.546875 237.28125 209.570312 C 237.308594 209.558594 237.664062 209.546875 237.429688 209.539062 C 237.429688 209.539062 237.34375 209.539062 237.34375 209.539062 C 237.34375 209.539062 237.339844 209.539062 237.339844 209.539062 C 237.304688 209.539062 237.273438 209.539062 237.238281 209.539062 C 236.710938 209.539062 236.175781 209.539062 235.648438 209.539062 C 234.566406 209.539062 233.480469 209.539062 232.402344 209.539062 C 230.898438 209.539062 229.402344 209.539062 227.902344 209.539062 C 226.101562 209.539062 224.3125 209.539062 222.511719 209.539062 C 220.53125 209.539062 218.554688 209.539062 216.570312 209.539062 C 214.546875 209.539062 212.527344 209.539062 210.503906 209.539062 C 208.558594 209.539062 206.605469 209.539062 204.660156 209.539062 C 202.90625 209.539062 201.152344 209.539062 199.398438 209.539062 C 197.964844 209.539062 196.53125 209.539062 195.097656 209.539062 C 194.097656 209.539062 193.109375 209.539062 192.109375 209.539062 C 191.6875 209.539062 191.261719 209.546875 190.839844 209.539062 C 190.835938 209.539062 190.828125 209.539062 190.816406 209.539062 C 190.773438 209.539062 190.734375 209.535156 190.691406 209.535156 C 190.542969 209.539062 190.886719 209.5625 190.882812 209.5625 C 190.847656 209.550781 190.800781 209.550781 190.761719 209.539062 C 190.6875 209.523438 190.609375 209.492188 190.53125 209.476562 C 190.390625 209.441406 190.703125 209.550781 190.703125 209.550781 C 190.667969 209.523438 190.601562 209.503906 190.5625 209.480469 C 190.496094 209.445312 190.429688 209.378906 190.367188 209.355469 C 190.597656 209.433594 190.585938 209.546875 190.484375 209.441406 C 190.453125 209.410156 190.425781 209.386719 190.402344 209.355469 C 190.359375 209.316406 190.179688 209.101562 190.335938 209.304688 C 190.492188 209.503906 190.3125 209.25 190.277344 209.191406 C 190.257812 209.15625 190.242188 209.121094 190.222656 209.082031 C 190.144531 208.964844 190.292969 209.253906 190.292969 209.253906 C 190.28125 209.179688 190.242188 209.101562 190.222656 209.023438 C 190.210938 208.984375 190.210938 208.945312 190.199219 208.90625 C 190.164062 208.761719 190.222656 209.101562 190.222656 209.09375 C 190.234375 209.066406 190.21875 208.953125 190.21875 208.929688 C 190.21875 208.804688 190.21875 208.679688 190.21875 208.554688 C 190.21875 207.695312 190.21875 206.828125 190.21875 205.96875 C 190.21875 204.488281 190.21875 203.011719 190.21875 201.535156 C 190.21875 199.667969 190.21875 197.8125 190.21875 195.949219 C 190.21875 193.9375 190.21875 191.917969 190.21875 189.90625 C 190.21875 187.972656 190.21875 186.035156 190.21875 184.105469 C 190.21875 182.480469 190.21875 180.855469 190.21875 179.222656 C 190.21875 178.148438 190.21875 177.078125 190.21875 176.003906 C 190.21875 175.742188 190.21875 175.488281 190.21875 175.226562 C 190.21875 175.179688 190.21875 175.132812 190.21875 175.089844 C 190.21875 175.089844 190.21875 175.085938 190.21875 175.085938 C 190.21875 175.042969 190.222656 175 190.222656 174.960938 C 190.21875 174.8125 190.195312 175.15625 190.195312 175.148438 C 190.210938 175.089844 190.21875 175.015625 190.234375 174.953125 C 190.253906 174.890625 190.355469 174.632812 190.253906 174.871094 C 190.152344 175.109375 190.269531 174.851562 190.300781 174.800781 C 190.328125 174.746094 190.496094 174.519531 190.335938 174.722656 C 190.175781 174.925781 190.378906 174.6875 190.425781 174.640625 C 190.453125 174.617188 190.484375 174.59375 190.515625 174.5625 C 190.601562 174.460938 190.371094 174.667969 190.367188 174.675781 C 190.4375 174.65625 190.539062 174.570312 190.597656 174.53125 C 190.625 174.515625 190.675781 174.503906 190.703125 174.480469 C 190.703125 174.480469 190.394531 174.585938 190.53125 174.558594 C 190.621094 174.53125 190.710938 174.503906 190.800781 174.484375 C 191.042969 174.425781 190.472656 174.492188 190.726562 174.496094 C 190.746094 174.496094 190.792969 174.496094 190.8125 174.496094 C 190.8125 174.496094 190.816406 174.496094 190.816406 174.496094 C 190.851562 174.496094 190.886719 174.496094 190.921875 174.496094 C 191.121094 174.496094 191.316406 174.496094 191.503906 174.496094 C 192.335938 174.496094 193.171875 174.496094 194.003906 174.496094 C 195.316406 174.496094 196.628906 174.496094 197.9375 174.496094 C 199.605469 174.496094 201.273438 174.496094 202.941406 174.496094 C 204.84375 174.496094 206.746094 174.496094 208.648438 174.496094 C 210.671875 174.496094 212.6875 174.496094 214.714844 174.496094 C 216.714844 174.496094 218.714844 174.496094 220.714844 174.496094 C 222.578125 174.496094 224.441406 174.496094 226.304688 174.496094 C 227.90625 174.496094 229.511719 174.496094 231.113281 174.496094 C 232.335938 174.496094 233.5625 174.496094 234.785156 174.496094 C 235.5 174.496094 236.210938 174.496094 236.925781 174.496094 C 237.046875 174.496094 237.171875 174.496094 237.296875 174.496094 C 237.304688 174.496094 237.308594 174.496094 237.320312 174.496094 C 237.332031 174.496094 237.34375 174.496094 237.363281 174.496094 C 237.398438 174.496094 237.453125 174.507812 237.488281 174.503906 C 237.492188 174.503906 237.148438 174.4375 237.296875 174.480469 C 237.386719 174.503906 237.480469 174.527344 237.570312 174.542969 C 237.808594 174.597656 237.304688 174.390625 237.503906 174.515625 C 237.570312 174.558594 237.640625 174.597656 237.707031 174.632812 C 237.914062 174.753906 237.488281 174.421875 237.652344 174.59375 C 237.707031 174.644531 237.761719 174.703125 237.820312 174.757812 C 237.992188 174.925781 237.660156 174.496094 237.777344 174.703125 C 237.820312 174.78125 237.867188 174.871094 237.914062 174.941406 C 237.992188 175.0625 237.84375 174.769531 237.84375 174.769531 C 237.851562 174.804688 237.875 174.847656 237.878906 174.882812 C 237.902344 174.960938 237.914062 175.039062 237.9375 175.113281 C 237.972656 175.257812 237.914062 174.917969 237.914062 174.925781 C 237.925781 174.964844 237.945312 175.085938 237.945312 175.101562 C 237.960938 175.878906 238.617188 176.621094 239.429688 176.585938 C 240.21875 176.550781 240.929688 175.933594 240.914062 175.101562 C 240.871094 173.144531 239.308594 171.570312 237.34375 171.542969 C 237.238281 171.542969 237.136719 171.542969 237.03125 171.542969 C 236.347656 171.542969 235.664062 171.542969 234.984375 171.542969 C 233.773438 171.542969 232.554688 171.542969 231.34375 171.542969 C 229.742188 171.542969 228.132812 171.542969 226.53125 171.542969 C 224.648438 171.542969 222.761719 171.542969 220.878906 171.542969 C 218.851562 171.542969 216.824219 171.542969 214.796875 171.542969 C 212.765625 171.542969 210.730469 171.542969 208.699219 171.542969 C 206.769531 171.542969 204.84375 171.542969 202.914062 171.542969 C 201.234375 171.542969 199.554688 171.542969 197.875 171.542969 C 196.554688 171.542969 195.238281 171.542969 193.921875 171.542969 C 193.101562 171.542969 192.28125 171.542969 191.464844 171.542969 C 191.28125 171.542969 191.101562 171.542969 190.917969 171.542969 C 189.960938 171.546875 189.070312 171.878906 188.371094 172.53125 C 187.628906 173.222656 187.273438 174.210938 187.265625 175.203125 C 187.265625 175.441406 187.265625 175.683594 187.265625 175.921875 C 187.265625 176.972656 187.265625 178.027344 187.265625 179.078125 C 187.265625 180.707031 187.265625 182.339844 187.265625 183.964844 C 187.265625 185.921875 187.265625 187.875 187.265625 189.835938 C 187.265625 191.871094 187.265625 193.902344 187.265625 195.9375 C 187.265625 197.824219 187.265625 199.710938 187.265625 201.597656 C 187.265625 203.082031 187.265625 204.566406 187.265625 206.050781 C 187.265625 206.90625 187.265625 207.753906 187.265625 208.609375 C 187.265625 208.773438 187.261719 208.941406 187.273438 209.105469 C 187.410156 211 188.921875 212.472656 190.835938 212.503906 C 191.21875 212.507812 191.601562 212.503906 191.984375 212.503906 C 192.960938 212.503906 193.933594 212.503906 194.914062 212.503906 C 196.34375 212.503906 197.765625 212.503906 199.199219 212.503906 C 200.964844 212.503906 202.734375 212.503906 204.503906 212.503906 C 206.46875 212.503906 208.433594 212.503906 210.398438 212.503906 C 212.453125 212.503906 214.5 212.503906 216.554688 212.503906 C 218.554688 212.503906 220.554688 212.503906 222.554688 212.503906 C 224.363281 212.503906 226.175781 212.503906 227.992188 212.503906 C 229.503906 212.503906 231.019531 212.503906 232.527344 212.503906 C 233.601562 212.503906 234.667969 212.503906 235.742188 212.503906 C 236.253906 212.503906 236.769531 212.503906 237.28125 212.503906 C 238.265625 212.496094 239.25 212.128906 239.925781 211.398438 C 240.59375 210.6875 240.917969 209.789062 240.917969 208.824219 C 240.917969 208.128906 240.917969 207.433594 240.917969 206.746094 C 240.917969 205.363281 240.917969 203.980469 240.917969 202.597656 C 240.917969 200.773438 240.917969 198.957031 240.917969 197.136719 C 240.917969 195.105469 240.917969 193.070312 240.917969 191.039062 C 240.917969 189.046875 240.917969 187.050781 240.917969 185.054688 C 240.917969 183.351562 240.917969 181.648438 240.917969 179.941406 C 240.917969 178.746094 240.917969 177.558594 240.917969 176.367188 C 240.917969 175.941406 240.917969 175.511719 240.917969 175.089844 C 240.917969 174.3125 240.234375 173.570312 239.433594 173.605469 C 238.621094 173.660156 237.945312 174.273438 237.945312 175.101562 Z M 237.945312 175.101562 " fill-opacity="1" fill-rule="nonzero"/></g><path fill="#ffffff" d="M 217.097656 183.96875 C 217.097656 184.867188 217.097656 185.769531 217.097656 186.664062 C 217.097656 187.714844 217.058594 188.777344 217.097656 189.828125 C 217.097656 189.847656 217.09375 189.871094 217.097656 189.886719 C 217.023438 189.4375 217.59375 188.910156 218.019531 188.96875 C 217.949219 188.957031 217.871094 188.96875 217.800781 188.96875 C 217.378906 188.96875 216.949219 188.96875 216.53125 188.96875 C 215.207031 188.96875 213.882812 188.96875 212.558594 188.96875 C 212.011719 188.96875 211.460938 188.96875 210.914062 188.96875 C 210.675781 188.96875 210.402344 188.933594 210.167969 188.96875 C 210.59375 188.910156 211.164062 189.4375 211.085938 189.886719 C 211.09375 189.871094 211.085938 189.847656 211.085938 189.828125 C 211.09375 189.6875 211.085938 189.542969 211.085938 189.402344 C 211.085938 188.832031 211.085938 188.261719 211.085938 187.691406 C 211.085938 186.527344 211.085938 185.363281 211.085938 184.203125 C 211.085938 184.191406 211.085938 183.964844 211.085938 183.964844 C 211.140625 183.964844 210.9375 184.46875 210.960938 184.425781 C 210.882812 184.558594 210.761719 184.683594 210.628906 184.761719 C 210.640625 184.753906 210.191406 184.945312 210.167969 184.882812 C 210.167969 184.890625 210.230469 184.882812 210.238281 184.882812 C 210.582031 184.902344 210.925781 184.882812 211.269531 184.882812 C 212.550781 184.882812 213.835938 184.882812 215.117188 184.882812 C 216.054688 184.882812 217.003906 184.925781 217.941406 184.882812 C 217.953125 184.882812 218.007812 184.890625 218.011719 184.882812 C 218.019531 184.878906 217.78125 184.855469 217.777344 184.847656 C 217.359375 184.765625 217.121094 184.367188 217.097656 183.96875 C 217.152344 184.742188 217.746094 185.488281 218.582031 185.453125 C 219.34375 185.417969 220.121094 184.800781 220.066406 183.96875 C 219.988281 182.835938 219.1875 181.957031 218.019531 181.921875 C 217.949219 181.921875 217.871094 181.921875 217.800781 181.921875 C 217.355469 181.921875 216.902344 181.921875 216.457031 181.921875 C 215.039062 181.921875 213.625 181.921875 212.207031 181.921875 C 211.675781 181.921875 211.144531 181.921875 210.613281 181.921875 C 209.929688 181.921875 209.277344 181.980469 208.742188 182.5 C 208.15625 183.0625 208.117188 183.769531 208.117188 184.511719 C 208.117188 185.140625 208.117188 185.769531 208.117188 186.398438 C 208.117188 187.542969 208.101562 188.683594 208.117188 189.828125 C 208.140625 191.023438 209.03125 191.914062 210.226562 191.9375 C 210.589844 191.941406 210.949219 191.9375 211.3125 191.9375 C 212.695312 191.9375 214.070312 191.9375 215.453125 191.9375 C 216.308594 191.9375 217.164062 191.972656 218.019531 191.9375 C 219.160156 191.894531 220.019531 191.027344 220.066406 189.886719 C 220.074219 189.800781 220.066406 189.714844 220.066406 189.625 C 220.066406 189.09375 220.066406 188.558594 220.066406 188.03125 C 220.066406 186.761719 220.066406 185.488281 220.066406 184.21875 C 220.066406 184.136719 220.066406 184.054688 220.066406 183.96875 C 220.066406 183.191406 219.382812 182.449219 218.582031 182.488281 C 217.777344 182.523438 217.097656 183.140625 217.097656 183.96875 Z M 217.097656 183.96875 " fill-opacity="1" fill-rule="nonzero"/><g clip-path="url(#6261f05d3e)"><path fill="#ffffff" d="M 237.945312 174.917969 C 237.945312 175.691406 237.945312 176.46875 237.945312 177.238281 C 237.945312 178.050781 237.980469 178.871094 237.933594 179.683594 C 237.925781 179.78125 237.921875 179.875 237.910156 179.96875 C 237.902344 180.023438 237.898438 180.078125 237.890625 180.128906 C 237.878906 180.296875 237.921875 179.917969 237.921875 179.941406 C 237.875 180.136719 237.855469 180.335938 237.808594 180.539062 C 237.71875 180.917969 237.601562 181.28125 237.464844 181.644531 C 237.375 181.875 237.625 181.304688 237.476562 181.613281 C 237.433594 181.695312 237.398438 181.78125 237.355469 181.863281 C 237.269531 182.042969 237.171875 182.214844 237.070312 182.378906 C 236.984375 182.523438 236.894531 182.664062 236.792969 182.808594 C 236.734375 182.890625 236.667969 182.972656 236.609375 183.0625 C 236.597656 183.074219 236.828125 182.800781 236.722656 182.914062 C 236.679688 182.960938 236.640625 183.015625 236.597656 183.0625 C 236.359375 183.339844 236.105469 183.601562 235.832031 183.839844 C 235.761719 183.898438 235.695312 183.957031 235.625 184.019531 C 235.363281 184.238281 235.847656 183.859375 235.648438 184 C 235.488281 184.113281 235.328125 184.226562 235.167969 184.332031 C 234.839844 184.539062 234.492188 184.675781 234.164062 184.867188 C 234.144531 184.878906 234.484375 184.734375 234.335938 184.796875 C 234.289062 184.8125 234.234375 184.835938 234.1875 184.855469 C 234.097656 184.890625 234.015625 184.921875 233.925781 184.949219 C 233.738281 185.015625 233.546875 185.070312 233.351562 185.121094 C 233.179688 185.164062 233.011719 185.199219 232.839844 185.234375 C 232.785156 185.246094 232.4375 185.292969 232.714844 185.257812 C 232.996094 185.222656 232.613281 185.265625 232.542969 185.269531 C 232.328125 185.289062 232.117188 185.292969 231.902344 185.292969 C 231.765625 185.292969 231.636719 185.292969 231.5 185.292969 C 230.804688 185.292969 230.117188 185.292969 229.421875 185.292969 C 227.265625 185.292969 225.105469 185.292969 222.953125 185.292969 C 221.519531 185.292969 220.078125 185.257812 218.648438 185.292969 C 218.625 185.292969 218.601562 185.292969 218.578125 185.292969 C 219.070312 185.785156 219.570312 186.285156 220.0625 186.777344 C 220.0625 186.28125 220.0625 185.78125 220.0625 185.289062 C 220.0625 184.699219 220.144531 184.007812 219.988281 183.429688 C 219.746094 182.535156 218.921875 181.953125 218.011719 181.929688 C 217.929688 181.929688 217.847656 181.929688 217.765625 181.929688 C 217.3125 181.929688 216.855469 181.929688 216.40625 181.929688 C 215.015625 181.929688 213.621094 181.929688 212.230469 181.929688 C 211.710938 181.929688 211.179688 181.929688 210.660156 181.929688 C 210.125 181.929688 209.621094 181.921875 209.128906 182.207031 C 208.449219 182.605469 208.113281 183.335938 208.113281 184.09375 C 208.113281 184.390625 208.113281 184.695312 208.113281 184.992188 C 208.113281 185.585938 208.113281 186.179688 208.113281 186.777344 C 208.605469 186.285156 209.105469 185.785156 209.597656 185.292969 C 207.15625 185.292969 204.71875 185.292969 202.277344 185.292969 C 200.742188 185.292969 199.199219 185.292969 197.660156 185.292969 C 197.257812 185.292969 196.847656 185.292969 196.445312 185.292969 C 196.382812 185.292969 196.320312 185.292969 196.257812 185.292969 C 195.980469 185.292969 195.707031 185.269531 195.433594 185.246094 C 195.191406 185.222656 195.570312 185.265625 195.589844 185.269531 C 195.511719 185.253906 195.429688 185.246094 195.34375 185.230469 C 195.183594 185.199219 195.03125 185.167969 194.871094 185.128906 C 194.585938 185.054688 194.308594 184.972656 194.035156 184.867188 C 193.960938 184.835938 193.886719 184.808594 193.8125 184.777344 C 194.242188 184.921875 193.980469 184.847656 193.878906 184.800781 C 193.738281 184.734375 193.59375 184.664062 193.457031 184.585938 C 193.203125 184.449219 192.960938 184.296875 192.726562 184.136719 C 192.613281 184.058594 192.3125 183.761719 192.652344 184.089844 C 192.539062 183.980469 192.40625 183.894531 192.292969 183.785156 C 192.082031 183.597656 191.878906 183.390625 191.6875 183.175781 C 191.605469 183.078125 191.527344 182.96875 191.441406 182.878906 C 191.738281 183.179688 191.550781 183.027344 191.480469 182.933594 C 191.421875 182.847656 191.363281 182.757812 191.304688 182.675781 C 191.148438 182.449219 191.011719 182.214844 190.882812 181.96875 C 190.816406 181.839844 190.757812 181.707031 190.691406 181.578125 C 190.5625 181.3125 190.824219 181.921875 190.714844 181.644531 C 190.6875 181.574219 190.65625 181.496094 190.632812 181.425781 C 190.53125 181.152344 190.449219 180.867188 190.382812 180.582031 C 190.355469 180.449219 190.324219 180.320312 190.300781 180.183594 C 190.289062 180.105469 190.277344 180.023438 190.257812 179.941406 C 190.359375 180.421875 190.277344 180.054688 190.265625 179.929688 C 190.242188 179.644531 190.234375 179.359375 190.234375 179.074219 C 190.234375 178.332031 190.234375 177.59375 190.234375 176.855469 C 190.234375 176.21875 190.230469 175.582031 190.234375 174.953125 C 190.234375 174.941406 190.234375 174.929688 190.234375 174.917969 C 190.234375 174.9375 190.242188 174.742188 190.242188 174.753906 C 190.292969 174.996094 190.1875 175.066406 190.234375 174.871094 C 190.246094 174.816406 190.289062 174.742188 190.289062 174.679688 C 190.257812 174.753906 190.230469 174.824219 190.199219 174.890625 C 190.222656 174.839844 190.242188 174.792969 190.269531 174.753906 C 190.304688 174.691406 190.371094 174.621094 190.394531 174.558594 C 190.355469 174.679688 190.167969 174.8125 190.359375 174.621094 C 190.492188 174.492188 190.578125 174.53125 190.292969 174.65625 C 190.359375 174.628906 190.425781 174.570312 190.492188 174.53125 C 190.53125 174.507812 190.589844 174.492188 190.625 174.460938 C 190.347656 174.65625 190.394531 174.550781 190.566406 174.507812 C 190.734375 174.46875 190.851562 174.527344 190.484375 174.507812 C 190.539062 174.515625 190.597656 174.503906 190.644531 174.503906 C 190.644531 174.503906 190.652344 174.503906 190.652344 174.503906 C 190.941406 174.496094 191.230469 174.503906 191.515625 174.503906 C 193.375 174.503906 195.234375 174.503906 197.089844 174.503906 C 200.089844 174.503906 203.078125 174.503906 206.078125 174.503906 C 209.589844 174.503906 213.097656 174.503906 216.613281 174.503906 C 219.949219 174.503906 223.289062 174.503906 226.625 174.503906 C 229.179688 174.503906 231.722656 174.503906 234.277344 174.503906 C 235.355469 174.503906 236.441406 174.484375 237.523438 174.503906 C 237.527344 174.503906 237.535156 174.503906 237.535156 174.503906 C 237.515625 174.503906 237.71875 174.503906 237.695312 174.507812 C 237.617188 174.496094 237.542969 174.484375 237.457031 174.480469 C 237.511719 174.492188 237.558594 174.496094 237.613281 174.515625 C 237.652344 174.527344 237.726562 174.5625 237.761719 174.5625 C 237.691406 174.53125 237.617188 174.503906 237.554688 174.472656 C 237.601562 174.496094 237.648438 174.515625 237.691406 174.542969 C 237.75 174.582031 237.820312 174.644531 237.886719 174.667969 C 237.855469 174.65625 237.613281 174.421875 237.761719 174.582031 C 237.800781 174.628906 237.867188 174.710938 237.921875 174.746094 C 237.875 174.6875 237.832031 174.628906 237.785156 174.570312 C 237.8125 174.609375 237.84375 174.652344 237.867188 174.699219 C 237.898438 174.742188 237.914062 174.789062 237.945312 174.835938 C 238.085938 175.078125 237.851562 174.492188 237.910156 174.769531 C 237.921875 174.835938 237.9375 174.9375 237.960938 175 C 237.949219 174.925781 237.9375 174.847656 237.933594 174.765625 C 237.9375 174.8125 237.945312 174.867188 237.945312 174.917969 C 237.960938 175.695312 238.617188 176.4375 239.429688 176.402344 C 240.21875 176.367188 240.929688 175.75 240.914062 174.917969 C 240.871094 173.0625 239.398438 171.578125 237.535156 171.542969 C 237.457031 171.542969 237.386719 171.542969 237.308594 171.542969 C 236.789062 171.542969 236.269531 171.542969 235.75 171.542969 C 233.511719 171.542969 231.265625 171.542969 229.03125 171.542969 C 225.757812 171.542969 222.488281 171.542969 219.21875 171.542969 C 215.628906 171.542969 212.035156 171.542969 208.445312 171.542969 C 205.214844 171.542969 201.988281 171.542969 198.757812 171.542969 C 196.582031 171.542969 194.40625 171.542969 192.230469 171.542969 C 191.753906 171.542969 191.273438 171.542969 190.800781 171.542969 C 190.453125 171.542969 190.109375 171.570312 189.777344 171.652344 C 188.269531 172.050781 187.277344 173.457031 187.273438 174.988281 C 187.265625 176.378906 187.273438 177.773438 187.273438 179.164062 C 187.273438 181.691406 188.304688 184.179688 190.195312 185.882812 C 191.902344 187.425781 194.082031 188.25 196.382812 188.25 C 197.464844 188.25 198.550781 188.25 199.632812 188.25 C 202.746094 188.25 205.863281 188.25 208.980469 188.25 C 209.1875 188.25 209.394531 188.25 209.597656 188.25 C 210.398438 188.25 211.082031 187.566406 211.082031 186.765625 C 211.082031 186.320312 211.082031 185.871094 211.082031 185.425781 C 211.082031 185.105469 211.082031 184.777344 211.082031 184.457031 C 211.082031 184.304688 211.105469 184.125 211.082031 183.96875 C 211.097656 184.089844 211.019531 184.304688 210.957031 184.425781 C 210.890625 184.550781 210.753906 184.683594 210.625 184.761719 C 210.664062 184.734375 210.15625 184.9375 210.15625 184.882812 C 210.15625 184.882812 210.203125 184.882812 210.203125 184.882812 C 210.308594 184.894531 210.425781 184.882812 210.535156 184.882812 C 210.996094 184.882812 211.453125 184.882812 211.917969 184.882812 C 213.210938 184.882812 214.511719 184.882812 215.804688 184.882812 C 216.328125 184.882812 216.84375 184.882812 217.367188 184.882812 C 217.566406 184.882812 217.804688 184.921875 218.007812 184.882812 C 217.710938 184.9375 217.347656 184.664062 217.210938 184.425781 C 217.171875 184.363281 217.058594 184.03125 217.085938 183.976562 C 217.0625 184.023438 217.085938 184.160156 217.085938 184.207031 C 217.085938 184.523438 217.085938 184.84375 217.085938 185.15625 C 217.085938 185.691406 217.085938 186.230469 217.085938 186.765625 C 217.085938 187.566406 217.769531 188.25 218.570312 188.25 C 219.8125 188.25 221.046875 188.25 222.285156 188.25 C 224.507812 188.25 226.726562 188.25 228.953125 188.25 C 230.4375 188.25 231.949219 188.332031 233.414062 188.113281 C 236.894531 187.589844 239.855469 184.761719 240.652344 181.359375 C 240.902344 180.289062 240.902344 179.226562 240.902344 178.140625 C 240.902344 177.132812 240.902344 176.125 240.902344 175.121094 C 240.902344 175.050781 240.902344 174.984375 240.902344 174.914062 C 240.902344 174.136719 240.21875 173.394531 239.417969 173.429688 C 238.621094 173.46875 237.945312 174.085938 237.945312 174.917969 Z M 237.945312 174.917969 " fill-opacity="1" fill-rule="nonzero"/></g><g clip-path="url(#73771ff690)"><path fill="#ffffff" d="M 222.820312 171.542969 C 220.84375 171.542969 218.867188 171.542969 216.890625 171.542969 C 213.769531 171.542969 210.640625 171.542969 207.519531 171.542969 C 206.800781 171.542969 206.082031 171.542969 205.363281 171.542969 C 205.855469 172.035156 206.355469 172.53125 206.847656 173.023438 C 206.847656 170.894531 206.847656 168.761719 206.847656 166.632812 C 206.847656 166.519531 206.847656 166.414062 206.847656 166.300781 C 206.847656 166.292969 206.847656 166.289062 206.847656 166.28125 C 206.847656 166.304688 206.855469 166.167969 206.855469 166.15625 C 206.855469 165.96875 206.746094 166.539062 206.847656 166.277344 C 206.859375 166.242188 206.894531 166.15625 206.894531 166.128906 C 206.890625 166.378906 206.757812 166.394531 206.84375 166.269531 C 206.871094 166.222656 207.019531 166.035156 206.855469 166.230469 C 206.675781 166.429688 206.878906 166.21875 206.914062 166.175781 C 206.949219 166.132812 207.097656 166.003906 206.914062 166.167969 C 206.722656 166.34375 206.90625 166.195312 206.957031 166.15625 C 207.085938 166.074219 207.0625 166.207031 206.8125 166.210938 C 206.84375 166.210938 206.933594 166.175781 206.960938 166.164062 C 207.222656 166.0625 206.652344 166.175781 206.84375 166.167969 C 206.847656 166.167969 206.992188 166.164062 206.96875 166.164062 C 206.972656 166.164062 206.972656 166.164062 206.980469 166.164062 C 207.03125 166.164062 207.09375 166.164062 207.144531 166.164062 C 207.945312 166.164062 208.746094 166.164062 209.542969 166.164062 C 212.28125 166.164062 215.011719 166.164062 217.746094 166.164062 C 218.726562 166.164062 219.703125 166.164062 220.683594 166.164062 C 220.863281 166.164062 221.035156 166.15625 221.210938 166.164062 C 221.210938 166.164062 221.21875 166.164062 221.21875 166.164062 C 221.234375 166.164062 221.285156 166.164062 221.300781 166.164062 C 221.582031 166.164062 221.027344 166.070312 221.183594 166.152344 C 221.21875 166.167969 221.335938 166.210938 221.371094 166.207031 C 221.335938 166.207031 221.046875 166.027344 221.230469 166.152344 C 221.25 166.164062 221.335938 166.230469 221.359375 166.234375 C 221.175781 166.085938 221.128906 166.046875 221.210938 166.121094 C 221.242188 166.144531 221.273438 166.175781 221.296875 166.199219 C 221.324219 166.230469 221.367188 166.289062 221.398438 166.3125 C 221.183594 166.15625 221.222656 166.082031 221.320312 166.234375 C 221.421875 166.40625 221.289062 166.367188 221.285156 166.128906 C 221.285156 166.15625 221.320312 166.253906 221.332031 166.277344 C 221.425781 166.519531 221.285156 166.105469 221.320312 166.117188 C 221.332031 166.117188 221.324219 166.257812 221.324219 166.28125 C 221.324219 166.289062 221.324219 166.292969 221.324219 166.300781 C 221.367188 168.464844 221.324219 170.644531 221.324219 172.8125 C 221.324219 172.882812 221.324219 172.949219 221.324219 173.019531 C 221.324219 173.796875 222.007812 174.539062 222.808594 174.503906 C 223.609375 174.46875 224.292969 173.851562 224.292969 173.019531 C 224.292969 170.847656 224.292969 168.679688 224.292969 166.507812 C 224.292969 165.605469 224.039062 164.75 223.386719 164.097656 C 222.773438 163.488281 221.949219 163.195312 221.085938 163.191406 C 220.308594 163.191406 219.539062 163.191406 218.761719 163.191406 C 215.949219 163.191406 213.128906 163.191406 210.316406 163.191406 C 209.339844 163.191406 208.363281 163.191406 207.390625 163.191406 C 207.242188 163.191406 207.09375 163.183594 206.949219 163.191406 C 205.246094 163.226562 203.90625 164.574219 203.863281 166.277344 C 203.816406 168.441406 203.863281 170.617188 203.863281 172.789062 C 203.863281 172.863281 203.863281 172.941406 203.863281 173.019531 C 203.863281 173.820312 204.546875 174.503906 205.347656 174.503906 C 207.324219 174.503906 209.300781 174.503906 211.277344 174.503906 C 214.398438 174.503906 217.527344 174.503906 220.648438 174.503906 C 221.367188 174.503906 222.085938 174.503906 222.804688 174.503906 C 223.582031 174.503906 224.324219 173.820312 224.289062 173.019531 C 224.269531 172.222656 223.652344 171.542969 222.820312 171.542969 Z M 222.820312 171.542969 " fill-opacity="1" fill-rule="nonzero"/></g></svg>