<svg xmlns="http://www.w3.org/2000/svg" xmlns:xlink="http://www.w3.org/1999/xlink" width="1080" zoomAndPan="magnify" viewBox="0 0 810 1439.999935" height="1920" preserveAspectRatio="xMidYMid meet" version="1.0"><defs><clipPath id="95d871bd23"><path d="M 263 465 L 486 465 L 486 778 L 263 778 Z M 263 465 " clip-rule="nonzero"/></clipPath><clipPath id="1a69dbc33b"><path d="M 181.949219 540.363281 L 416.046875 457.75 L 500.410156 696.796875 L 266.3125 779.414062 Z M 181.949219 540.363281 " clip-rule="nonzero"/></clipPath><clipPath id="183a7cd165"><path d="M 181.949219 540.363281 L 416.046875 457.75 L 500.410156 696.796875 L 266.3125 779.414062 Z M 181.949219 540.363281 " clip-rule="nonzero"/></clipPath></defs><g clip-path="url(#95d871bd23)"><g clip-path="url(#1a69dbc33b)"><g clip-path="url(#183a7cd165)"><path fill="#ffffff" d="M 453.0625 646.605469 C 451.699219 642.738281 450.320312 638.878906 448.976562 635.007812 C 448.214844 632.804688 447.007812 631.121094 445.046875 629.652344 C 439.714844 625.664062 439.171875 623.5 441.433594 616.722656 C 442.054688 614.863281 442.132812 613.203125 441.484375 611.429688 C 441.171875 610.574219 440.90625 609.703125 440.601562 608.84375 C 426.90625 570.207031 413.214844 531.566406 399.496094 492.9375 C 398.816406 491.019531 397.929688 489.167969 397.0625 487.320312 C 396.683594 486.511719 395.21875 486.480469 394.796875 487.238281 C 394.359375 488.03125 393.976562 488.855469 393.613281 489.6875 C 387.664062 503.359375 377.804688 513.417969 364.984375 520.75 C 363.796875 521.429688 362.648438 522.238281 361.375 522.679688 C 357.761719 523.917969 357.035156 526.488281 356.804688 530.070312 C 355.40625 551.609375 348.015625 570.851562 334.035156 587.425781 C 330.792969 591.269531 327.046875 594.601562 323.082031 597.671875 C 321.066406 599.230469 320.421875 601.003906 320.863281 603.605469 C 322.851562 615.359375 323.066406 627.15625 321.136719 638.957031 C 318.765625 653.449219 313.097656 666.441406 303.449219 677.570312 C 300.179688 681.347656 296.824219 685.117188 291.6875 686.511719 C 290.199219 686.917969 289.519531 688.125 289.320312 689.558594 C 288.605469 694.742188 287.914062 699.929688 287.265625 705.121094 C 287.066406 706.722656 287.96875 707.753906 289.445312 708.117188 C 293.417969 709.089844 297.410156 710.003906 301.410156 710.855469 C 302.839844 711.160156 304.09375 710.617188 305.066406 709.5 C 305.964844 708.46875 306.796875 707.371094 307.777344 706.433594 C 316.511719 698.078125 330.8125 700.832031 335.855469 711.816406 C 338.652344 717.910156 337.0625 725.753906 332.03125 730.699219 C 327.0625 735.578125 319.347656 737.0625 313.027344 734.21875 C 308.515625 732.1875 304.851562 729.09375 303.183594 724.324219 C 302.03125 721.039062 299.890625 719.722656 296.652344 719.351562 C 294.171875 719.066406 291.738281 718.378906 289.269531 717.984375 C 286.464844 717.535156 285.550781 718.21875 285.410156 721.234375 C 284.671875 737.199219 281.039062 752.789062 279.332031 768.625 C 279.234375 769.53125 279.097656 770.4375 278.882812 771.320312 C 277.839844 775.5625 275.148438 777.570312 271.023438 777.234375 C 266.699219 776.882812 263.648438 774.019531 263.488281 769.890625 C 263.410156 767.855469 263.640625 765.792969 263.921875 763.769531 C 266.308594 746.628906 268.59375 729.476562 271.234375 712.375 C 272.132812 706.558594 273.976562 700.886719 275.34375 695.136719 C 276.1875 691.597656 277.113281 688.070312 277.726562 684.488281 C 284.222656 646.597656 295.015625 609.992188 310.628906 574.859375 C 320.847656 551.871094 333.933594 530.601562 349.289062 510.652344 C 360.730469 495.785156 373.566406 482.328125 387.652344 470.007812 C 389.359375 468.519531 391.175781 467.109375 393.097656 465.917969 C 395.101562 464.671875 397.679688 465.878906 397.554688 468.175781 C 397.386719 471.308594 398.558594 473.976562 399.53125 476.742188 C 414.695312 519.929688 429.886719 563.109375 445.074219 606.292969 C 445.375 607.152344 445.714844 608 445.980469 608.871094 C 446.675781 611.136719 447.96875 612.671875 450.148438 613.917969 C 455.765625 617.121094 456.769531 619.5 455.289062 625.683594 C 454.71875 628.054688 454.910156 630.144531 455.671875 632.335938 C 458.277344 639.867188 460.847656 647.414062 463.457031 654.945312 C 463.828125 656.015625 464.230469 657.105469 464.8125 658.070312 C 467.789062 663.015625 473.945312 663.085938 477.148438 658.25 C 478.742188 655.851562 478.359375 654.355469 475.746094 652.75 C 472.910156 651.011719 472.804688 650.863281 473.984375 648.082031 C 475.140625 645.363281 476.394531 642.683594 477.671875 640.019531 C 478.089844 639.152344 479.550781 639.105469 479.925781 639.921875 C 482.117188 644.6875 484.085938 649.578125 484.941406 654.742188 C 485.773438 659.75 482.554688 665.179688 477.710938 667.644531 C 472.609375 670.234375 467.570312 669.941406 462.914062 666.507812 C 460.285156 664.574219 458.546875 661.914062 457.476562 658.8125 C 456.0625 654.722656 454.601562 650.648438 453.164062 646.570312 C 453.128906 646.582031 453.097656 646.59375 453.0625 646.605469 Z M 315.660156 603.6875 C 315.285156 602.851562 315.039062 602.21875 314.730469 601.617188 C 314.277344 600.746094 313.496094 600.171875 312.554688 600.316406 C 311.972656 600.40625 311.226562 600.898438 310.972656 601.417969 C 310.171875 603.039062 309.507812 604.738281 308.898438 606.445312 C 301.09375 628.332031 295.691406 650.84375 291.613281 673.691406 C 291.335938 675.234375 291.359375 676.839844 291.347656 678.421875 C 291.34375 679.269531 292.636719 679.933594 293.410156 679.523438 C 294.203125 679.105469 295.039062 678.703125 295.707031 678.121094 C 298.972656 675.257812 301.683594 671.914062 304.054688 668.28125 C 315.359375 650.960938 318.742188 631.863281 316.746094 611.570312 C 316.480469 608.863281 316.007812 606.171875 315.660156 603.6875 Z M 319.09375 593.539062 C 321.921875 591.746094 324.757812 589.136719 327.421875 586.355469 C 342.167969 570.953125 349.667969 552.332031 351.667969 531.308594 C 351.820312 529.746094 351.699219 528.128906 351.488281 526.570312 C 351.414062 526.027344 350.75 525.3125 350.21875 525.160156 C 349.695312 525.011719 348.800781 525.289062 348.414062 525.703125 C 347.488281 526.6875 346.699219 527.816406 345.976562 528.964844 C 343.082031 533.582031 340.132812 538.175781 337.382812 542.882812 C 329.46875 556.445312 322.742188 570.597656 316.871094 585.160156 C 316.191406 586.84375 315.625 588.574219 315.074219 590.304688 C 314.699219 591.472656 314.902344 592.574219 315.972656 593.3125 C 316.742188 593.84375 317.636719 593.996094 319.09375 593.539062 Z M 357.828125 518.613281 C 358.5 518.265625 359.523438 517.777344 360.507812 517.226562 C 365.082031 514.65625 369.394531 511.695312 373.332031 508.238281 C 381.367188 501.179688 387.183594 492.625 390.378906 482.367188 C 390.78125 481.078125 391.015625 479.730469 391.214844 478.390625 C 391.273438 478.007812 391.035156 477.441406 390.742188 477.179688 C 390.179688 476.679688 389.480469 476.867188 388.878906 477.222656 C 388.492188 477.449219 388.128906 477.742188 387.804688 478.054688 C 376.640625 488.796875 366.277344 500.246094 357.035156 512.695312 C 356.359375 513.605469 355.753906 514.570312 355.160156 515.539062 C 354.671875 516.339844 354.414062 517.277344 354.964844 518.078125 C 355.542969 518.921875 356.523438 518.851562 357.828125 518.613281 Z M 322.621094 726.894531 C 326.953125 725.410156 329.882812 720.011719 328.53125 716 C 327.101562 711.757812 321.042969 708.90625 316.800781 710.476562 C 312.3125 712.136719 309.945312 717.105469 311.527344 721.539062 C 313.085938 725.898438 318.25 728.394531 322.621094 726.894531 Z M 322.621094 726.894531 " fill-opacity="1" fill-rule="nonzero"/></g></g></g></svg>