<svg xmlns="http://www.w3.org/2000/svg" xmlns:xlink="http://www.w3.org/1999/xlink" width="500" zoomAndPan="magnify" viewBox="0 0 375 374.999991" height="500" preserveAspectRatio="xMidYMid meet" version="1.0"><defs><clipPath id="a498972ca8"><path d="M 136 96 L 217 96 L 217 208 L 136 208 Z M 136 96 " clip-rule="nonzero"/></clipPath><clipPath id="f169d16f86"><path d="M 107.644531 123.1875 L 191.804688 93.484375 L 222.007812 179.0625 L 137.84375 208.761719 Z M 107.644531 123.1875 " clip-rule="nonzero"/></clipPath><clipPath id="daee08b032"><path d="M 107.644531 123.1875 L 191.804688 93.484375 L 222.007812 179.0625 L 137.84375 208.761719 Z M 107.644531 123.1875 " clip-rule="nonzero"/></clipPath></defs><g clip-path="url(#a498972ca8)"><g clip-path="url(#f169d16f86)"><g clip-path="url(#daee08b032)"><path fill="#ffffff" d="M 204.703125 161.222656 C 204.214844 159.835938 203.71875 158.457031 203.238281 157.070312 C 202.96875 156.28125 202.535156 155.675781 201.832031 155.152344 C 199.921875 153.726562 199.730469 152.949219 200.539062 150.523438 C 200.761719 149.859375 200.789062 149.261719 200.554688 148.628906 C 200.445312 148.320312 200.351562 148.007812 200.242188 147.703125 C 195.339844 133.871094 190.4375 120.039062 185.527344 106.207031 C 185.28125 105.519531 184.964844 104.859375 184.652344 104.195312 C 184.519531 103.90625 183.992188 103.894531 183.84375 104.167969 C 183.683594 104.449219 183.546875 104.746094 183.417969 105.042969 C 181.289062 109.9375 177.757812 113.539062 173.167969 116.164062 C 172.746094 116.40625 172.332031 116.699219 171.878906 116.855469 C 170.585938 117.300781 170.324219 118.21875 170.242188 119.5 C 169.742188 127.210938 167.09375 134.101562 162.089844 140.035156 C 160.929688 141.410156 159.585938 142.601562 158.167969 143.703125 C 157.445312 144.261719 157.214844 144.894531 157.375 145.828125 C 158.085938 150.035156 158.164062 154.257812 157.472656 158.484375 C 156.621094 163.671875 154.59375 168.320312 151.140625 172.308594 C 149.96875 173.660156 148.765625 175.007812 146.929688 175.507812 C 146.398438 175.652344 146.152344 176.085938 146.082031 176.597656 C 145.828125 178.453125 145.578125 180.3125 145.347656 182.171875 C 145.273438 182.742188 145.597656 183.113281 146.125 183.242188 C 147.550781 183.589844 148.976562 183.917969 150.410156 184.222656 C 150.921875 184.332031 151.371094 184.136719 151.71875 183.738281 C 152.039062 183.367188 152.339844 182.976562 152.691406 182.640625 C 155.816406 179.648438 160.9375 180.636719 162.742188 184.566406 C 163.742188 186.75 163.175781 189.558594 161.371094 191.328125 C 159.59375 193.074219 156.832031 193.605469 154.570312 192.585938 C 152.953125 191.859375 151.640625 190.753906 151.042969 189.042969 C 150.632812 187.867188 149.867188 187.398438 148.707031 187.265625 C 147.820312 187.160156 146.949219 186.917969 146.0625 186.773438 C 145.058594 186.613281 144.730469 186.859375 144.683594 187.9375 C 144.417969 193.65625 143.117188 199.234375 142.503906 204.90625 C 142.472656 205.230469 142.421875 205.554688 142.34375 205.871094 C 141.972656 207.386719 141.007812 208.105469 139.53125 207.988281 C 137.984375 207.859375 136.890625 206.835938 136.832031 205.355469 C 136.804688 204.628906 136.886719 203.890625 136.988281 203.164062 C 137.84375 197.03125 138.660156 190.890625 139.605469 184.765625 C 139.929688 182.683594 140.589844 180.652344 141.078125 178.597656 C 141.378906 177.328125 141.710938 176.066406 141.929688 174.785156 C 144.257812 161.21875 148.121094 148.113281 153.710938 135.535156 C 157.367188 127.304688 162.054688 119.691406 167.550781 112.550781 C 171.648438 107.226562 176.242188 102.410156 181.285156 98 C 181.894531 97.464844 182.546875 96.960938 183.234375 96.535156 C 183.953125 96.089844 184.875 96.519531 184.832031 97.34375 C 184.769531 98.464844 185.191406 99.417969 185.539062 100.410156 C 190.96875 115.871094 196.40625 131.328125 201.839844 146.789062 C 201.949219 147.097656 202.070312 147.402344 202.167969 147.710938 C 202.417969 148.523438 202.878906 149.074219 203.660156 149.519531 C 205.667969 150.667969 206.03125 151.519531 205.5 153.730469 C 205.296875 154.582031 205.363281 155.328125 205.636719 156.113281 C 206.570312 158.808594 207.488281 161.511719 208.421875 164.207031 C 208.554688 164.589844 208.699219 164.980469 208.90625 165.324219 C 209.972656 167.097656 212.175781 167.121094 213.324219 165.390625 C 213.894531 164.53125 213.757812 163.996094 212.824219 163.421875 C 211.808594 162.796875 211.769531 162.746094 212.191406 161.75 C 212.605469 160.777344 213.054688 159.816406 213.511719 158.863281 C 213.660156 158.554688 214.183594 158.535156 214.320312 158.828125 C 215.105469 160.535156 215.808594 162.285156 216.113281 164.132812 C 216.410156 165.925781 215.261719 167.871094 213.527344 168.753906 C 211.699219 169.679688 209.894531 169.574219 208.230469 168.347656 C 207.289062 167.652344 206.664062 166.703125 206.28125 165.589844 C 205.777344 164.128906 205.253906 162.667969 204.738281 161.207031 C 204.726562 161.210938 204.714844 161.21875 204.703125 161.222656 Z M 155.511719 145.855469 C 155.378906 145.558594 155.289062 145.332031 155.179688 145.117188 C 155.015625 144.804688 154.738281 144.597656 154.398438 144.648438 C 154.191406 144.679688 153.925781 144.859375 153.832031 145.042969 C 153.546875 145.625 153.308594 146.234375 153.089844 146.84375 C 150.296875 154.679688 148.363281 162.738281 146.902344 170.917969 C 146.804688 171.472656 146.8125 172.046875 146.808594 172.609375 C 146.804688 172.914062 147.269531 173.152344 147.546875 173.007812 C 147.832031 172.855469 148.128906 172.710938 148.367188 172.503906 C 149.535156 171.480469 150.507812 170.28125 151.355469 168.980469 C 155.402344 162.78125 156.617188 155.945312 155.898438 148.679688 C 155.804688 147.707031 155.636719 146.746094 155.511719 145.855469 Z M 156.742188 142.222656 C 157.753906 141.582031 158.769531 140.648438 159.722656 139.652344 C 165 134.136719 167.6875 127.46875 168.402344 119.945312 C 168.457031 119.386719 168.414062 118.808594 168.335938 118.246094 C 168.3125 118.054688 168.074219 117.796875 167.882812 117.742188 C 167.695312 117.691406 167.375 117.789062 167.238281 117.9375 C 166.90625 118.289062 166.621094 118.695312 166.363281 119.105469 C 165.328125 120.757812 164.273438 122.402344 163.289062 124.089844 C 160.453125 128.945312 158.046875 134.011719 155.945312 139.222656 C 155.703125 139.824219 155.5 140.445312 155.300781 141.066406 C 155.167969 141.484375 155.242188 141.878906 155.625 142.140625 C 155.898438 142.332031 156.21875 142.386719 156.742188 142.222656 Z M 170.609375 115.398438 C 170.847656 115.273438 171.214844 115.101562 171.566406 114.902344 C 173.203125 113.984375 174.75 112.921875 176.160156 111.683594 C 179.035156 109.160156 181.117188 106.09375 182.261719 102.421875 C 182.40625 101.960938 182.488281 101.480469 182.5625 101 C 182.582031 100.863281 182.496094 100.660156 182.390625 100.566406 C 182.1875 100.386719 181.9375 100.453125 181.722656 100.582031 C 181.585938 100.664062 181.457031 100.765625 181.339844 100.878906 C 177.34375 104.722656 173.632812 108.824219 170.324219 113.28125 C 170.082031 113.605469 169.867188 113.953125 169.652344 114.300781 C 169.476562 114.585938 169.386719 114.921875 169.582031 115.207031 C 169.789062 115.511719 170.140625 115.484375 170.609375 115.398438 Z M 158.003906 189.964844 C 159.554688 189.433594 160.601562 187.5 160.121094 186.066406 C 159.609375 184.546875 157.4375 183.523438 155.917969 184.085938 C 154.3125 184.683594 153.464844 186.460938 154.03125 188.046875 C 154.589844 189.609375 156.4375 190.5 158.003906 189.964844 Z M 158.003906 189.964844 " fill-opacity="1" fill-rule="nonzero"/></g></g></g></svg>