<svg xmlns="http://www.w3.org/2000/svg" xmlns:xlink="http://www.w3.org/1999/xlink" width="1080" zoomAndPan="magnify" viewBox="0 0 810 1439.999935" height="1920" preserveAspectRatio="xMidYMid meet" version="1.0"><defs><g/><clipPath id="741aaf5098"><path d="M 263 465 L 486 465 L 486 778 L 263 778 Z M 263 465 " clip-rule="nonzero"/></clipPath><clipPath id="8660a39375"><path d="M 181.949219 540.363281 L 416.046875 457.75 L 500.410156 696.796875 L 266.3125 779.414062 Z M 181.949219 540.363281 " clip-rule="nonzero"/></clipPath><clipPath id="bb32930a78"><path d="M 181.949219 540.363281 L 416.046875 457.75 L 500.410156 696.796875 L 266.3125 779.414062 Z M 181.949219 540.363281 " clip-rule="nonzero"/></clipPath><clipPath id="6fd9e1fb5f"><path d="M 404.296875 675 L 554.296875 675 L 554.296875 790 L 404.296875 790 Z M 404.296875 675 " clip-rule="nonzero"/></clipPath><clipPath id="4e28d711e8"><path d="M 404.296875 675 L 554.296875 675 L 554.296875 723 L 404.296875 723 Z M 404.296875 675 " clip-rule="nonzero"/></clipPath><clipPath id="e2b94231da"><path d="M 450 652.082031 L 508 652.082031 L 508 684 L 450 684 Z M 450 652.082031 " clip-rule="nonzero"/></clipPath><clipPath id="9b483c2c9d"><rect x="0" width="564" y="0" height="243"/></clipPath></defs><g clip-path="url(#741aaf5098)"><g clip-path="url(#8660a39375)"><g clip-path="url(#bb32930a78)"><path fill="#ffffff" d="M 453.0625 646.605469 C 451.699219 642.738281 450.320312 638.878906 448.976562 635.007812 C 448.214844 632.804688 447.007812 631.121094 445.046875 629.652344 C 439.714844 625.664062 439.171875 623.5 441.433594 616.722656 C 442.054688 614.863281 442.132812 613.203125 441.484375 611.429688 C 441.171875 610.574219 440.90625 609.703125 440.601562 608.84375 C 426.90625 570.207031 413.214844 531.566406 399.496094 492.9375 C 398.816406 491.019531 397.929688 489.167969 397.0625 487.320312 C 396.683594 486.511719 395.21875 486.480469 394.796875 487.238281 C 394.359375 488.03125 393.976562 488.855469 393.613281 489.6875 C 387.664062 503.359375 377.804688 513.417969 364.984375 520.75 C 363.796875 521.429688 362.648438 522.238281 361.375 522.679688 C 357.761719 523.917969 357.035156 526.488281 356.804688 530.070312 C 355.40625 551.609375 348.015625 570.851562 334.035156 587.425781 C 330.792969 591.269531 327.046875 594.601562 323.082031 597.671875 C 321.066406 599.230469 320.421875 601.003906 320.863281 603.605469 C 322.851562 615.359375 323.066406 627.15625 321.136719 638.957031 C 318.765625 653.449219 313.097656 666.441406 303.449219 677.570312 C 300.179688 681.347656 296.824219 685.117188 291.6875 686.511719 C 290.199219 686.917969 289.519531 688.125 289.320312 689.558594 C 288.605469 694.742188 287.914062 699.929688 287.265625 705.121094 C 287.066406 706.722656 287.96875 707.753906 289.445312 708.117188 C 293.417969 709.089844 297.410156 710.003906 301.410156 710.855469 C 302.839844 711.160156 304.09375 710.617188 305.066406 709.5 C 305.964844 708.46875 306.796875 707.371094 307.777344 706.433594 C 316.511719 698.078125 330.8125 700.832031 335.855469 711.816406 C 338.652344 717.910156 337.0625 725.753906 332.03125 730.699219 C 327.0625 735.578125 319.347656 737.0625 313.027344 734.21875 C 308.515625 732.1875 304.851562 729.09375 303.183594 724.324219 C 302.03125 721.039062 299.890625 719.722656 296.652344 719.351562 C 294.171875 719.066406 291.738281 718.378906 289.269531 717.984375 C 286.464844 717.535156 285.550781 718.21875 285.410156 721.234375 C 284.671875 737.199219 281.039062 752.789062 279.332031 768.625 C 279.234375 769.53125 279.097656 770.4375 278.882812 771.320312 C 277.839844 775.5625 275.148438 777.570312 271.023438 777.234375 C 266.699219 776.882812 263.648438 774.019531 263.488281 769.890625 C 263.410156 767.855469 263.640625 765.792969 263.921875 763.769531 C 266.308594 746.628906 268.59375 729.476562 271.234375 712.375 C 272.132812 706.558594 273.976562 700.886719 275.34375 695.136719 C 276.1875 691.597656 277.113281 688.070312 277.726562 684.488281 C 284.222656 646.597656 295.015625 609.992188 310.628906 574.859375 C 320.847656 551.871094 333.933594 530.601562 349.289062 510.652344 C 360.730469 495.785156 373.566406 482.328125 387.652344 470.007812 C 389.359375 468.519531 391.175781 467.109375 393.097656 465.917969 C 395.101562 464.671875 397.679688 465.878906 397.554688 468.175781 C 397.386719 471.308594 398.558594 473.976562 399.53125 476.742188 C 414.695312 519.929688 429.886719 563.109375 445.074219 606.292969 C 445.375 607.152344 445.714844 608 445.980469 608.871094 C 446.675781 611.136719 447.96875 612.671875 450.148438 613.917969 C 455.765625 617.121094 456.769531 619.5 455.289062 625.683594 C 454.71875 628.054688 454.910156 630.144531 455.671875 632.335938 C 458.277344 639.867188 460.847656 647.414062 463.457031 654.945312 C 463.828125 656.015625 464.230469 657.105469 464.8125 658.070312 C 467.789062 663.015625 473.945312 663.085938 477.148438 658.25 C 478.742188 655.851562 478.359375 654.355469 475.746094 652.75 C 472.910156 651.011719 472.804688 650.863281 473.984375 648.082031 C 475.140625 645.363281 476.394531 642.683594 477.671875 640.019531 C 478.089844 639.152344 479.550781 639.105469 479.925781 639.921875 C 482.117188 644.6875 484.085938 649.578125 484.941406 654.742188 C 485.773438 659.75 482.554688 665.179688 477.710938 667.644531 C 472.609375 670.234375 467.570312 669.941406 462.914062 666.507812 C 460.285156 664.574219 458.546875 661.914062 457.476562 658.8125 C 456.0625 654.722656 454.601562 650.648438 453.164062 646.570312 C 453.128906 646.582031 453.097656 646.59375 453.0625 646.605469 Z M 315.660156 603.6875 C 315.285156 602.851562 315.039062 602.21875 314.730469 601.617188 C 314.277344 600.746094 313.496094 600.171875 312.554688 600.316406 C 311.972656 600.40625 311.226562 600.898438 310.972656 601.417969 C 310.171875 603.039062 309.507812 604.738281 308.898438 606.445312 C 301.09375 628.332031 295.691406 650.84375 291.613281 673.691406 C 291.335938 675.234375 291.359375 676.839844 291.347656 678.421875 C 291.34375 679.269531 292.636719 679.933594 293.410156 679.523438 C 294.203125 679.105469 295.039062 678.703125 295.707031 678.121094 C 298.972656 675.257812 301.683594 671.914062 304.054688 668.28125 C 315.359375 650.960938 318.742188 631.863281 316.746094 611.570312 C 316.480469 608.863281 316.007812 606.171875 315.660156 603.6875 Z M 319.09375 593.539062 C 321.921875 591.746094 324.757812 589.136719 327.421875 586.355469 C 342.167969 570.953125 349.667969 552.332031 351.667969 531.308594 C 351.820312 529.746094 351.699219 528.128906 351.488281 526.570312 C 351.414062 526.027344 350.75 525.3125 350.21875 525.160156 C 349.695312 525.011719 348.800781 525.289062 348.414062 525.703125 C 347.488281 526.6875 346.699219 527.816406 345.976562 528.964844 C 343.082031 533.582031 340.132812 538.175781 337.382812 542.882812 C 329.46875 556.445312 322.742188 570.597656 316.871094 585.160156 C 316.191406 586.84375 315.625 588.574219 315.074219 590.304688 C 314.699219 591.472656 314.902344 592.574219 315.972656 593.3125 C 316.742188 593.84375 317.636719 593.996094 319.09375 593.539062 Z M 357.828125 518.613281 C 358.5 518.265625 359.523438 517.777344 360.507812 517.226562 C 365.082031 514.65625 369.394531 511.695312 373.332031 508.238281 C 381.367188 501.179688 387.183594 492.625 390.378906 482.367188 C 390.78125 481.078125 391.015625 479.730469 391.214844 478.390625 C 391.273438 478.007812 391.035156 477.441406 390.742188 477.179688 C 390.179688 476.679688 389.480469 476.867188 388.878906 477.222656 C 388.492188 477.449219 388.128906 477.742188 387.804688 478.054688 C 376.640625 488.796875 366.277344 500.246094 357.035156 512.695312 C 356.359375 513.605469 355.753906 514.570312 355.160156 515.539062 C 354.671875 516.339844 354.414062 517.277344 354.964844 518.078125 C 355.542969 518.921875 356.523438 518.851562 357.828125 518.613281 Z M 322.621094 726.894531 C 326.953125 725.410156 329.882812 720.011719 328.53125 716 C 327.101562 711.757812 321.042969 708.90625 316.800781 710.476562 C 312.3125 712.136719 309.945312 717.105469 311.527344 721.539062 C 313.085938 725.898438 318.25 728.394531 322.621094 726.894531 Z M 322.621094 726.894531 " fill-opacity="1" fill-rule="nonzero"/></g></g></g><g clip-path="url(#6fd9e1fb5f)"><path fill="#ffffff" d="M 545.90625 685.375 C 545.90625 686.621094 545.90625 687.863281 545.90625 689.125 C 545.90625 692.457031 545.90625 695.789062 545.90625 699.105469 C 545.90625 703.832031 545.90625 708.558594 545.90625 713.28125 C 545.90625 718.769531 545.90625 724.257812 545.90625 729.746094 C 545.90625 735.351562 545.90625 740.941406 545.90625 746.542969 C 545.90625 751.636719 545.90625 756.707031 545.90625 761.800781 C 545.90625 765.664062 545.90625 769.527344 545.90625 773.390625 C 545.90625 775.414062 545.90625 777.433594 545.90625 779.457031 C 545.90625 779.605469 545.90625 779.738281 545.90625 779.890625 C 545.90625 779.90625 545.90625 779.90625 545.90625 779.921875 C 545.90625 780.039062 545.890625 780.15625 545.890625 780.269531 C 545.925781 780.75 546.074219 779.390625 545.957031 779.855469 C 545.90625 780.070312 545.859375 780.289062 545.792969 780.503906 C 545.757812 780.601562 545.691406 780.71875 545.691406 780.816406 C 545.691406 780.816406 546.105469 780.003906 545.890625 780.335938 C 545.773438 780.519531 545.675781 780.71875 545.578125 780.917969 C 545.492188 781.066406 545.179688 781.464844 545.59375 780.949219 C 546.007812 780.417969 545.675781 780.851562 545.558594 780.949219 C 545.410156 781.101562 545.226562 781.25 545.09375 781.398438 C 544.847656 781.679688 545.492188 781.101562 545.511719 781.082031 C 545.425781 781.101562 545.3125 781.214844 545.246094 781.265625 C 545.0625 781.363281 544.847656 781.464844 544.664062 781.582031 C 544.332031 781.796875 545.144531 781.382812 545.144531 781.382812 C 545.011719 781.398438 544.863281 781.480469 544.714844 781.515625 C 544.5 781.582031 544.265625 781.597656 544.050781 781.664062 C 544.132812 781.628906 545.128906 781.597656 544.464844 781.582031 C 544.464844 781.582031 544.234375 781.582031 544.234375 781.582031 C 544.234375 781.582031 544.214844 781.582031 544.214844 781.582031 C 544.117188 781.582031 544.035156 781.582031 543.933594 781.582031 C 542.457031 781.582031 540.964844 781.582031 539.492188 781.582031 C 536.472656 781.582031 533.4375 781.582031 530.421875 781.582031 C 526.226562 781.582031 522.046875 781.582031 517.851562 781.582031 C 512.828125 781.582031 507.820312 781.582031 502.796875 781.582031 C 497.257812 781.582031 491.738281 781.582031 486.199219 781.582031 C 480.546875 781.582031 474.90625 781.582031 469.253906 781.582031 C 463.816406 781.582031 458.359375 781.582031 452.921875 781.582031 C 448.03125 781.582031 443.121094 781.582031 438.230469 781.582031 C 434.21875 781.582031 430.222656 781.582031 426.207031 781.582031 C 423.421875 781.582031 420.652344 781.582031 417.867188 781.582031 C 416.691406 781.582031 415.496094 781.597656 414.320312 781.582031 C 414.304688 781.582031 414.285156 781.582031 414.253906 781.582031 C 414.136719 781.582031 414.023438 781.5625 413.90625 781.5625 C 413.492188 781.582031 414.453125 781.648438 414.4375 781.648438 C 414.335938 781.613281 414.203125 781.613281 414.105469 781.582031 C 413.890625 781.53125 413.671875 781.449219 413.457031 781.398438 C 413.058594 781.296875 413.9375 781.613281 413.9375 781.613281 C 413.839844 781.53125 413.65625 781.480469 413.539062 781.414062 C 413.359375 781.316406 413.175781 781.132812 412.992188 781.066406 C 413.640625 781.28125 413.605469 781.597656 413.324219 781.296875 C 413.242188 781.214844 413.160156 781.148438 413.09375 781.066406 C 412.976562 780.949219 412.480469 780.355469 412.910156 780.917969 C 413.34375 781.480469 412.84375 780.769531 412.746094 780.601562 C 412.695312 780.503906 412.644531 780.402344 412.59375 780.304688 C 412.378906 779.972656 412.792969 780.785156 412.792969 780.785156 C 412.761719 780.570312 412.644531 780.355469 412.59375 780.136719 C 412.5625 780.023438 412.5625 779.921875 412.53125 779.804688 C 412.429688 779.410156 412.59375 780.355469 412.59375 780.335938 C 412.628906 780.253906 412.578125 779.9375 412.578125 779.871094 C 412.578125 779.523438 412.578125 779.175781 412.578125 778.828125 C 412.578125 776.421875 412.578125 774.003906 412.578125 771.597656 C 412.578125 767.46875 412.578125 763.339844 412.578125 759.210938 C 412.578125 754.007812 412.578125 748.816406 412.578125 743.609375 C 412.578125 737.988281 412.578125 732.351562 412.578125 726.730469 C 412.578125 721.324219 412.578125 715.917969 412.578125 710.53125 C 412.578125 705.988281 412.578125 701.445312 412.578125 696.882812 C 412.578125 693.882812 412.578125 690.898438 412.578125 687.898438 C 412.578125 687.167969 412.578125 686.453125 412.578125 685.726562 C 412.578125 685.59375 412.578125 685.460938 412.578125 685.34375 C 412.578125 685.34375 412.578125 685.328125 412.578125 685.328125 C 412.578125 685.210938 412.59375 685.09375 412.59375 684.980469 C 412.578125 684.5625 412.511719 685.527344 412.511719 685.507812 C 412.5625 685.34375 412.578125 685.128906 412.628906 684.960938 C 412.679688 684.78125 412.960938 684.066406 412.679688 684.730469 C 412.398438 685.394531 412.726562 684.679688 412.8125 684.53125 C 412.894531 684.382812 413.359375 683.753906 412.910156 684.316406 C 412.464844 684.878906 413.027344 684.214844 413.160156 684.082031 C 413.242188 684.015625 413.324219 683.949219 413.40625 683.867188 C 413.65625 683.585938 413.011719 684.167969 412.992188 684.183594 C 413.191406 684.132812 413.472656 683.882812 413.640625 683.785156 C 413.722656 683.734375 413.855469 683.703125 413.9375 683.636719 C 413.9375 683.636719 413.078125 683.933594 413.457031 683.851562 C 413.707031 683.785156 413.957031 683.703125 414.203125 683.652344 C 414.882812 683.488281 413.292969 683.667969 414.003906 683.6875 C 414.054688 683.6875 414.1875 683.6875 414.238281 683.6875 C 414.238281 683.6875 414.253906 683.6875 414.253906 683.6875 C 414.351562 683.6875 414.453125 683.6875 414.550781 683.6875 C 415.097656 683.6875 415.648438 683.6875 416.175781 683.6875 C 418.5 683.6875 420.835938 683.6875 423.15625 683.6875 C 426.824219 683.6875 430.488281 683.6875 434.152344 683.6875 C 438.808594 683.6875 443.46875 683.6875 448.128906 683.6875 C 453.433594 683.6875 458.757812 683.6875 464.0625 683.6875 C 469.71875 683.6875 475.355469 683.6875 481.007812 683.6875 C 486.597656 683.6875 492.183594 683.6875 497.773438 683.6875 C 502.980469 683.6875 508.1875 683.6875 513.390625 683.6875 C 517.871094 683.6875 522.347656 683.6875 526.824219 683.6875 C 530.238281 683.6875 533.671875 683.6875 537.085938 683.6875 C 539.078125 683.6875 541.066406 683.6875 543.054688 683.6875 C 543.402344 683.6875 543.753906 683.6875 544.101562 683.6875 C 544.117188 683.6875 544.132812 683.6875 544.167969 683.6875 C 544.199219 683.6875 544.234375 683.6875 544.28125 683.6875 C 544.382812 683.6875 544.53125 683.71875 544.632812 683.703125 C 544.648438 683.703125 543.6875 683.519531 544.101562 683.636719 C 544.347656 683.703125 544.613281 683.769531 544.863281 683.816406 C 545.527344 683.96875 544.117188 683.386719 544.679688 683.734375 C 544.863281 683.851562 545.0625 683.96875 545.246094 684.066406 C 545.824219 684.398438 544.632812 683.46875 545.09375 683.949219 C 545.246094 684.101562 545.394531 684.265625 545.558594 684.414062 C 546.039062 684.878906 545.113281 683.6875 545.445312 684.265625 C 545.558594 684.480469 545.691406 684.730469 545.824219 684.929688 C 546.039062 685.261719 545.625 684.449219 545.625 684.449219 C 545.640625 684.546875 545.707031 684.664062 545.726562 684.761719 C 545.792969 684.980469 545.824219 685.195312 545.890625 685.410156 C 545.992188 685.808594 545.824219 684.863281 545.824219 684.878906 C 545.859375 684.996094 545.90625 685.328125 545.90625 685.375 C 545.957031 687.550781 547.78125 689.621094 550.054688 689.523438 C 552.257812 689.421875 554.25 687.699219 554.199219 685.375 C 554.082031 679.90625 549.722656 675.511719 544.234375 675.429688 C 543.933594 675.429688 543.652344 675.429688 543.355469 675.429688 C 541.449219 675.429688 539.539062 675.429688 537.632812 675.429688 C 534.25 675.429688 530.851562 675.429688 527.46875 675.429688 C 522.992188 675.429688 518.5 675.429688 514.023438 675.429688 C 508.765625 675.429688 503.492188 675.429688 498.238281 675.429688 C 492.566406 675.429688 486.914062 675.429688 481.242188 675.429688 C 475.570312 675.429688 469.882812 675.429688 464.210938 675.429688 C 458.824219 675.429688 453.433594 675.429688 448.046875 675.429688 C 443.355469 675.429688 438.660156 675.429688 433.96875 675.429688 C 430.289062 675.429688 426.605469 675.429688 422.925781 675.429688 C 420.636719 675.429688 418.347656 675.429688 416.0625 675.429688 C 415.546875 675.429688 415.050781 675.429688 414.535156 675.429688 C 411.867188 675.445312 409.378906 676.375 407.421875 678.199219 C 405.351562 680.121094 404.355469 682.890625 404.339844 685.660156 C 404.339844 686.320312 404.339844 687 404.339844 687.664062 C 404.339844 690.601562 404.339844 693.550781 404.339844 696.484375 C 404.339844 701.03125 404.339844 705.589844 404.339844 710.132812 C 404.339844 715.605469 404.339844 721.058594 404.339844 726.53125 C 404.339844 732.21875 404.339844 737.890625 404.339844 743.578125 C 404.339844 748.847656 404.339844 754.121094 404.339844 759.394531 C 404.339844 763.539062 404.339844 767.6875 404.339844 771.832031 C 404.339844 774.21875 404.339844 776.589844 404.339844 778.976562 C 404.339844 779.441406 404.320312 779.90625 404.355469 780.371094 C 404.734375 785.660156 408.964844 789.773438 414.304688 789.855469 C 415.382812 789.871094 416.441406 789.855469 417.519531 789.855469 C 420.238281 789.855469 422.957031 789.855469 425.695312 789.855469 C 429.691406 789.855469 433.671875 789.855469 437.667969 789.855469 C 442.609375 789.855469 447.546875 789.855469 452.488281 789.855469 C 457.976562 789.855469 463.464844 789.855469 468.953125 789.855469 C 474.691406 789.855469 480.414062 789.855469 486.148438 789.855469 C 491.738281 789.855469 497.324219 789.855469 502.914062 789.855469 C 507.96875 789.855469 513.027344 789.855469 518.101562 789.855469 C 522.328125 789.855469 526.558594 789.855469 530.769531 789.855469 C 533.769531 789.855469 536.753906 789.855469 539.757812 789.855469 C 541.183594 789.855469 542.625 789.855469 544.050781 789.855469 C 546.804688 789.839844 549.554688 788.808594 551.445312 786.769531 C 553.304688 784.78125 554.214844 782.277344 554.214844 779.574219 C 554.214844 777.632812 554.214844 775.695312 554.214844 773.769531 C 554.214844 769.90625 554.214844 766.042969 554.214844 762.179688 C 554.214844 757.089844 554.214844 752.015625 554.214844 746.925781 C 554.214844 741.253906 554.214844 735.566406 554.214844 729.898438 C 554.214844 724.324219 554.214844 718.753906 554.214844 713.183594 C 554.214844 708.425781 554.214844 703.664062 554.214844 698.890625 C 554.214844 695.558594 554.214844 692.242188 554.214844 688.910156 C 554.214844 687.714844 554.214844 686.519531 554.214844 685.34375 C 554.214844 683.171875 552.308594 681.097656 550.070312 681.199219 C 547.796875 681.347656 545.90625 683.054688 545.90625 685.375 Z M 545.90625 685.375 " fill-opacity="1" fill-rule="nonzero"/></g><path fill="#ffffff" d="M 487.675781 710.148438 C 487.675781 712.652344 487.675781 715.171875 487.675781 717.675781 C 487.675781 720.613281 487.558594 723.578125 487.675781 726.515625 C 487.675781 726.5625 487.660156 726.628906 487.675781 726.679688 C 487.460938 725.421875 489.050781 723.945312 490.246094 724.109375 C 490.046875 724.078125 489.832031 724.109375 489.632812 724.109375 C 488.453125 724.109375 487.261719 724.109375 486.082031 724.109375 C 482.386719 724.109375 478.6875 724.109375 474.992188 724.109375 C 473.464844 724.109375 471.921875 724.109375 470.398438 724.109375 C 469.734375 724.109375 468.972656 724.011719 468.308594 724.109375 C 469.503906 723.945312 471.09375 725.421875 470.878906 726.679688 C 470.894531 726.628906 470.878906 726.5625 470.878906 726.515625 C 470.894531 726.117188 470.878906 725.71875 470.878906 725.320312 C 470.878906 723.730469 470.878906 722.136719 470.878906 720.546875 C 470.878906 717.296875 470.878906 714.046875 470.878906 710.796875 C 470.878906 710.761719 470.878906 710.132812 470.878906 710.132812 C 471.027344 710.132812 470.464844 711.542969 470.53125 711.425781 C 470.316406 711.789062 469.964844 712.140625 469.601562 712.355469 C 469.632812 712.335938 468.375 712.867188 468.308594 712.703125 C 468.308594 712.71875 468.492188 712.703125 468.507812 712.703125 C 469.46875 712.753906 470.429688 712.703125 471.390625 712.703125 C 474.972656 712.703125 478.554688 712.703125 482.136719 712.703125 C 484.757812 712.703125 487.410156 712.820312 490.03125 712.703125 C 490.0625 712.703125 490.210938 712.71875 490.226562 712.703125 C 490.246094 712.6875 489.582031 712.621094 489.566406 712.601562 C 488.40625 712.371094 487.742188 711.261719 487.675781 710.148438 C 487.824219 712.304688 489.480469 714.394531 491.820312 714.292969 C 493.941406 714.195312 496.113281 712.46875 495.964844 710.148438 C 495.75 706.980469 493.511719 704.527344 490.246094 704.429688 C 490.046875 704.429688 489.832031 704.429688 489.632812 704.429688 C 488.386719 704.429688 487.128906 704.429688 485.882812 704.429688 C 481.921875 704.429688 477.976562 704.429688 474.011719 704.429688 C 472.519531 704.429688 471.042969 704.429688 469.550781 704.429688 C 467.644531 704.429688 465.820312 704.59375 464.328125 706.035156 C 462.6875 707.613281 462.585938 709.585938 462.585938 711.65625 C 462.585938 713.414062 462.585938 715.171875 462.585938 716.929688 C 462.585938 720.132812 462.539062 723.316406 462.585938 726.515625 C 462.652344 729.847656 465.140625 732.335938 468.472656 732.402344 C 469.484375 732.417969 470.496094 732.402344 471.507812 732.402344 C 475.371094 732.402344 479.21875 732.402344 483.082031 732.402344 C 485.46875 732.402344 487.855469 732.5 490.246094 732.402344 C 493.429688 732.285156 495.832031 729.863281 495.964844 726.679688 C 495.980469 726.433594 495.964844 726.199219 495.964844 725.949219 C 495.964844 724.457031 495.964844 722.964844 495.964844 721.492188 C 495.964844 717.941406 495.964844 714.394531 495.964844 710.84375 C 495.964844 710.613281 495.964844 710.382812 495.964844 710.148438 C 495.964844 707.976562 494.058594 705.90625 491.820312 706.003906 C 489.566406 706.101562 487.675781 707.828125 487.675781 710.148438 Z M 487.675781 710.148438 " fill-opacity="1" fill-rule="nonzero"/><g clip-path="url(#4e28d711e8)"><path fill="#ffffff" d="M 545.90625 684.863281 C 545.90625 687.019531 545.90625 689.191406 545.90625 691.347656 C 545.90625 693.617188 546.007812 695.90625 545.875 698.175781 C 545.859375 698.441406 545.839844 698.707031 545.808594 698.972656 C 545.792969 699.121094 545.773438 699.273438 545.757812 699.421875 C 545.726562 699.886719 545.839844 698.824219 545.839844 698.890625 C 545.707031 699.4375 545.660156 700 545.527344 700.566406 C 545.277344 701.625 544.945312 702.636719 544.566406 703.648438 C 544.316406 704.296875 545.011719 702.703125 544.597656 703.566406 C 544.480469 703.796875 544.382812 704.03125 544.265625 704.261719 C 544.015625 704.761719 543.753906 705.242188 543.46875 705.707031 C 543.222656 706.101562 542.972656 706.5 542.691406 706.898438 C 542.523438 707.132812 542.34375 707.363281 542.175781 707.613281 C 542.144531 707.644531 542.789062 706.882812 542.492188 707.199219 C 542.375 707.332031 542.261719 707.480469 542.144531 707.613281 C 541.480469 708.390625 540.769531 709.121094 540.003906 709.785156 C 539.804688 709.949219 539.625 710.117188 539.425781 710.28125 C 538.695312 710.894531 540.054688 709.835938 539.492188 710.230469 C 539.042969 710.546875 538.59375 710.863281 538.148438 711.160156 C 537.234375 711.742188 536.257812 712.121094 535.34375 712.652344 C 535.296875 712.6875 536.242188 712.289062 535.828125 712.453125 C 535.695312 712.503906 535.542969 712.570312 535.410156 712.621094 C 535.164062 712.71875 534.929688 712.800781 534.683594 712.886719 C 534.152344 713.066406 533.621094 713.214844 533.074219 713.367188 C 532.59375 713.480469 532.128906 713.582031 531.648438 713.679688 C 531.5 713.714844 530.519531 713.847656 531.300781 713.746094 C 532.078125 713.648438 531.019531 713.765625 530.820312 713.78125 C 530.222656 713.832031 529.625 713.847656 529.027344 713.847656 C 528.648438 713.847656 528.28125 713.847656 527.902344 713.847656 C 525.960938 713.847656 524.039062 713.847656 522.097656 713.847656 C 516.078125 713.847656 510.042969 713.847656 504.023438 713.847656 C 500.027344 713.847656 496 713.746094 492.003906 713.847656 C 491.9375 713.847656 491.871094 713.847656 491.804688 713.847656 C 493.179688 715.222656 494.574219 716.617188 495.949219 717.992188 C 495.949219 716.597656 495.949219 715.207031 495.949219 713.832031 C 495.949219 712.1875 496.179688 710.25 495.75 708.640625 C 495.070312 706.136719 492.765625 704.511719 490.226562 704.445312 C 489.996094 704.445312 489.765625 704.445312 489.53125 704.445312 C 488.273438 704.445312 486.996094 704.445312 485.734375 704.445312 C 481.855469 704.445312 477.957031 704.445312 474.078125 704.445312 C 472.621094 704.445312 471.144531 704.445312 469.683594 704.445312 C 468.191406 704.445312 466.78125 704.429688 465.40625 705.222656 C 463.515625 706.335938 462.570312 708.375 462.570312 710.496094 C 462.570312 711.328125 462.570312 712.171875 462.570312 713 C 462.570312 714.660156 462.570312 716.316406 462.570312 717.992188 C 463.949219 716.617188 465.339844 715.222656 466.714844 713.847656 C 459.902344 713.847656 453.085938 713.847656 446.273438 713.847656 C 441.976562 713.847656 437.667969 713.847656 433.371094 713.847656 C 432.246094 713.847656 431.101562 713.847656 429.972656 713.847656 C 429.808594 713.847656 429.625 713.847656 429.457031 713.847656 C 428.679688 713.847656 427.917969 713.78125 427.152344 713.714844 C 426.472656 713.648438 427.535156 713.765625 427.585938 713.78125 C 427.371094 713.730469 427.136719 713.714844 426.90625 713.664062 C 426.457031 713.582031 426.027344 713.5 425.578125 713.382812 C 424.78125 713.183594 424.003906 712.953125 423.242188 712.652344 C 423.042969 712.570312 422.828125 712.488281 422.628906 712.402344 C 423.820312 712.800781 423.089844 712.601562 422.808594 712.46875 C 422.410156 712.289062 422.015625 712.089844 421.632812 711.875 C 420.917969 711.492188 420.238281 711.0625 419.59375 710.613281 C 419.277344 710.398438 418.433594 709.570312 419.378906 710.480469 C 419.0625 710.183594 418.699219 709.933594 418.382812 709.636719 C 417.785156 709.105469 417.222656 708.523438 416.691406 707.925781 C 416.460938 707.660156 416.242188 707.347656 415.996094 707.097656 C 416.824219 707.945312 416.308594 707.511719 416.109375 707.246094 C 415.945312 707.015625 415.777344 706.765625 415.613281 706.535156 C 415.183594 705.90625 414.800781 705.242188 414.4375 704.5625 C 414.253906 704.195312 414.089844 703.832031 413.90625 703.46875 C 413.539062 702.722656 414.269531 704.429688 413.972656 703.648438 C 413.890625 703.449219 413.804688 703.234375 413.738281 703.035156 C 413.457031 702.273438 413.226562 701.476562 413.042969 700.679688 C 412.960938 700.316406 412.878906 699.953125 412.8125 699.570312 C 412.777344 699.355469 412.746094 699.121094 412.695312 698.890625 C 412.976562 700.234375 412.746094 699.207031 412.710938 698.855469 C 412.644531 698.0625 412.628906 697.265625 412.628906 696.46875 C 412.628906 694.398438 412.628906 692.339844 412.628906 690.269531 C 412.628906 688.496094 412.613281 686.71875 412.628906 684.960938 C 412.628906 684.929688 412.628906 684.894531 412.628906 684.863281 C 412.628906 684.914062 412.644531 684.367188 412.644531 684.398438 C 412.792969 685.078125 412.496094 685.277344 412.628906 684.730469 C 412.660156 684.582031 412.777344 684.367188 412.777344 684.199219 C 412.695312 684.398438 412.613281 684.597656 412.53125 684.78125 C 412.59375 684.648438 412.644531 684.515625 412.726562 684.398438 C 412.828125 684.234375 413.011719 684.035156 413.078125 683.851562 C 412.960938 684.199219 412.445312 684.5625 412.976562 684.035156 C 413.34375 683.667969 413.589844 683.785156 412.792969 684.132812 C 412.976562 684.050781 413.160156 683.882812 413.34375 683.785156 C 413.457031 683.71875 413.625 683.667969 413.722656 683.585938 C 412.945312 684.132812 413.078125 683.835938 413.558594 683.71875 C 414.023438 683.601562 414.351562 683.769531 413.324219 683.71875 C 413.472656 683.734375 413.640625 683.703125 413.773438 683.703125 C 413.773438 683.703125 413.789062 683.703125 413.789062 683.703125 C 414.601562 683.6875 415.414062 683.703125 416.210938 683.703125 C 421.398438 683.703125 426.589844 683.703125 431.78125 683.703125 C 440.152344 683.703125 448.511719 683.703125 456.882812 683.703125 C 466.699219 683.703125 476.5 683.703125 486.316406 683.703125 C 495.632812 683.703125 504.96875 683.703125 514.289062 683.703125 C 521.417969 683.703125 528.53125 683.703125 535.660156 683.703125 C 538.679688 683.703125 541.710938 683.652344 544.730469 683.703125 C 544.746094 683.703125 544.765625 683.703125 544.765625 683.703125 C 544.714844 683.703125 545.277344 683.703125 545.210938 683.71875 C 544.996094 683.6875 544.78125 683.652344 544.546875 683.636719 C 544.699219 683.667969 544.828125 683.6875 544.980469 683.734375 C 545.09375 683.769531 545.292969 683.867188 545.394531 683.867188 C 545.195312 683.785156 544.996094 683.703125 544.8125 683.621094 C 544.945312 683.6875 545.078125 683.734375 545.195312 683.816406 C 545.359375 683.917969 545.558594 684.101562 545.742188 684.167969 C 545.660156 684.132812 544.980469 683.46875 545.394531 683.917969 C 545.511719 684.050781 545.691406 684.28125 545.839844 684.382812 C 545.707031 684.214844 545.59375 684.050781 545.460938 683.882812 C 545.542969 684 545.625 684.117188 545.691406 684.25 C 545.773438 684.367188 545.824219 684.5 545.90625 684.628906 C 546.304688 685.3125 545.640625 683.667969 545.808594 684.449219 C 545.839844 684.628906 545.890625 684.914062 545.957031 685.09375 C 545.925781 684.878906 545.890625 684.664062 545.875 684.433594 C 545.890625 684.5625 545.90625 684.714844 545.90625 684.863281 C 545.957031 687.035156 547.78125 689.109375 550.054688 689.007812 C 552.257812 688.910156 554.25 687.183594 554.199219 684.863281 C 554.082031 679.671875 549.96875 675.527344 544.765625 675.429688 C 544.546875 675.429688 544.347656 675.429688 544.132812 675.429688 C 542.675781 675.429688 541.230469 675.429688 539.773438 675.429688 C 533.523438 675.429688 527.253906 675.429688 521.003906 675.429688 C 511.867188 675.429688 502.730469 675.429688 493.59375 675.429688 C 483.5625 675.429688 473.53125 675.429688 463.5 675.429688 C 454.480469 675.429688 445.460938 675.429688 436.4375 675.429688 C 430.355469 675.429688 424.285156 675.429688 418.199219 675.429688 C 416.875 675.429688 415.53125 675.429688 414.203125 675.429688 C 413.242188 675.429688 412.28125 675.511719 411.351562 675.742188 C 407.140625 676.855469 404.371094 680.785156 404.355469 685.0625 C 404.339844 688.941406 404.355469 692.839844 404.355469 696.71875 C 404.355469 703.78125 407.238281 710.730469 412.511719 715.488281 C 417.289062 719.800781 423.375 722.105469 429.808594 722.105469 C 432.824219 722.105469 435.859375 722.105469 438.875 722.105469 C 447.582031 722.105469 456.285156 722.105469 464.992188 722.105469 C 465.574219 722.105469 466.152344 722.105469 466.714844 722.105469 C 468.953125 722.105469 470.863281 720.195312 470.863281 717.957031 C 470.863281 716.714844 470.863281 715.453125 470.863281 714.210938 C 470.863281 713.316406 470.863281 712.402344 470.863281 711.507812 C 470.863281 711.078125 470.929688 710.582031 470.863281 710.148438 C 470.910156 710.480469 470.695312 711.078125 470.511719 711.425781 C 470.332031 711.773438 469.949219 712.140625 469.585938 712.355469 C 469.699219 712.289062 468.273438 712.851562 468.273438 712.703125 C 468.273438 712.703125 468.40625 712.703125 468.40625 712.703125 C 468.707031 712.734375 469.039062 712.703125 469.335938 712.703125 C 470.628906 712.703125 471.90625 712.703125 473.199219 712.703125 C 476.8125 712.703125 480.445312 712.703125 484.058594 712.703125 C 485.519531 712.703125 486.960938 712.703125 488.421875 712.703125 C 488.984375 712.703125 489.648438 712.800781 490.210938 712.703125 C 489.382812 712.851562 488.371094 712.089844 487.988281 711.425781 C 487.875 711.242188 487.558594 710.316406 487.640625 710.164062 C 487.574219 710.296875 487.640625 710.679688 487.640625 710.8125 C 487.640625 711.691406 487.640625 712.585938 487.640625 713.464844 C 487.640625 714.957031 487.640625 716.464844 487.640625 717.957031 C 487.640625 720.195312 489.546875 722.105469 491.785156 722.105469 C 495.253906 722.105469 498.703125 722.105469 502.167969 722.105469 C 508.367188 722.105469 514.570312 722.105469 520.789062 722.105469 C 524.933594 722.105469 529.160156 722.335938 533.257812 721.722656 C 542.972656 720.261719 551.246094 712.355469 553.46875 702.851562 C 554.164062 699.867188 554.164062 696.902344 554.164062 693.867188 C 554.164062 691.046875 554.164062 688.230469 554.164062 685.425781 C 554.164062 685.226562 554.164062 685.046875 554.164062 684.847656 C 554.164062 682.675781 552.257812 680.601562 550.019531 680.699219 C 547.796875 680.816406 545.90625 682.542969 545.90625 684.863281 Z M 545.90625 684.863281 " fill-opacity="1" fill-rule="nonzero"/></g><g clip-path="url(#e2b94231da)"><path fill="#ffffff" d="M 503.660156 675.429688 C 498.136719 675.429688 492.617188 675.429688 487.09375 675.429688 C 478.371094 675.429688 469.632812 675.429688 460.914062 675.429688 C 458.90625 675.429688 456.898438 675.429688 454.894531 675.429688 C 456.269531 676.804688 457.664062 678.199219 459.039062 679.574219 C 459.039062 673.621094 459.039062 667.667969 459.039062 661.714844 C 459.039062 661.402344 459.039062 661.101562 459.039062 660.789062 C 459.039062 660.769531 459.039062 660.753906 459.039062 660.738281 C 459.039062 660.804688 459.054688 660.421875 459.054688 660.390625 C 459.054688 659.859375 458.757812 661.449219 459.039062 660.722656 C 459.074219 660.621094 459.171875 660.390625 459.171875 660.304688 C 459.15625 661.003906 458.789062 661.050781 459.023438 660.703125 C 459.105469 660.570312 459.519531 660.039062 459.054688 660.589844 C 458.558594 661.152344 459.121094 660.554688 459.222656 660.4375 C 459.320312 660.324219 459.734375 659.957031 459.222656 660.421875 C 458.691406 660.902344 459.207031 660.488281 459.335938 660.390625 C 459.703125 660.15625 459.636719 660.523438 458.941406 660.539062 C 459.023438 660.539062 459.273438 660.4375 459.355469 660.40625 C 460.082031 660.125 458.492188 660.4375 459.023438 660.421875 C 459.039062 660.421875 459.4375 660.40625 459.371094 660.40625 C 459.386719 660.40625 459.386719 660.40625 459.402344 660.40625 C 459.554688 660.40625 459.71875 660.40625 459.867188 660.40625 C 462.105469 660.40625 464.34375 660.40625 466.566406 660.40625 C 474.210938 660.40625 481.839844 660.40625 489.480469 660.40625 C 492.21875 660.40625 494.953125 660.40625 497.691406 660.40625 C 498.1875 660.40625 498.667969 660.390625 499.164062 660.40625 C 499.164062 660.40625 499.183594 660.40625 499.183594 660.40625 C 499.230469 660.40625 499.363281 660.40625 499.414062 660.40625 C 500.195312 660.40625 498.652344 660.140625 499.082031 660.371094 C 499.183594 660.421875 499.515625 660.539062 499.613281 660.523438 C 499.515625 660.523438 498.703125 660.023438 499.214844 660.371094 C 499.265625 660.40625 499.515625 660.589844 499.582031 660.605469 C 499.066406 660.191406 498.933594 660.074219 499.164062 660.289062 C 499.25 660.355469 499.332031 660.4375 499.398438 660.503906 C 499.480469 660.589844 499.597656 660.753906 499.679688 660.820312 C 499.082031 660.390625 499.199219 660.171875 499.464844 660.605469 C 499.746094 661.085938 499.382812 660.96875 499.363281 660.304688 C 499.363281 660.390625 499.464844 660.65625 499.496094 660.722656 C 499.761719 661.402344 499.363281 660.238281 499.464844 660.273438 C 499.496094 660.273438 499.480469 660.671875 499.480469 660.738281 C 499.480469 660.753906 499.480469 660.769531 499.480469 660.789062 C 499.597656 666.839844 499.480469 672.925781 499.480469 678.976562 C 499.480469 679.175781 499.480469 679.359375 499.480469 679.558594 C 499.480469 681.730469 501.386719 683.800781 503.625 683.703125 C 505.863281 683.601562 507.769531 681.878906 507.769531 679.558594 C 507.769531 673.488281 507.769531 667.4375 507.769531 661.367188 C 507.769531 658.847656 507.058594 656.460938 505.234375 654.636719 C 503.527344 652.925781 501.222656 652.113281 498.816406 652.097656 C 496.644531 652.097656 494.488281 652.097656 492.316406 652.097656 C 484.457031 652.097656 476.582031 652.097656 468.722656 652.097656 C 466.003906 652.097656 463.265625 652.097656 460.546875 652.097656 C 460.132812 652.097656 459.71875 652.082031 459.320312 652.097656 C 454.5625 652.199219 450.816406 655.960938 450.699219 660.722656 C 450.566406 666.773438 450.699219 672.839844 450.699219 678.910156 C 450.699219 679.125 450.699219 679.339844 450.699219 679.558594 C 450.699219 681.796875 452.605469 683.703125 454.84375 683.703125 C 460.367188 683.703125 465.886719 683.703125 471.410156 683.703125 C 480.128906 683.703125 488.867188 683.703125 497.589844 683.703125 C 499.597656 683.703125 501.601562 683.703125 503.609375 683.703125 C 505.78125 683.703125 507.855469 681.796875 507.753906 679.558594 C 507.703125 677.335938 505.980469 675.429688 503.660156 675.429688 Z M 503.660156 675.429688 " fill-opacity="1" fill-rule="nonzero"/></g><g transform="matrix(1, 0, 0, 1, 123, 759)"><g clip-path="url(#9b483c2c9d)"><g fill="#ffffff" fill-opacity="1"><g transform="translate(1.484795, 187.599185)"><g><path d="M 141.40625 -43.65625 L 137.140625 -42.109375 L 137.140625 -3.9375 C 137.140625 -1.65625 136.453125 -0.00390625 135.078125 1.015625 C 133.710938 2.046875 131.941406 2.617188 129.765625 2.734375 C 127.023438 2.734375 123.941406 2.019531 120.515625 0.59375 C 117.097656 -0.832031 114.019531 -2.828125 111.28125 -5.390625 C 108.539062 -7.960938 106.65625 -10.84375 105.625 -14.03125 L 105.125 -14.03125 C 105.351562 -9.125 104.523438 -5.472656 102.640625 -3.078125 C 100.753906 -0.679688 98.5 0.515625 95.875 0.515625 C 93.59375 0.398438 91.3125 -0.597656 89.03125 -2.484375 C 86.75 -4.367188 84.921875 -7.132812 83.546875 -10.78125 L 83.03125 -10.609375 C 83.71875 -3.878906 82.601562 2.617188 79.6875 8.890625 C 76.78125 15.171875 72.21875 20.304688 66 24.296875 C 59.78125 28.296875 52.046875 30.296875 42.796875 30.296875 C 35.265625 30.296875 28.390625 28.441406 22.171875 24.734375 C 15.953125 21.023438 10.988281 16.0625 7.28125 9.84375 C 3.570312 3.625 1.71875 -3.25 1.71875 -10.78125 C 1.71875 -19.113281 3.941406 -26.5625 8.390625 -33.125 C 12.835938 -39.6875 18.546875 -44.679688 25.515625 -48.109375 C 26.421875 -48.566406 27.242188 -48.535156 27.984375 -48.015625 C 28.734375 -47.503906 29.109375 -46.789062 29.109375 -45.875 C 29.109375 -45.3125 28.9375 -44.859375 28.59375 -44.515625 C 26.65625 -41.660156 25.6875 -38.40625 25.6875 -34.75 C 25.6875 -30.300781 26.710938 -26.535156 28.765625 -23.453125 C 30.816406 -20.367188 33.210938 -17.914062 35.953125 -16.09375 C 38.691406 -14.269531 41.085938 -12.957031 43.140625 -12.15625 C 45.191406 -11.351562 46.21875 -10.953125 46.21875 -10.953125 C 46.21875 -10.953125 47.128906 -11.460938 48.953125 -12.484375 C 50.785156 -13.515625 52.84375 -14.742188 55.125 -16.171875 C 57.40625 -17.597656 59.117188 -18.882812 60.265625 -20.03125 C 62.203125 -21.96875 63.113281 -23.734375 63 -25.328125 C 62.882812 -26.929688 62.34375 -28.617188 61.375 -30.390625 C 60.40625 -32.160156 59.40625 -34.097656 58.375 -36.203125 C 57.351562 -38.316406 56.84375 -40.800781 56.84375 -43.65625 C 56.84375 -46.738281 57.582031 -49.132812 59.0625 -50.84375 C 60.550781 -52.5625 62.578125 -53.988281 65.140625 -55.125 C 67.710938 -56.269531 70.535156 -57.5 73.609375 -58.8125 C 76.691406 -60.125 79.859375 -61.863281 83.109375 -64.03125 C 86.367188 -66.195312 89.425781 -69.222656 92.28125 -73.109375 C 92.507812 -73.453125 92.878906 -73.476562 93.390625 -73.1875 C 93.898438 -72.90625 94.039062 -72.535156 93.8125 -72.078125 C 93.476562 -71.273438 93.023438 -69.675781 92.453125 -67.28125 C 91.878906 -64.882812 91.25 -62.144531 90.5625 -59.0625 C 89.882812 -55.976562 89.144531 -52.953125 88.34375 -49.984375 C 87.539062 -47.023438 86.796875 -44.457031 86.109375 -42.28125 C 85.878906 -41.488281 86.363281 -40.773438 87.5625 -40.140625 C 88.769531 -39.515625 89.375 -39.203125 89.375 -39.203125 C 89.375 -39.203125 89.882812 -39.515625 90.90625 -40.140625 C 91.9375 -40.773438 92.453125 -41.488281 92.453125 -42.28125 C 92.453125 -46.96875 93.019531 -50.847656 94.15625 -53.921875 C 95.300781 -57.003906 96.84375 -59.6875 98.78125 -61.96875 C 100.71875 -64.257812 102.832031 -66.546875 105.125 -68.828125 C 106.257812 -69.960938 107.140625 -70.757812 107.765625 -71.21875 C 108.398438 -71.675781 108.601562 -70.765625 108.375 -68.484375 C 108.03125 -65.628906 107.539062 -61.773438 106.90625 -56.921875 C 106.28125 -52.078125 105.96875 -47.195312 105.96875 -42.28125 C 105.96875 -41.488281 106.507812 -40.773438 107.59375 -40.140625 C 108.6875 -39.515625 109.234375 -39.203125 109.234375 -39.203125 C 109.234375 -39.203125 109.800781 -39.515625 110.9375 -40.140625 C 112.082031 -40.773438 112.539062 -41.488281 112.3125 -42.28125 C 110.9375 -49.25 111.160156 -55.8125 112.984375 -61.96875 C 114.816406 -68.132812 117.957031 -74.269531 122.40625 -80.375 C 126.863281 -86.488281 132.34375 -92.796875 138.84375 -99.296875 C 139.300781 -99.753906 139.757812 -99.867188 140.21875 -99.640625 C 140.5625 -99.523438 140.617188 -99.125 140.390625 -98.4375 C 139.703125 -96.5 138.988281 -94.242188 138.25 -91.671875 C 137.507812 -89.109375 137.140625 -85.488281 137.140625 -80.8125 L 137.140625 -48.796875 C 137.140625 -47.765625 137.363281 -46.617188 137.8125 -45.359375 C 138.269531 -44.109375 139.46875 -43.539062 141.40625 -43.65625 Z M 141.40625 -43.65625 "/></g></g></g><g fill="#ffffff" fill-opacity="1"><g transform="translate(141.686161, 187.599185)"><g><path d="M 23.96875 -77.21875 L 12.328125 -88.859375 C 10.835938 -90.453125 10.09375 -92.300781 10.09375 -94.40625 C 10.09375 -96.519531 10.835938 -98.320312 12.328125 -99.8125 L 24.140625 -111.453125 L 35.953125 -99.640625 C 37.429688 -98.160156 38.171875 -96.390625 38.171875 -94.328125 C 38.171875 -92.273438 37.429688 -90.507812 35.953125 -89.03125 Z M 17.296875 0 C 11.359375 0 6.191406 -1.796875 1.796875 -5.390625 C -2.597656 -8.984375 -5.992188 -14.0625 -8.390625 -20.625 C -10.785156 -27.1875 -11.984375 -34.863281 -11.984375 -43.65625 L 14.375 -43.65625 C 18.71875 -43.65625 22.113281 -44.566406 24.5625 -46.390625 C 27.019531 -48.222656 28.988281 -50.566406 30.46875 -53.421875 C 32.644531 -57.410156 34.613281 -62.144531 36.375 -67.625 C 38.144531 -73.101562 40.972656 -78.582031 44.859375 -84.0625 C 45.203125 -84.40625 45.570312 -84.460938 45.96875 -84.234375 C 46.363281 -84.003906 46.445312 -83.660156 46.21875 -83.203125 C 45.082031 -80.234375 44.054688 -77.09375 43.140625 -73.78125 C 42.234375 -70.476562 41.722656 -66.367188 41.609375 -61.453125 C 41.492188 -56.546875 41.945312 -50.269531 42.96875 -42.625 C 45.019531 -27.90625 43.789062 -17.148438 39.28125 -10.359375 C 34.78125 -3.566406 27.453125 -0.113281 17.296875 0 Z M 17.296875 0 "/></g></g></g><g fill="#ffffff" fill-opacity="1"><g transform="translate(188.419943, 187.599185)"><g><path d="M 80.984375 -130.109375 C 81.210938 -130.453125 81.550781 -130.507812 82 -130.28125 C 82.457031 -130.050781 82.628906 -129.710938 82.515625 -129.265625 C 81.722656 -127.429688 81.007812 -125.144531 80.375 -122.40625 C 79.75 -119.664062 79.4375 -116.070312 79.4375 -111.625 L 79.4375 -37.671875 C 79.4375 -29.109375 78.4375 -22.085938 76.4375 -16.609375 C 74.445312 -11.128906 71.707031 -6.816406 68.21875 -3.671875 C 64.738281 -0.535156 60.859375 1.65625 56.578125 2.90625 C 52.296875 4.164062 47.816406 4.796875 43.140625 4.796875 C 38.117188 4.796875 33.15625 4.023438 28.25 2.484375 C 23.34375 0.941406 18.890625 -1.738281 14.890625 -5.5625 C 10.898438 -9.382812 7.707031 -14.601562 5.3125 -21.21875 C 2.914062 -27.84375 1.71875 -36.289062 1.71875 -46.5625 C 1.71875 -50.332031 2.914062 -51.472656 5.3125 -49.984375 C 9.757812 -47.359375 14.296875 -45.585938 18.921875 -44.671875 C 23.546875 -43.765625 29.023438 -43.335938 35.359375 -43.390625 C 41.691406 -43.453125 49.421875 -43.484375 58.546875 -43.484375 C 61.859375 -43.484375 64.679688 -44.679688 67.015625 -47.078125 C 69.359375 -49.472656 70.53125 -52.269531 70.53125 -55.46875 C 70.53125 -58.320312 69.757812 -61.144531 68.21875 -63.9375 C 66.675781 -66.738281 64.878906 -69.566406 62.828125 -72.421875 C 60.773438 -75.273438 58.976562 -78.097656 57.4375 -80.890625 C 55.894531 -83.691406 55.125 -86.519531 55.125 -89.375 C 55.125 -92.113281 56.007812 -94.992188 57.78125 -98.015625 C 59.550781 -101.035156 61.804688 -104.257812 64.546875 -107.6875 C 67.285156 -111.113281 70.109375 -114.679688 73.015625 -118.390625 C 75.929688 -122.097656 78.585938 -126.003906 80.984375 -130.109375 Z M 66.765625 -55.46875 C 66.765625 -52.84375 65.9375 -50.84375 64.28125 -49.46875 C 62.625 -48.101562 60.828125 -47.421875 58.890625 -47.421875 L 48.625 -47.421875 C 40.289062 -47.421875 34.695312 -48.988281 31.84375 -52.125 C 28.988281 -55.269531 27.617188 -59.296875 27.734375 -64.203125 C 27.847656 -68.992188 29.1875 -74.269531 31.75 -80.03125 C 34.320312 -85.800781 37.691406 -91.566406 41.859375 -97.328125 C 46.023438 -103.085938 50.503906 -108.367188 55.296875 -113.171875 C 55.984375 -113.847656 56.554688 -114.070312 57.015625 -113.84375 C 57.804688 -113.613281 58.035156 -113.046875 57.703125 -112.140625 C 56.785156 -109.742188 55.671875 -107.570312 54.359375 -105.625 C 53.046875 -103.6875 51.929688 -101.488281 51.015625 -99.03125 C 50.109375 -96.582031 49.65625 -93.472656 49.65625 -89.703125 C 49.65625 -86.859375 50.507812 -83.976562 52.21875 -81.0625 C 53.925781 -78.15625 55.921875 -75.273438 58.203125 -72.421875 C 60.492188 -69.566406 62.492188 -66.710938 64.203125 -63.859375 C 65.910156 -61.003906 66.765625 -58.207031 66.765625 -55.46875 Z M 66.765625 -55.46875 "/></g></g></g><g fill="#ffffff" fill-opacity="1"><g transform="translate(271.958735, 187.599185)"><g/></g></g><g fill="#ffffff" fill-opacity="1"><g transform="translate(302.772225, 187.599185)"><g><path d="M 97.75 -4.796875 C 98.78125 -3.878906 98.984375 -2.847656 98.359375 -1.703125 C 97.734375 -0.566406 96.675781 0 95.1875 0 L 75.671875 0 C 71.566406 0 68.085938 -0.796875 65.234375 -2.390625 C 62.378906 -3.992188 60.066406 -5.765625 58.296875 -7.703125 C 56.523438 -9.640625 55.125 -11.125 54.09375 -12.15625 L 40.234375 -26.015625 L 26.359375 -12.328125 C 24.304688 -10.046875 23.28125 -7.535156 23.28125 -4.796875 C 23.28125 -2.054688 24.304688 0.453125 26.359375 2.734375 L 40.234375 16.4375 C 44.453125 11.757812 48.390625 8.648438 52.046875 7.109375 C 55.703125 5.566406 59.609375 4.851562 63.765625 4.96875 C 67.929688 5.082031 72.753906 5.421875 78.234375 5.984375 C 79.835938 6.097656 80.804688 6.410156 81.140625 6.921875 C 81.484375 7.441406 81.375 8.5 80.8125 10.09375 C 79.09375 15.457031 76.320312 20.222656 72.5 24.390625 C 68.675781 28.554688 64.164062 31.835938 58.96875 34.234375 C 53.78125 36.628906 48.160156 37.828125 42.109375 37.828125 C 34.691406 37.828125 27.875 36 21.65625 32.34375 C 15.4375 28.695312 10.5 23.789062 6.84375 17.625 C 3.195312 11.46875 1.375 4.625 1.375 -2.90625 C 1.375 -11.007812 3.507812 -18.457031 7.78125 -25.25 C 12.0625 -32.039062 17.6875 -37.035156 24.65625 -40.234375 C 28.757812 -42.054688 33.4375 -43.164062 38.6875 -43.5625 C 43.9375 -43.96875 49.210938 -44 54.515625 -43.65625 C 59.828125 -43.3125 64.507812 -42.882812 68.5625 -42.375 C 72.613281 -41.863281 75.5 -41.609375 77.21875 -41.609375 C 78.125 -41.609375 78.976562 -42.148438 79.78125 -43.234375 C 80.582031 -44.316406 80.984375 -44.859375 80.984375 -44.859375 C 80.984375 -44.859375 80.582031 -45.367188 79.78125 -46.390625 C 78.976562 -47.421875 78.125 -47.9375 77.21875 -47.9375 C 71.507812 -47.9375 65.398438 -47.765625 58.890625 -47.421875 C 52.390625 -47.078125 45.96875 -46.847656 39.625 -46.734375 C 33.289062 -46.617188 27.523438 -46.960938 22.328125 -47.765625 C 17.140625 -48.566406 13.003906 -50.109375 9.921875 -52.390625 C 6.847656 -54.671875 5.3125 -57.976562 5.3125 -62.3125 L 5.3125 -101.6875 C 5.3125 -102.601562 5.707031 -103.257812 6.5 -103.65625 C 7.300781 -104.0625 8.046875 -104.035156 8.734375 -103.578125 C 10.210938 -102.546875 11.976562 -101.601562 14.03125 -100.75 C 16.09375 -99.894531 19.175781 -99.46875 23.28125 -99.46875 L 63.34375 -99.46875 C 69.851562 -99.46875 75.757812 -98.894531 81.0625 -97.75 C 86.375 -96.613281 90.597656 -94.390625 93.734375 -91.078125 C 96.867188 -87.765625 98.4375 -82.859375 98.4375 -76.359375 C 98.4375 -72.929688 98.007812 -68.421875 97.15625 -62.828125 C 96.300781 -57.234375 95.242188 -51.296875 93.984375 -45.015625 C 92.734375 -38.742188 91.363281 -32.695312 89.875 -26.875 C 88.738281 -22.082031 88.597656 -18.257812 89.453125 -15.40625 C 90.304688 -12.550781 91.585938 -10.351562 93.296875 -8.8125 C 95.015625 -7.269531 96.5 -5.929688 97.75 -4.796875 Z M 52.046875 -10.09375 C 53.410156 -8.726562 54.148438 -7.019531 54.265625 -4.96875 C 54.378906 -2.914062 53.640625 -1.085938 52.046875 0.515625 L 40.234375 12.328125 L 28.421875 0.6875 C 26.929688 -0.914062 26.1875 -2.769531 26.1875 -4.875 C 26.1875 -6.988281 26.929688 -8.785156 28.421875 -10.265625 L 40.234375 -21.90625 Z M 52.046875 -10.09375 "/></g></g></g><g fill="#ffffff" fill-opacity="1"><g transform="translate(402.231308, 187.599185)"><g><path d="M 93.3125 0 L 76.1875 0 C 73.675781 8.5625 69.222656 15.691406 62.828125 21.390625 C 56.441406 27.097656 48.054688 29.953125 37.671875 29.953125 C 32.523438 29.953125 28.15625 28.984375 24.5625 27.046875 C 20.96875 25.109375 18.054688 22.710938 15.828125 19.859375 C 13.609375 17.003906 11.957031 14.148438 10.875 11.296875 C 9.789062 8.441406 9.21875 6.101562 9.15625 4.28125 C 9.101562 2.457031 9.414062 1.601562 10.09375 1.71875 C 23.113281 4.34375 33.242188 5.195312 40.484375 4.28125 C 47.734375 3.363281 52.269531 1.9375 54.09375 0 C 46.675781 -0.34375 40 -1.226562 34.0625 -2.65625 C 28.132812 -4.082031 23 -5.992188 18.65625 -8.390625 C 7.363281 -14.671875 1.71875 -23.226562 1.71875 -34.0625 C 1.71875 -38.175781 2.6875 -42.597656 4.625 -47.328125 C 6.5625 -52.066406 9.46875 -56.691406 13.34375 -61.203125 C 17.226562 -65.710938 21.96875 -69.507812 27.5625 -72.59375 C 30.644531 -74.300781 32.984375 -75.609375 34.578125 -76.515625 C 36.179688 -77.429688 37.351562 -78.289062 38.09375 -79.09375 C 38.832031 -79.894531 39.316406 -80.976562 39.546875 -82.34375 C 40.117188 -83.03125 41.03125 -83.03125 42.28125 -82.34375 C 50.15625 -78.46875 56.773438 -73.078125 62.140625 -66.171875 C 67.503906 -59.265625 71.554688 -51.757812 74.296875 -43.65625 L 76.1875 -43.65625 Z M 45.546875 -42.28125 C 46.453125 -42.28125 47.445312 -42.851562 48.53125 -44 C 49.613281 -45.144531 50.15625 -46.113281 50.15625 -46.90625 C 50.15625 -47.59375 49.613281 -48.503906 48.53125 -49.640625 C 47.445312 -50.785156 46.453125 -51.359375 45.546875 -51.359375 C 44.398438 -51.359375 43.367188 -50.785156 42.453125 -49.640625 C 41.546875 -48.503906 41.09375 -47.59375 41.09375 -46.90625 C 41.09375 -46.113281 41.546875 -45.144531 42.453125 -44 C 43.367188 -42.851562 44.398438 -42.28125 45.546875 -42.28125 Z M 45.546875 -42.28125 "/></g></g></g><g fill="#ffffff" fill-opacity="1"><g transform="translate(478.409102, 187.599185)"><g><path d="M 59.40625 -66.765625 C 66.25 -63.679688 71.78125 -58.914062 76 -52.46875 C 80.226562 -46.019531 82.34375 -38.800781 82.34375 -30.8125 L 82.34375 -30.640625 C 82.34375 -22.648438 80.226562 -15.429688 76 -8.984375 C 71.78125 -2.535156 66.25 2.226562 59.40625 5.3125 C 56.78125 6.445312 54.328125 7.925781 52.046875 9.75 C 49.765625 11.582031 47.65625 13.640625 45.71875 15.921875 L 44 17.8125 C 43.65625 18.257812 43.195312 18.484375 42.625 18.484375 C 42.0625 18.484375 41.609375 18.257812 41.265625 17.8125 L 39.546875 15.921875 C 37.722656 13.640625 35.640625 11.582031 33.296875 9.75 C 30.960938 7.925781 28.484375 6.445312 25.859375 5.3125 C 23.679688 4.394531 21.648438 3.25 19.765625 1.875 C 17.890625 0.507812 16.148438 -0.910156 14.546875 -2.390625 C 12.265625 -0.796875 9.695312 0 6.84375 0 C 1.707031 0 -2.253906 -1.992188 -5.046875 -5.984375 C -7.847656 -9.984375 -9.789062 -15.289062 -10.875 -21.90625 C -11.957031 -28.53125 -12.5 -35.78125 -12.5 -43.65625 L 2.734375 -43.65625 C 3.765625 -43.65625 4.476562 -43.851562 4.875 -44.25 C 5.28125 -44.65625 5.597656 -45.195312 5.828125 -45.875 C 7.648438 -50.5625 10.300781 -54.703125 13.78125 -58.296875 C 17.257812 -61.890625 21.285156 -64.710938 25.859375 -66.765625 C 31.210938 -69.160156 35.773438 -72.703125 39.546875 -77.390625 L 40.75 -78.75 C 41.320312 -79.320312 41.945312 -79.609375 42.625 -79.609375 C 43.3125 -79.609375 43.882812 -79.320312 44.34375 -78.75 L 45.71875 -77.390625 C 49.476562 -72.703125 54.039062 -69.160156 59.40625 -66.765625 Z M 42.109375 -13.359375 C 42.910156 -13.359375 43.765625 -13.84375 44.671875 -14.8125 C 45.585938 -15.78125 46.046875 -16.609375 46.046875 -17.296875 C 46.046875 -18.085938 45.585938 -18.910156 44.671875 -19.765625 C 43.765625 -20.628906 42.910156 -21.0625 42.109375 -21.0625 C 41.316406 -21.0625 40.488281 -20.628906 39.625 -19.765625 C 38.769531 -18.910156 38.34375 -18.085938 38.34375 -17.296875 C 38.34375 -16.609375 38.769531 -15.78125 39.625 -14.8125 C 40.488281 -13.84375 41.316406 -13.359375 42.109375 -13.359375 Z M 42.109375 -13.359375 "/></g></g></g></g></g></svg>