<svg xmlns="http://www.w3.org/2000/svg" xmlns:xlink="http://www.w3.org/1999/xlink" width="500" zoomAndPan="magnify" viewBox="0 0 375 374.999991" height="500" preserveAspectRatio="xMidYMid meet" version="1.0"><defs><g/><clipPath id="494ffbe406"><path d="M 142 112 L 209 112 L 209 205 L 142 205 Z M 142 112 " clip-rule="nonzero"/></clipPath><clipPath id="b10b7670f6"><path d="M 118.5 134.328125 L 188.515625 109.621094 L 213.726562 181.050781 L 143.707031 205.761719 Z M 118.5 134.328125 " clip-rule="nonzero"/></clipPath><clipPath id="3f808256c3"><path d="M 118.5 134.328125 L 188.515625 109.621094 L 213.726562 181.050781 L 143.707031 205.761719 Z M 118.5 134.328125 " clip-rule="nonzero"/></clipPath><clipPath id="46bd273bad"><path d="M 184.71875 174 L 229.71875 174 L 229.71875 208.851562 L 184.71875 208.851562 Z M 184.71875 174 " clip-rule="nonzero"/></clipPath><clipPath id="424a39557d"><path d="M 184.71875 174 L 229.71875 174 L 229.71875 189 L 184.71875 189 Z M 184.71875 174 " clip-rule="nonzero"/></clipPath><clipPath id="cea481c2f7"><path d="M 198 167.601562 L 216 167.601562 L 216 178 L 198 178 Z M 198 167.601562 " clip-rule="nonzero"/></clipPath><clipPath id="29992a05f5"><rect x="0" width="165" y="0" height="71"/></clipPath></defs><g clip-path="url(#494ffbe406)"><g clip-path="url(#b10b7670f6)"><g clip-path="url(#3f808256c3)"><path fill="#333652" d="M 199.238281 165.96875 C 198.832031 164.816406 198.421875 163.667969 198.019531 162.515625 C 197.792969 161.859375 197.433594 161.355469 196.851562 160.917969 C 195.261719 159.730469 195.101562 159.085938 195.773438 157.070312 C 195.957031 156.515625 195.980469 156.019531 195.789062 155.492188 C 195.695312 155.238281 195.617188 154.976562 195.527344 154.722656 C 191.449219 143.214844 187.371094 131.710938 183.285156 120.207031 C 183.082031 119.632812 182.816406 119.082031 182.558594 118.53125 C 182.449219 118.292969 182.011719 118.285156 181.886719 118.507812 C 181.753906 118.746094 181.640625 118.992188 181.535156 119.238281 C 179.761719 123.308594 176.824219 126.304688 173.007812 128.488281 C 172.652344 128.691406 172.3125 128.933594 171.933594 129.0625 C 170.855469 129.433594 170.640625 130.199219 170.570312 131.261719 C 170.15625 137.675781 167.953125 143.410156 163.792969 148.34375 C 162.824219 149.488281 161.710938 150.480469 160.527344 151.394531 C 159.929688 151.859375 159.738281 152.386719 159.867188 153.160156 C 160.460938 156.664062 160.523438 160.175781 159.949219 163.691406 C 159.242188 168.007812 157.554688 171.875 154.683594 175.1875 C 153.707031 176.3125 152.710938 177.4375 151.179688 177.851562 C 150.738281 177.972656 150.535156 178.332031 150.476562 178.757812 C 150.261719 180.304688 150.054688 181.847656 149.863281 183.394531 C 149.804688 183.871094 150.074219 184.179688 150.511719 184.285156 C 151.695312 184.574219 152.882812 184.847656 154.074219 185.101562 C 154.5 185.191406 154.875 185.03125 155.164062 184.699219 C 155.429688 184.390625 155.679688 184.0625 155.972656 183.785156 C 158.570312 181.296875 162.832031 182.117188 164.332031 185.386719 C 165.167969 187.203125 164.691406 189.539062 163.195312 191.011719 C 161.714844 192.464844 159.417969 192.90625 157.535156 192.058594 C 156.191406 191.453125 155.101562 190.53125 154.601562 189.113281 C 154.261719 188.132812 153.621094 187.742188 152.660156 187.632812 C 151.917969 187.546875 151.195312 187.34375 150.460938 187.222656 C 149.625 187.089844 149.351562 187.292969 149.3125 188.191406 C 149.089844 192.945312 148.007812 197.589844 147.5 202.304688 C 147.472656 202.574219 147.429688 202.84375 147.367188 203.109375 C 147.054688 204.371094 146.253906 204.96875 145.027344 204.867188 C 143.738281 204.765625 142.828125 203.910156 142.78125 202.679688 C 142.757812 202.074219 142.828125 201.460938 142.910156 200.859375 C 143.621094 195.753906 144.304688 190.644531 145.089844 185.554688 C 145.355469 183.820312 145.90625 182.132812 146.3125 180.421875 C 146.5625 179.367188 146.839844 178.316406 147.023438 177.25 C 148.957031 165.964844 152.171875 155.0625 156.820312 144.601562 C 159.863281 137.757812 163.761719 131.421875 168.332031 125.480469 C 171.742188 121.054688 175.5625 117.046875 179.757812 113.378906 C 180.265625 112.933594 180.808594 112.515625 181.378906 112.160156 C 181.976562 111.789062 182.746094 112.148438 182.707031 112.832031 C 182.65625 113.765625 183.007812 114.558594 183.296875 115.382812 C 187.8125 128.246094 192.335938 141.101562 196.859375 153.964844 C 196.949219 154.21875 197.046875 154.472656 197.128906 154.730469 C 197.335938 155.40625 197.71875 155.863281 198.371094 156.234375 C 200.042969 157.1875 200.339844 157.894531 199.898438 159.738281 C 199.730469 160.445312 199.789062 161.066406 200.011719 161.71875 C 200.789062 163.960938 201.554688 166.207031 202.332031 168.453125 C 202.445312 168.769531 202.5625 169.09375 202.734375 169.382812 C 203.621094 170.855469 205.457031 170.875 206.410156 169.4375 C 206.882812 168.722656 206.769531 168.277344 205.992188 167.796875 C 205.148438 167.28125 205.117188 167.234375 205.46875 166.40625 C 205.8125 165.597656 206.183594 164.800781 206.566406 164.007812 C 206.691406 163.75 207.125 163.734375 207.238281 163.976562 C 207.890625 165.394531 208.476562 166.851562 208.730469 168.390625 C 208.976562 169.882812 208.019531 171.5 206.578125 172.234375 C 205.058594 173.003906 203.558594 172.917969 202.171875 171.894531 C 201.386719 171.320312 200.871094 170.527344 200.550781 169.601562 C 200.128906 168.386719 199.695312 167.171875 199.265625 165.957031 C 199.257812 165.960938 199.246094 165.964844 199.238281 165.96875 Z M 158.320312 153.1875 C 158.207031 152.9375 158.132812 152.75 158.042969 152.570312 C 157.90625 152.3125 157.675781 152.140625 157.394531 152.183594 C 157.21875 152.210938 157 152.355469 156.921875 152.511719 C 156.683594 152.992188 156.488281 153.5 156.304688 154.007812 C 153.980469 160.527344 152.371094 167.230469 151.15625 174.035156 C 151.074219 174.492188 151.082031 174.972656 151.078125 175.441406 C 151.078125 175.695312 151.464844 175.890625 151.691406 175.769531 C 151.929688 175.644531 152.179688 175.527344 152.375 175.351562 C 153.347656 174.5 154.15625 173.503906 154.863281 172.421875 C 158.230469 167.265625 159.238281 161.578125 158.640625 155.535156 C 158.5625 154.726562 158.421875 153.925781 158.320312 153.1875 Z M 159.339844 150.164062 C 160.183594 149.632812 161.027344 148.855469 161.820312 148.023438 C 166.214844 143.4375 168.445312 137.894531 169.042969 131.632812 C 169.085938 131.167969 169.050781 130.6875 168.988281 130.222656 C 168.964844 130.058594 168.769531 129.847656 168.609375 129.800781 C 168.453125 129.757812 168.1875 129.839844 168.074219 129.964844 C 167.796875 130.257812 167.5625 130.59375 167.347656 130.933594 C 166.484375 132.308594 165.605469 133.675781 164.789062 135.078125 C 162.429688 139.117188 160.425781 143.332031 158.679688 147.667969 C 158.476562 148.171875 158.308594 148.6875 158.144531 149.203125 C 158.03125 149.550781 158.09375 149.878906 158.410156 150.097656 C 158.640625 150.257812 158.90625 150.300781 159.339844 150.164062 Z M 170.875 127.851562 C 171.078125 127.75 171.382812 127.601562 171.675781 127.4375 C 173.035156 126.671875 174.320312 125.792969 175.492188 124.761719 C 177.886719 122.660156 179.617188 120.113281 180.570312 117.058594 C 180.6875 116.675781 180.761719 116.273438 180.820312 115.875 C 180.835938 115.761719 180.765625 115.589844 180.679688 115.511719 C 180.511719 115.363281 180.300781 115.421875 180.125 115.527344 C 180.007812 115.59375 179.898438 115.679688 179.804688 115.773438 C 176.480469 118.972656 173.394531 122.382812 170.640625 126.089844 C 170.441406 126.359375 170.257812 126.648438 170.082031 126.9375 C 169.9375 127.175781 169.859375 127.453125 170.023438 127.691406 C 170.195312 127.945312 170.488281 127.921875 170.875 127.851562 Z M 160.390625 189.878906 C 161.683594 189.4375 162.554688 187.828125 162.152344 186.632812 C 161.726562 185.371094 159.921875 184.519531 158.65625 184.988281 C 157.320312 185.484375 156.617188 186.960938 157.089844 188.28125 C 157.550781 189.582031 159.089844 190.324219 160.390625 189.878906 Z M 160.390625 189.878906 " fill-opacity="1" fill-rule="nonzero"/></g></g></g><g clip-path="url(#46bd273bad)"><path fill="#333652" d="M 226.886719 177.515625 C 226.886719 177.886719 226.886719 178.253906 226.886719 178.628906 C 226.886719 179.621094 226.886719 180.617188 226.886719 181.601562 C 226.886719 183.007812 226.886719 184.417969 226.886719 185.824219 C 226.886719 187.457031 226.886719 189.09375 226.886719 190.726562 C 226.886719 192.394531 226.886719 194.058594 226.886719 195.726562 C 226.886719 197.242188 226.886719 198.753906 226.886719 200.269531 C 226.886719 201.421875 226.886719 202.570312 226.886719 203.722656 C 226.886719 204.324219 226.886719 204.925781 226.886719 205.527344 C 226.886719 205.574219 226.886719 205.613281 226.886719 205.65625 C 226.886719 205.660156 226.886719 205.660156 226.886719 205.667969 C 226.886719 205.699219 226.878906 205.734375 226.878906 205.769531 C 226.890625 205.914062 226.933594 205.507812 226.898438 205.644531 C 226.886719 205.710938 226.871094 205.773438 226.851562 205.839844 C 226.839844 205.867188 226.820312 205.902344 226.820312 205.933594 C 226.820312 205.933594 226.945312 205.691406 226.878906 205.789062 C 226.84375 205.84375 226.816406 205.902344 226.785156 205.960938 C 226.761719 206.007812 226.667969 206.125 226.792969 205.972656 C 226.914062 205.8125 226.816406 205.941406 226.78125 205.972656 C 226.738281 206.015625 226.683594 206.0625 226.644531 206.105469 C 226.570312 206.191406 226.761719 206.015625 226.765625 206.011719 C 226.742188 206.015625 226.707031 206.050781 226.6875 206.066406 C 226.632812 206.09375 226.570312 206.125 226.515625 206.160156 C 226.414062 206.222656 226.65625 206.101562 226.65625 206.101562 C 226.617188 206.105469 226.574219 206.128906 226.53125 206.140625 C 226.464844 206.160156 226.394531 206.164062 226.332031 206.183594 C 226.355469 206.175781 226.652344 206.164062 226.457031 206.160156 C 226.457031 206.160156 226.386719 206.160156 226.386719 206.160156 C 226.386719 206.160156 226.382812 206.160156 226.382812 206.160156 C 226.351562 206.160156 226.328125 206.160156 226.296875 206.160156 C 225.859375 206.160156 225.414062 206.160156 224.972656 206.160156 C 224.074219 206.160156 223.171875 206.160156 222.273438 206.160156 C 221.023438 206.160156 219.78125 206.160156 218.53125 206.160156 C 217.035156 206.160156 215.542969 206.160156 214.046875 206.160156 C 212.398438 206.160156 210.753906 206.160156 209.105469 206.160156 C 207.421875 206.160156 205.746094 206.160156 204.0625 206.160156 C 202.441406 206.160156 200.816406 206.160156 199.199219 206.160156 C 197.742188 206.160156 196.28125 206.160156 194.824219 206.160156 C 193.628906 206.160156 192.4375 206.160156 191.242188 206.160156 C 190.414062 206.160156 189.589844 206.160156 188.761719 206.160156 C 188.410156 206.160156 188.054688 206.164062 187.703125 206.160156 C 187.699219 206.160156 187.695312 206.160156 187.683594 206.160156 C 187.648438 206.160156 187.613281 206.15625 187.582031 206.15625 C 187.457031 206.160156 187.742188 206.179688 187.738281 206.179688 C 187.707031 206.167969 187.667969 206.167969 187.640625 206.160156 C 187.574219 206.144531 187.511719 206.121094 187.449219 206.105469 C 187.328125 206.074219 187.589844 206.167969 187.589844 206.167969 C 187.5625 206.144531 187.507812 206.128906 187.472656 206.109375 C 187.417969 206.082031 187.363281 206.027344 187.308594 206.007812 C 187.5 206.070312 187.492188 206.164062 187.40625 206.074219 C 187.382812 206.050781 187.359375 206.03125 187.339844 206.007812 C 187.304688 205.972656 187.15625 205.792969 187.285156 205.960938 C 187.414062 206.128906 187.265625 205.917969 187.234375 205.867188 C 187.21875 205.839844 187.207031 205.808594 187.191406 205.78125 C 187.125 205.679688 187.25 205.921875 187.25 205.921875 C 187.238281 205.859375 187.207031 205.792969 187.191406 205.730469 C 187.179688 205.695312 187.179688 205.667969 187.171875 205.632812 C 187.140625 205.511719 187.191406 205.792969 187.191406 205.789062 C 187.199219 205.765625 187.1875 205.671875 187.1875 205.652344 C 187.1875 205.546875 187.1875 205.445312 187.1875 205.339844 C 187.1875 204.625 187.1875 203.902344 187.1875 203.1875 C 187.1875 201.957031 187.1875 200.730469 187.1875 199.5 C 187.1875 197.949219 187.1875 196.402344 187.1875 194.855469 C 187.1875 193.179688 187.1875 191.5 187.1875 189.828125 C 187.1875 188.21875 187.1875 186.609375 187.1875 185.003906 C 187.1875 183.652344 187.1875 182.296875 187.1875 180.941406 C 187.1875 180.046875 187.1875 179.160156 187.1875 178.265625 C 187.1875 178.046875 187.1875 177.835938 187.1875 177.617188 C 187.1875 177.578125 187.1875 177.539062 187.1875 177.503906 C 187.1875 177.503906 187.1875 177.5 187.1875 177.5 C 187.1875 177.464844 187.191406 177.429688 187.191406 177.394531 C 187.1875 177.273438 187.164062 177.558594 187.164062 177.554688 C 187.179688 177.503906 187.1875 177.441406 187.199219 177.390625 C 187.214844 177.335938 187.300781 177.125 187.214844 177.320312 C 187.132812 177.519531 187.230469 177.308594 187.253906 177.261719 C 187.28125 177.21875 187.417969 177.03125 187.285156 177.199219 C 187.152344 177.367188 187.320312 177.167969 187.359375 177.128906 C 187.382812 177.109375 187.40625 177.089844 187.433594 177.066406 C 187.507812 176.980469 187.3125 177.15625 187.308594 177.160156 C 187.367188 177.144531 187.453125 177.070312 187.5 177.039062 C 187.527344 177.027344 187.566406 177.015625 187.589844 176.996094 C 187.589844 176.996094 187.332031 177.085938 187.449219 177.0625 C 187.519531 177.039062 187.59375 177.015625 187.667969 177 C 187.871094 176.953125 187.398438 177.007812 187.609375 177.011719 C 187.625 177.011719 187.664062 177.011719 187.679688 177.011719 C 187.679688 177.011719 187.683594 177.011719 187.683594 177.011719 C 187.714844 177.011719 187.742188 177.011719 187.773438 177.011719 C 187.9375 177.011719 188.097656 177.011719 188.257812 177.011719 C 188.949219 177.011719 189.644531 177.011719 190.335938 177.011719 C 191.425781 177.011719 192.519531 177.011719 193.609375 177.011719 C 194.996094 177.011719 196.382812 177.011719 197.769531 177.011719 C 199.351562 177.011719 200.933594 177.011719 202.515625 177.011719 C 204.199219 177.011719 205.878906 177.011719 207.5625 177.011719 C 209.226562 177.011719 210.886719 177.011719 212.550781 177.011719 C 214.101562 177.011719 215.652344 177.011719 217.203125 177.011719 C 218.535156 177.011719 219.871094 177.011719 221.203125 177.011719 C 222.21875 177.011719 223.242188 177.011719 224.257812 177.011719 C 224.851562 177.011719 225.441406 177.011719 226.035156 177.011719 C 226.140625 177.011719 226.242188 177.011719 226.347656 177.011719 C 226.351562 177.011719 226.355469 177.011719 226.367188 177.011719 C 226.375 177.011719 226.386719 177.011719 226.402344 177.011719 C 226.429688 177.011719 226.476562 177.019531 226.503906 177.015625 C 226.507812 177.015625 226.222656 176.960938 226.347656 176.996094 C 226.421875 177.015625 226.5 177.035156 226.574219 177.050781 C 226.769531 177.09375 226.351562 176.921875 226.519531 177.027344 C 226.574219 177.0625 226.632812 177.09375 226.6875 177.125 C 226.859375 177.222656 226.503906 176.945312 226.644531 177.089844 C 226.6875 177.132812 226.730469 177.183594 226.78125 177.226562 C 226.925781 177.367188 226.648438 177.011719 226.746094 177.183594 C 226.78125 177.25 226.820312 177.320312 226.859375 177.382812 C 226.925781 177.480469 226.800781 177.238281 226.800781 177.238281 C 226.804688 177.269531 226.824219 177.300781 226.832031 177.332031 C 226.851562 177.394531 226.859375 177.460938 226.878906 177.523438 C 226.910156 177.644531 226.859375 177.363281 226.859375 177.367188 C 226.871094 177.402344 226.886719 177.5 226.886719 177.515625 C 226.898438 178.160156 227.441406 178.777344 228.117188 178.75 C 228.777344 178.71875 229.367188 178.207031 229.351562 177.515625 C 229.320312 175.886719 228.019531 174.578125 226.386719 174.550781 C 226.296875 174.550781 226.214844 174.550781 226.125 174.550781 C 225.558594 174.550781 224.988281 174.550781 224.421875 174.550781 C 223.414062 174.550781 222.402344 174.550781 221.394531 174.550781 C 220.0625 174.550781 218.722656 174.550781 217.390625 174.550781 C 215.824219 174.550781 214.253906 174.550781 212.691406 174.550781 C 211.003906 174.550781 209.320312 174.550781 207.628906 174.550781 C 205.941406 174.550781 204.25 174.550781 202.558594 174.550781 C 200.957031 174.550781 199.351562 174.550781 197.746094 174.550781 C 196.347656 174.550781 194.953125 174.550781 193.554688 174.550781 C 192.457031 174.550781 191.363281 174.550781 190.265625 174.550781 C 189.585938 174.550781 188.902344 174.550781 188.222656 174.550781 C 188.070312 174.550781 187.921875 174.550781 187.769531 174.550781 C 186.972656 174.558594 186.234375 174.832031 185.648438 175.378906 C 185.03125 175.949219 184.738281 176.773438 184.730469 177.597656 C 184.730469 177.796875 184.730469 178 184.730469 178.195312 C 184.730469 179.070312 184.730469 179.949219 184.730469 180.824219 C 184.730469 182.175781 184.730469 183.53125 184.730469 184.886719 C 184.730469 186.515625 184.730469 188.140625 184.730469 189.769531 C 184.730469 191.460938 184.730469 193.152344 184.730469 194.84375 C 184.730469 196.414062 184.730469 197.984375 184.730469 199.554688 C 184.730469 200.789062 184.730469 202.023438 184.730469 203.257812 C 184.730469 203.96875 184.730469 204.671875 184.730469 205.382812 C 184.730469 205.523438 184.726562 205.660156 184.738281 205.800781 C 184.851562 207.375 186.109375 208.597656 187.699219 208.625 C 188.019531 208.628906 188.335938 208.625 188.65625 208.625 C 189.464844 208.625 190.277344 208.625 191.089844 208.625 C 192.28125 208.625 193.464844 208.625 194.65625 208.625 C 196.125 208.625 197.597656 208.625 199.070312 208.625 C 200.703125 208.625 202.335938 208.625 203.972656 208.625 C 205.679688 208.625 207.382812 208.625 209.089844 208.625 C 210.753906 208.625 212.417969 208.625 214.082031 208.625 C 215.589844 208.625 217.09375 208.625 218.605469 208.625 C 219.863281 208.625 221.125 208.625 222.378906 208.625 C 223.269531 208.625 224.160156 208.625 225.054688 208.625 C 225.476562 208.625 225.90625 208.625 226.332031 208.625 C 227.152344 208.617188 227.972656 208.3125 228.535156 207.707031 C 229.085938 207.113281 229.359375 206.367188 229.359375 205.5625 C 229.359375 204.984375 229.359375 204.40625 229.359375 203.835938 C 229.359375 202.683594 229.359375 201.535156 229.359375 200.382812 C 229.359375 198.867188 229.359375 197.355469 229.359375 195.839844 C 229.359375 194.152344 229.359375 192.460938 229.359375 190.769531 C 229.359375 189.113281 229.359375 187.453125 229.359375 185.792969 C 229.359375 184.378906 229.359375 182.960938 229.359375 181.539062 C 229.359375 180.546875 229.359375 179.558594 229.359375 178.566406 C 229.359375 178.210938 229.359375 177.855469 229.359375 177.503906 C 229.359375 176.859375 228.789062 176.242188 228.125 176.269531 C 227.449219 176.316406 226.886719 176.824219 226.886719 177.515625 Z M 226.886719 177.515625 " fill-opacity="1" fill-rule="nonzero"/></g><path fill="#333652" d="M 209.546875 184.890625 C 209.546875 185.636719 209.546875 186.386719 209.546875 187.132812 C 209.546875 188.007812 209.511719 188.890625 209.546875 189.765625 C 209.546875 189.777344 209.539062 189.796875 209.546875 189.8125 C 209.480469 189.4375 209.957031 189 210.3125 189.046875 C 210.25 189.039062 210.1875 189.046875 210.128906 189.046875 C 209.777344 189.046875 209.421875 189.046875 209.070312 189.046875 C 207.972656 189.046875 206.871094 189.046875 205.769531 189.046875 C 205.316406 189.046875 204.855469 189.046875 204.402344 189.046875 C 204.203125 189.046875 203.976562 189.019531 203.777344 189.046875 C 204.132812 189 204.609375 189.4375 204.542969 189.8125 C 204.550781 189.796875 204.542969 189.777344 204.542969 189.765625 C 204.550781 189.644531 204.542969 189.527344 204.542969 189.410156 C 204.542969 188.933594 204.542969 188.460938 204.542969 187.988281 C 204.542969 187.019531 204.542969 186.050781 204.542969 185.082031 C 204.542969 185.074219 204.542969 184.886719 204.542969 184.886719 C 204.589844 184.886719 204.421875 185.304688 204.441406 185.269531 C 204.375 185.378906 204.273438 185.484375 204.164062 185.546875 C 204.175781 185.542969 203.800781 185.699219 203.777344 185.652344 C 203.777344 185.65625 203.832031 185.652344 203.839844 185.652344 C 204.125 185.664062 204.410156 185.652344 204.699219 185.652344 C 205.765625 185.652344 206.832031 185.652344 207.898438 185.652344 C 208.675781 185.652344 209.464844 185.6875 210.246094 185.652344 C 210.257812 185.652344 210.300781 185.65625 210.304688 185.652344 C 210.3125 185.644531 210.113281 185.625 210.109375 185.621094 C 209.761719 185.550781 209.566406 185.222656 209.546875 184.890625 C 209.589844 185.53125 210.082031 186.15625 210.78125 186.125 C 211.410156 186.09375 212.058594 185.582031 212.015625 184.890625 C 211.949219 183.949219 211.285156 183.21875 210.3125 183.1875 C 210.25 183.1875 210.1875 183.1875 210.128906 183.1875 C 209.757812 183.1875 209.382812 183.1875 209.011719 183.1875 C 207.832031 183.1875 206.65625 183.1875 205.476562 183.1875 C 205.035156 183.1875 204.59375 183.1875 204.148438 183.1875 C 203.582031 183.1875 203.039062 183.238281 202.59375 183.667969 C 202.105469 184.136719 202.074219 184.722656 202.074219 185.339844 C 202.074219 185.863281 202.074219 186.386719 202.074219 186.910156 C 202.074219 187.863281 202.0625 188.8125 202.074219 189.765625 C 202.09375 190.757812 202.835938 191.496094 203.828125 191.515625 C 204.128906 191.519531 204.429688 191.515625 204.730469 191.515625 C 205.882812 191.515625 207.027344 191.515625 208.179688 191.515625 C 208.890625 191.515625 209.601562 191.546875 210.3125 191.515625 C 211.257812 191.480469 211.976562 190.761719 212.015625 189.8125 C 212.019531 189.738281 212.015625 189.667969 212.015625 189.597656 C 212.015625 189.152344 212.015625 188.707031 212.015625 188.269531 C 212.015625 187.210938 212.015625 186.15625 212.015625 185.097656 C 212.015625 185.027344 212.015625 184.960938 212.015625 184.890625 C 212.015625 184.242188 211.445312 183.625 210.78125 183.65625 C 210.109375 183.6875 209.546875 184.199219 209.546875 184.890625 Z M 209.546875 184.890625 " fill-opacity="1" fill-rule="nonzero"/><g clip-path="url(#424a39557d)"><path fill="#333652" d="M 226.886719 177.363281 C 226.886719 178.003906 226.886719 178.648438 226.886719 179.292969 C 226.886719 179.96875 226.914062 180.648438 226.875 181.328125 C 226.871094 181.40625 226.863281 181.484375 226.855469 181.5625 C 226.851562 181.609375 226.84375 181.652344 226.839844 181.695312 C 226.832031 181.835938 226.863281 181.519531 226.863281 181.539062 C 226.824219 181.703125 226.8125 181.871094 226.769531 182.039062 C 226.695312 182.351562 226.597656 182.652344 226.484375 182.957031 C 226.410156 183.148438 226.617188 182.675781 226.496094 182.929688 C 226.460938 183 226.429688 183.070312 226.394531 183.136719 C 226.320312 183.285156 226.242188 183.429688 226.160156 183.566406 C 226.085938 183.6875 226.011719 183.804688 225.925781 183.921875 C 225.878906 183.992188 225.824219 184.0625 225.773438 184.136719 C 225.765625 184.144531 225.957031 183.917969 225.867188 184.011719 C 225.832031 184.050781 225.796875 184.097656 225.765625 184.136719 C 225.566406 184.367188 225.355469 184.585938 225.128906 184.78125 C 225.066406 184.832031 225.015625 184.882812 224.953125 184.929688 C 224.738281 185.113281 225.140625 184.796875 224.972656 184.914062 C 224.839844 185.007812 224.707031 185.101562 224.574219 185.191406 C 224.304688 185.363281 224.011719 185.476562 223.738281 185.636719 C 223.726562 185.644531 224.007812 185.527344 223.882812 185.578125 C 223.84375 185.59375 223.800781 185.613281 223.757812 185.625 C 223.6875 185.65625 223.617188 185.679688 223.542969 185.707031 C 223.382812 185.757812 223.226562 185.804688 223.0625 185.847656 C 222.921875 185.882812 222.78125 185.914062 222.640625 185.941406 C 222.59375 185.953125 222.304688 185.992188 222.535156 185.960938 C 222.765625 185.933594 222.453125 185.96875 222.390625 185.972656 C 222.214844 185.988281 222.035156 185.992188 221.859375 185.992188 C 221.746094 185.992188 221.636719 185.992188 221.523438 185.992188 C 220.945312 185.992188 220.371094 185.992188 219.796875 185.992188 C 218.003906 185.992188 216.207031 185.992188 214.414062 185.992188 C 213.222656 185.992188 212.023438 185.960938 210.835938 185.992188 C 210.816406 185.992188 210.792969 185.992188 210.773438 185.992188 C 211.183594 186.402344 211.597656 186.816406 212.007812 187.226562 C 212.007812 186.8125 212.007812 186.398438 212.007812 185.988281 C 212.007812 185.5 212.078125 184.921875 211.949219 184.441406 C 211.746094 183.695312 211.0625 183.210938 210.304688 183.191406 C 210.238281 183.191406 210.167969 183.191406 210.097656 183.191406 C 209.722656 183.191406 209.34375 183.191406 208.96875 183.191406 C 207.8125 183.191406 206.652344 183.191406 205.496094 183.191406 C 205.0625 183.191406 204.625 183.191406 204.1875 183.191406 C 203.746094 183.191406 203.324219 183.1875 202.914062 183.425781 C 202.351562 183.753906 202.070312 184.363281 202.070312 184.996094 C 202.070312 185.242188 202.070312 185.492188 202.070312 185.738281 C 202.070312 186.234375 202.070312 186.726562 202.070312 187.226562 C 202.480469 186.816406 202.894531 186.402344 203.304688 185.992188 C 201.277344 185.992188 199.246094 185.992188 197.21875 185.992188 C 195.9375 185.992188 194.65625 185.992188 193.375 185.992188 C 193.039062 185.992188 192.699219 185.992188 192.363281 185.992188 C 192.316406 185.992188 192.261719 185.992188 192.210938 185.992188 C 191.980469 185.992188 191.753906 185.972656 191.523438 185.953125 C 191.324219 185.933594 191.640625 185.96875 191.652344 185.972656 C 191.589844 185.957031 191.519531 185.953125 191.453125 185.9375 C 191.316406 185.914062 191.191406 185.886719 191.054688 185.855469 C 190.820312 185.792969 190.585938 185.726562 190.359375 185.636719 C 190.300781 185.613281 190.238281 185.585938 190.175781 185.5625 C 190.53125 185.679688 190.316406 185.621094 190.230469 185.582031 C 190.113281 185.527344 189.996094 185.46875 189.882812 185.402344 C 189.667969 185.289062 189.464844 185.164062 189.273438 185.027344 C 189.179688 184.964844 188.929688 184.71875 189.210938 184.988281 C 189.117188 184.902344 189.007812 184.828125 188.914062 184.738281 C 188.734375 184.578125 188.566406 184.40625 188.410156 184.230469 C 188.339844 184.148438 188.277344 184.054688 188.203125 183.980469 C 188.449219 184.234375 188.296875 184.105469 188.238281 184.027344 C 188.1875 183.957031 188.136719 183.882812 188.089844 183.816406 C 187.960938 183.625 187.847656 183.429688 187.738281 183.226562 C 187.683594 183.117188 187.636719 183.011719 187.582031 182.902344 C 187.472656 182.679688 187.6875 183.1875 187.601562 182.957031 C 187.574219 182.894531 187.550781 182.832031 187.53125 182.773438 C 187.449219 182.546875 187.378906 182.308594 187.324219 182.070312 C 187.300781 181.964844 187.273438 181.855469 187.253906 181.742188 C 187.246094 181.675781 187.234375 181.609375 187.21875 181.539062 C 187.304688 181.9375 187.234375 181.632812 187.226562 181.527344 C 187.207031 181.292969 187.199219 181.054688 187.199219 180.816406 C 187.199219 180.199219 187.199219 179.589844 187.199219 178.972656 C 187.199219 178.441406 187.195312 177.914062 187.199219 177.390625 C 187.199219 177.382812 187.199219 177.371094 187.199219 177.363281 C 187.199219 177.375 187.207031 177.214844 187.207031 177.222656 C 187.25 177.425781 187.160156 177.484375 187.199219 177.320312 C 187.210938 177.277344 187.246094 177.214844 187.246094 177.164062 C 187.21875 177.222656 187.195312 177.28125 187.171875 177.335938 C 187.191406 177.296875 187.207031 177.257812 187.230469 177.222656 C 187.257812 177.175781 187.3125 177.113281 187.332031 177.0625 C 187.300781 177.164062 187.144531 177.273438 187.304688 177.113281 C 187.414062 177.007812 187.488281 177.039062 187.25 177.144531 C 187.304688 177.121094 187.359375 177.070312 187.414062 177.039062 C 187.449219 177.019531 187.496094 177.007812 187.527344 176.980469 C 187.292969 177.144531 187.332031 177.054688 187.476562 177.019531 C 187.613281 176.988281 187.714844 177.035156 187.40625 177.019531 C 187.453125 177.027344 187.5 177.015625 187.542969 177.015625 C 187.542969 177.015625 187.546875 177.015625 187.546875 177.015625 C 187.789062 177.011719 188.03125 177.015625 188.265625 177.015625 C 189.8125 177.015625 191.359375 177.015625 192.902344 177.015625 C 195.394531 177.015625 197.882812 177.015625 200.378906 177.015625 C 203.300781 177.015625 206.21875 177.015625 209.140625 177.015625 C 211.914062 177.015625 214.695312 177.015625 217.46875 177.015625 C 219.59375 177.015625 221.710938 177.015625 223.832031 177.015625 C 224.730469 177.015625 225.636719 177 226.535156 177.015625 C 226.539062 177.015625 226.542969 177.015625 226.542969 177.015625 C 226.53125 177.015625 226.695312 177.015625 226.675781 177.019531 C 226.613281 177.011719 226.550781 177 226.480469 176.996094 C 226.523438 177.007812 226.5625 177.011719 226.609375 177.027344 C 226.644531 177.035156 226.703125 177.066406 226.730469 177.066406 C 226.671875 177.039062 226.613281 177.015625 226.558594 176.992188 C 226.597656 177.011719 226.636719 177.027344 226.671875 177.050781 C 226.722656 177.082031 226.78125 177.132812 226.835938 177.15625 C 226.8125 177.144531 226.609375 176.945312 226.730469 177.082031 C 226.765625 177.121094 226.820312 177.1875 226.863281 177.21875 C 226.824219 177.167969 226.792969 177.121094 226.75 177.070312 C 226.777344 177.105469 226.800781 177.140625 226.820312 177.179688 C 226.84375 177.214844 226.859375 177.253906 226.886719 177.292969 C 227.003906 177.496094 226.804688 177.007812 226.855469 177.238281 C 226.863281 177.292969 226.878906 177.375 226.898438 177.429688 C 226.890625 177.367188 226.878906 177.300781 226.875 177.234375 C 226.878906 177.273438 226.886719 177.316406 226.886719 177.363281 C 226.898438 178.007812 227.441406 178.625 228.117188 178.597656 C 228.777344 178.566406 229.367188 178.054688 229.351562 177.363281 C 229.320312 175.816406 228.09375 174.582031 226.542969 174.550781 C 226.480469 174.550781 226.421875 174.550781 226.355469 174.550781 C 225.921875 174.550781 225.492188 174.550781 225.058594 174.550781 C 223.195312 174.550781 221.332031 174.550781 219.46875 174.550781 C 216.75 174.550781 214.027344 174.550781 211.308594 174.550781 C 208.320312 174.550781 205.335938 174.550781 202.347656 174.550781 C 199.660156 174.550781 196.976562 174.550781 194.289062 174.550781 C 192.476562 174.550781 190.671875 174.550781 188.859375 174.550781 C 188.464844 174.550781 188.0625 174.550781 187.667969 174.550781 C 187.382812 174.550781 187.097656 174.578125 186.820312 174.644531 C 185.566406 174.976562 184.742188 176.148438 184.738281 177.421875 C 184.730469 178.578125 184.738281 179.738281 184.738281 180.890625 C 184.738281 182.996094 185.597656 185.0625 187.164062 186.480469 C 188.585938 187.765625 190.398438 188.449219 192.316406 188.449219 C 193.214844 188.449219 194.117188 188.449219 195.015625 188.449219 C 197.609375 188.449219 200.199219 188.449219 202.792969 188.449219 C 202.964844 188.449219 203.136719 188.449219 203.304688 188.449219 C 203.972656 188.449219 204.539062 187.882812 204.539062 187.214844 C 204.539062 186.847656 204.539062 186.46875 204.539062 186.101562 C 204.539062 185.832031 204.539062 185.5625 204.539062 185.296875 C 204.539062 185.167969 204.558594 185.019531 204.539062 184.890625 C 204.554688 184.988281 204.488281 185.167969 204.4375 185.269531 C 204.382812 185.375 204.269531 185.484375 204.160156 185.546875 C 204.195312 185.527344 203.769531 185.695312 203.769531 185.652344 C 203.769531 185.652344 203.808594 185.652344 203.808594 185.652344 C 203.898438 185.660156 203.996094 185.652344 204.085938 185.652344 C 204.46875 185.652344 204.851562 185.652344 205.234375 185.652344 C 206.3125 185.652344 207.394531 185.652344 208.46875 185.652344 C 208.902344 185.652344 209.332031 185.652344 209.769531 185.652344 C 209.9375 185.652344 210.132812 185.679688 210.300781 185.652344 C 210.054688 185.695312 209.753906 185.46875 209.640625 185.269531 C 209.605469 185.214844 209.511719 184.941406 209.535156 184.894531 C 209.515625 184.933594 209.535156 185.046875 209.535156 185.089844 C 209.535156 185.351562 209.535156 185.617188 209.535156 185.878906 C 209.535156 186.324219 209.535156 186.773438 209.535156 187.214844 C 209.535156 187.882812 210.105469 188.449219 210.769531 188.449219 C 211.800781 188.449219 212.828125 188.449219 213.859375 188.449219 C 215.707031 188.449219 217.554688 188.449219 219.40625 188.449219 C 220.640625 188.449219 221.898438 188.519531 223.117188 188.335938 C 226.011719 187.902344 228.472656 185.546875 229.136719 182.71875 C 229.34375 181.828125 229.34375 180.945312 229.34375 180.042969 C 229.34375 179.203125 229.34375 178.363281 229.34375 177.53125 C 229.34375 177.46875 229.34375 177.417969 229.34375 177.355469 C 229.34375 176.710938 228.777344 176.09375 228.109375 176.121094 C 227.449219 176.15625 226.886719 176.671875 226.886719 177.363281 Z M 226.886719 177.363281 " fill-opacity="1" fill-rule="nonzero"/></g><g clip-path="url(#cea481c2f7)"><path fill="#333652" d="M 214.304688 174.550781 C 212.660156 174.550781 211.015625 174.550781 209.371094 174.550781 C 206.777344 174.550781 204.175781 174.550781 201.578125 174.550781 C 200.980469 174.550781 200.382812 174.550781 199.785156 174.550781 C 200.195312 174.960938 200.609375 175.378906 201.019531 175.785156 C 201.019531 174.015625 201.019531 172.242188 201.019531 170.46875 C 201.019531 170.375 201.019531 170.285156 201.019531 170.191406 C 201.019531 170.1875 201.019531 170.183594 201.019531 170.179688 C 201.019531 170.199219 201.023438 170.085938 201.023438 170.074219 C 201.023438 169.917969 200.933594 170.390625 201.019531 170.171875 C 201.027344 170.144531 201.058594 170.074219 201.058594 170.050781 C 201.054688 170.257812 200.945312 170.273438 201.015625 170.167969 C 201.039062 170.128906 201.164062 169.972656 201.023438 170.132812 C 200.875 170.300781 201.042969 170.125 201.074219 170.089844 C 201.101562 170.054688 201.226562 169.945312 201.074219 170.085938 C 200.914062 170.226562 201.070312 170.105469 201.109375 170.074219 C 201.21875 170.003906 201.195312 170.113281 200.988281 170.117188 C 201.015625 170.117188 201.089844 170.089844 201.113281 170.078125 C 201.332031 169.996094 200.855469 170.089844 201.015625 170.085938 C 201.019531 170.085938 201.136719 170.078125 201.117188 170.078125 C 201.125 170.078125 201.125 170.078125 201.128906 170.078125 C 201.171875 170.078125 201.222656 170.078125 201.265625 170.078125 C 201.933594 170.078125 202.597656 170.078125 203.261719 170.078125 C 205.535156 170.078125 207.808594 170.078125 210.082031 170.078125 C 210.898438 170.078125 211.714844 170.078125 212.527344 170.078125 C 212.675781 170.078125 212.820312 170.074219 212.96875 170.078125 C 212.96875 170.078125 212.972656 170.078125 212.972656 170.078125 C 212.988281 170.078125 213.027344 170.078125 213.042969 170.078125 C 213.273438 170.078125 212.8125 170 212.941406 170.070312 C 212.972656 170.085938 213.070312 170.117188 213.101562 170.113281 C 213.070312 170.113281 212.828125 169.964844 212.980469 170.070312 C 212.996094 170.078125 213.070312 170.132812 213.089844 170.140625 C 212.9375 170.015625 212.898438 169.980469 212.96875 170.046875 C 212.992188 170.066406 213.015625 170.089844 213.035156 170.109375 C 213.0625 170.132812 213.09375 170.183594 213.121094 170.203125 C 212.941406 170.074219 212.976562 170.011719 213.054688 170.140625 C 213.140625 170.28125 213.03125 170.246094 213.027344 170.050781 C 213.027344 170.074219 213.054688 170.152344 213.066406 170.171875 C 213.144531 170.375 213.027344 170.03125 213.054688 170.039062 C 213.066406 170.039062 213.0625 170.160156 213.0625 170.179688 C 213.0625 170.183594 213.0625 170.1875 213.0625 170.191406 C 213.09375 171.996094 213.0625 173.808594 213.0625 175.609375 C 213.0625 175.667969 213.0625 175.722656 213.0625 175.78125 C 213.0625 176.429688 213.628906 177.046875 214.296875 177.015625 C 214.960938 176.988281 215.53125 176.472656 215.53125 175.78125 C 215.53125 173.976562 215.53125 172.171875 215.53125 170.367188 C 215.53125 169.617188 215.316406 168.90625 214.773438 168.363281 C 214.265625 167.851562 213.578125 167.609375 212.863281 167.605469 C 212.214844 167.605469 211.574219 167.605469 210.929688 167.605469 C 208.589844 167.605469 206.242188 167.605469 203.902344 167.605469 C 203.09375 167.605469 202.277344 167.605469 201.46875 167.605469 C 201.34375 167.605469 201.222656 167.601562 201.101562 167.605469 C 199.6875 167.636719 198.570312 168.757812 198.535156 170.171875 C 198.496094 171.976562 198.535156 173.78125 198.535156 175.589844 C 198.535156 175.652344 198.535156 175.71875 198.535156 175.78125 C 198.535156 176.449219 199.105469 177.015625 199.769531 177.015625 C 201.414062 177.015625 203.058594 177.015625 204.703125 177.015625 C 207.300781 177.015625 209.902344 177.015625 212.5 177.015625 C 213.09375 177.015625 213.691406 177.015625 214.289062 177.015625 C 214.9375 177.015625 215.554688 176.449219 215.523438 175.78125 C 215.511719 175.121094 214.996094 174.550781 214.304688 174.550781 Z M 214.304688 174.550781 " fill-opacity="1" fill-rule="nonzero"/></g><g transform="matrix(1, 0, 0, 1, 105, 200)"><g clip-path="url(#29992a05f5)"><g fill="#333652" fill-opacity="1"><g transform="translate(0.541435, 54.857656)"><g><path d="M 41.3125 -12.75 L 40.0625 -12.296875 L 40.0625 -1.15625 C 40.0625 -0.488281 39.859375 -0.00390625 39.453125 0.296875 C 39.054688 0.597656 38.539062 0.765625 37.90625 0.796875 C 37.113281 0.796875 36.210938 0.585938 35.203125 0.171875 C 34.203125 -0.242188 33.300781 -0.828125 32.5 -1.578125 C 31.707031 -2.328125 31.160156 -3.164062 30.859375 -4.09375 L 30.703125 -4.09375 C 30.773438 -2.664062 30.535156 -1.597656 29.984375 -0.890625 C 29.429688 -0.191406 28.773438 0.15625 28.015625 0.15625 C 27.347656 0.113281 26.679688 -0.175781 26.015625 -0.71875 C 25.347656 -1.269531 24.8125 -2.082031 24.40625 -3.15625 L 24.25 -3.09375 C 24.457031 -1.132812 24.132812 0.757812 23.28125 2.59375 C 22.425781 4.4375 21.09375 5.941406 19.28125 7.109375 C 17.46875 8.273438 15.207031 8.859375 12.5 8.859375 C 10.300781 8.859375 8.289062 8.316406 6.46875 7.234375 C 4.65625 6.148438 3.207031 4.695312 2.125 2.875 C 1.039062 1.0625 0.5 -0.945312 0.5 -3.15625 C 0.5 -5.582031 1.148438 -7.753906 2.453125 -9.671875 C 3.753906 -11.585938 5.421875 -13.046875 7.453125 -14.046875 C 7.722656 -14.179688 7.960938 -14.171875 8.171875 -14.015625 C 8.390625 -13.867188 8.5 -13.664062 8.5 -13.40625 C 8.5 -13.238281 8.453125 -13.101562 8.359375 -13 C 7.785156 -12.164062 7.5 -11.21875 7.5 -10.15625 C 7.5 -8.851562 7.796875 -7.75 8.390625 -6.84375 C 8.992188 -5.945312 9.695312 -5.234375 10.5 -4.703125 C 11.300781 -4.171875 12 -3.785156 12.59375 -3.546875 C 13.195312 -3.316406 13.5 -3.203125 13.5 -3.203125 C 13.5 -3.203125 13.765625 -3.347656 14.296875 -3.640625 C 14.835938 -3.941406 15.441406 -4.300781 16.109375 -4.71875 C 16.773438 -5.144531 17.273438 -5.523438 17.609375 -5.859375 C 18.171875 -6.421875 18.4375 -6.9375 18.40625 -7.40625 C 18.375 -7.875 18.210938 -8.363281 17.921875 -8.875 C 17.640625 -9.394531 17.347656 -9.960938 17.046875 -10.578125 C 16.753906 -11.191406 16.609375 -11.914062 16.609375 -12.75 C 16.609375 -13.65625 16.820312 -14.359375 17.25 -14.859375 C 17.6875 -15.359375 18.28125 -15.773438 19.03125 -16.109375 C 19.78125 -16.441406 20.601562 -16.796875 21.5 -17.171875 C 22.40625 -17.554688 23.332031 -18.066406 24.28125 -18.703125 C 25.226562 -19.335938 26.117188 -20.222656 26.953125 -21.359375 C 27.023438 -21.453125 27.132812 -21.457031 27.28125 -21.375 C 27.4375 -21.289062 27.476562 -21.1875 27.40625 -21.0625 C 27.3125 -20.820312 27.179688 -20.351562 27.015625 -19.65625 C 26.847656 -18.957031 26.660156 -18.15625 26.453125 -17.25 C 26.253906 -16.351562 26.035156 -15.46875 25.796875 -14.59375 C 25.566406 -13.726562 25.351562 -12.984375 25.15625 -12.359375 C 25.09375 -12.117188 25.234375 -11.90625 25.578125 -11.71875 C 25.929688 -11.539062 26.109375 -11.453125 26.109375 -11.453125 C 26.109375 -11.453125 26.257812 -11.539062 26.5625 -11.71875 C 26.863281 -11.90625 27.015625 -12.117188 27.015625 -12.359375 C 27.015625 -13.722656 27.179688 -14.851562 27.515625 -15.75 C 27.847656 -16.65625 28.296875 -17.441406 28.859375 -18.109375 C 29.421875 -18.773438 30.035156 -19.441406 30.703125 -20.109375 C 31.035156 -20.441406 31.296875 -20.671875 31.484375 -20.796875 C 31.671875 -20.929688 31.726562 -20.664062 31.65625 -20 C 31.5625 -19.164062 31.421875 -18.039062 31.234375 -16.625 C 31.046875 -15.207031 30.953125 -13.785156 30.953125 -12.359375 C 30.953125 -12.117188 31.109375 -11.90625 31.421875 -11.71875 C 31.742188 -11.539062 31.90625 -11.453125 31.90625 -11.453125 C 31.90625 -11.453125 32.070312 -11.539062 32.40625 -11.71875 C 32.738281 -11.90625 32.875 -12.117188 32.8125 -12.359375 C 32.40625 -14.390625 32.46875 -16.304688 33 -18.109375 C 33.539062 -19.910156 34.460938 -21.703125 35.765625 -23.484375 C 37.066406 -25.265625 38.664062 -27.109375 40.5625 -29.015625 C 40.695312 -29.140625 40.832031 -29.171875 40.96875 -29.109375 C 41.0625 -29.078125 41.078125 -28.960938 41.015625 -28.765625 C 40.816406 -28.191406 40.609375 -27.53125 40.390625 -26.78125 C 40.171875 -26.03125 40.0625 -24.972656 40.0625 -23.609375 L 40.0625 -14.25 C 40.0625 -13.945312 40.128906 -13.613281 40.265625 -13.25 C 40.398438 -12.882812 40.75 -12.71875 41.3125 -12.75 Z M 41.3125 -12.75 "/></g></g></g><g fill="#333652" fill-opacity="1"><g transform="translate(41.504286, 54.857656)"><g><path d="M 7 -22.5625 L 3.59375 -25.953125 C 3.164062 -26.421875 2.953125 -26.960938 2.953125 -27.578125 C 2.953125 -28.203125 3.164062 -28.726562 3.59375 -29.15625 L 7.046875 -32.5625 L 10.5 -29.109375 C 10.9375 -28.671875 11.15625 -28.148438 11.15625 -27.546875 C 11.15625 -26.953125 10.9375 -26.441406 10.5 -26.015625 Z M 5.046875 0 C 3.316406 0 1.804688 -0.523438 0.515625 -1.578125 C -0.765625 -2.628906 -1.753906 -4.113281 -2.453125 -6.03125 C -3.148438 -7.945312 -3.5 -10.1875 -3.5 -12.75 L 4.203125 -12.75 C 5.472656 -12.75 6.460938 -13.015625 7.171875 -13.546875 C 7.890625 -14.085938 8.46875 -14.773438 8.90625 -15.609375 C 9.539062 -16.773438 10.113281 -18.15625 10.625 -19.75 C 11.144531 -21.351562 11.972656 -22.957031 13.109375 -24.5625 C 13.203125 -24.65625 13.304688 -24.664062 13.421875 -24.59375 C 13.546875 -24.53125 13.570312 -24.4375 13.5 -24.3125 C 13.164062 -23.4375 12.863281 -22.515625 12.59375 -21.546875 C 12.332031 -20.585938 12.1875 -19.390625 12.15625 -17.953125 C 12.125 -16.523438 12.253906 -14.691406 12.546875 -12.453125 C 13.148438 -8.148438 12.789062 -5.003906 11.46875 -3.015625 C 10.15625 -1.035156 8.015625 -0.03125 5.046875 0 Z M 5.046875 0 "/></g></g></g><g fill="#333652" fill-opacity="1"><g transform="translate(55.158568, 54.857656)"><g><path d="M 23.65625 -38.015625 C 23.71875 -38.109375 23.816406 -38.125 23.953125 -38.0625 C 24.085938 -38 24.140625 -37.898438 24.109375 -37.765625 C 23.867188 -37.234375 23.65625 -36.566406 23.46875 -35.765625 C 23.289062 -34.960938 23.203125 -33.910156 23.203125 -32.609375 L 23.203125 -11 C 23.203125 -8.5 22.910156 -6.445312 22.328125 -4.84375 C 21.742188 -3.25 20.941406 -1.992188 19.921875 -1.078125 C 18.910156 -0.160156 17.78125 0.476562 16.53125 0.84375 C 15.28125 1.21875 13.972656 1.40625 12.609375 1.40625 C 11.140625 1.40625 9.6875 1.175781 8.25 0.71875 C 6.820312 0.269531 5.519531 -0.507812 4.34375 -1.625 C 3.175781 -2.738281 2.242188 -4.265625 1.546875 -6.203125 C 0.847656 -8.140625 0.5 -10.609375 0.5 -13.609375 C 0.5 -14.703125 0.847656 -15.035156 1.546875 -14.609375 C 2.847656 -13.835938 4.171875 -13.316406 5.515625 -13.046875 C 6.867188 -12.785156 8.472656 -12.660156 10.328125 -12.671875 C 12.179688 -12.691406 14.441406 -12.703125 17.109375 -12.703125 C 18.078125 -12.703125 18.898438 -13.050781 19.578125 -13.75 C 20.265625 -14.445312 20.609375 -15.265625 20.609375 -16.203125 C 20.609375 -17.035156 20.378906 -17.859375 19.921875 -18.671875 C 19.472656 -19.492188 18.945312 -20.320312 18.34375 -21.15625 C 17.75 -21.988281 17.226562 -22.8125 16.78125 -23.625 C 16.332031 -24.445312 16.109375 -25.273438 16.109375 -26.109375 C 16.109375 -26.910156 16.363281 -27.75 16.875 -28.625 C 17.394531 -29.507812 18.054688 -30.453125 18.859375 -31.453125 C 19.660156 -32.453125 20.484375 -33.492188 21.328125 -34.578125 C 22.179688 -35.671875 22.957031 -36.816406 23.65625 -38.015625 Z M 19.5 -16.203125 C 19.5 -15.441406 19.257812 -14.859375 18.78125 -14.453125 C 18.300781 -14.054688 17.773438 -13.859375 17.203125 -13.859375 L 14.203125 -13.859375 C 11.765625 -13.859375 10.128906 -14.316406 9.296875 -15.234375 C 8.460938 -16.148438 8.066406 -17.320312 8.109375 -18.75 C 8.140625 -20.15625 8.53125 -21.695312 9.28125 -23.375 C 10.03125 -25.0625 11.007812 -26.742188 12.21875 -28.421875 C 13.4375 -30.109375 14.75 -31.65625 16.15625 -33.0625 C 16.351562 -33.257812 16.519531 -33.328125 16.65625 -33.265625 C 16.882812 -33.191406 16.953125 -33.023438 16.859375 -32.765625 C 16.585938 -32.054688 16.257812 -31.421875 15.875 -30.859375 C 15.5 -30.296875 15.175781 -29.65625 14.90625 -28.9375 C 14.632812 -28.21875 14.5 -27.304688 14.5 -26.203125 C 14.5 -25.367188 14.75 -24.523438 15.25 -23.671875 C 15.75 -22.828125 16.332031 -21.988281 17 -21.15625 C 17.664062 -20.320312 18.25 -19.488281 18.75 -18.65625 C 19.25 -17.820312 19.5 -17.003906 19.5 -16.203125 Z M 19.5 -16.203125 "/></g></g></g><g fill="#333652" fill-opacity="1"><g transform="translate(79.566227, 54.857656)"><g/></g></g><g fill="#333652" fill-opacity="1"><g transform="translate(88.569052, 54.857656)"><g><path d="M 28.5625 -1.40625 C 28.863281 -1.132812 28.921875 -0.832031 28.734375 -0.5 C 28.546875 -0.164062 28.238281 0 27.8125 0 L 22.109375 0 C 20.910156 0 19.894531 -0.234375 19.0625 -0.703125 C 18.226562 -1.171875 17.550781 -1.6875 17.03125 -2.25 C 16.507812 -2.8125 16.101562 -3.242188 15.8125 -3.546875 L 11.75 -7.609375 L 7.703125 -3.59375 C 7.097656 -2.925781 6.796875 -2.195312 6.796875 -1.40625 C 6.796875 -0.601562 7.097656 0.128906 7.703125 0.796875 L 11.75 4.796875 C 12.988281 3.429688 14.140625 2.523438 15.203125 2.078125 C 16.273438 1.628906 17.414062 1.421875 18.625 1.453125 C 19.84375 1.484375 21.253906 1.582031 22.859375 1.75 C 23.328125 1.78125 23.609375 1.867188 23.703125 2.015625 C 23.804688 2.171875 23.773438 2.484375 23.609375 2.953125 C 23.109375 4.515625 22.296875 5.90625 21.171875 7.125 C 20.054688 8.34375 18.738281 9.300781 17.21875 10 C 15.707031 10.695312 14.066406 11.046875 12.296875 11.046875 C 10.128906 11.046875 8.132812 10.515625 6.3125 9.453125 C 4.5 8.390625 3.0625 6.957031 2 5.15625 C 0.9375 3.351562 0.40625 1.351562 0.40625 -0.84375 C 0.40625 -3.21875 1.03125 -5.394531 2.28125 -7.375 C 3.53125 -9.363281 5.171875 -10.820312 7.203125 -11.75 C 8.398438 -12.28125 9.765625 -12.601562 11.296875 -12.71875 C 12.835938 -12.84375 14.378906 -12.851562 15.921875 -12.75 C 17.472656 -12.65625 18.84375 -12.53125 20.03125 -12.375 C 21.21875 -12.226562 22.0625 -12.15625 22.5625 -12.15625 C 22.820312 -12.15625 23.066406 -12.3125 23.296875 -12.625 C 23.535156 -12.945312 23.65625 -13.109375 23.65625 -13.109375 C 23.65625 -13.109375 23.535156 -13.253906 23.296875 -13.546875 C 23.066406 -13.847656 22.820312 -14 22.5625 -14 C 20.894531 -14 19.109375 -13.945312 17.203125 -13.84375 C 15.304688 -13.75 13.429688 -13.6875 11.578125 -13.65625 C 9.722656 -13.625 8.035156 -13.722656 6.515625 -13.953125 C 5.003906 -14.179688 3.796875 -14.628906 2.890625 -15.296875 C 1.992188 -15.972656 1.546875 -16.941406 1.546875 -18.203125 L 1.546875 -29.703125 C 1.546875 -29.972656 1.660156 -30.164062 1.890625 -30.28125 C 2.128906 -30.394531 2.347656 -30.390625 2.546875 -30.265625 C 2.984375 -29.960938 3.5 -29.6875 4.09375 -29.4375 C 4.695312 -29.1875 5.597656 -29.0625 6.796875 -29.0625 L 18.5 -29.0625 C 20.40625 -29.0625 22.132812 -28.894531 23.6875 -28.5625 C 25.238281 -28.226562 26.472656 -27.578125 27.390625 -26.609375 C 28.304688 -25.640625 28.765625 -24.207031 28.765625 -22.3125 C 28.765625 -21.3125 28.640625 -19.992188 28.390625 -18.359375 C 28.140625 -16.722656 27.828125 -14.988281 27.453125 -13.15625 C 27.085938 -11.320312 26.691406 -9.554688 26.265625 -7.859375 C 25.929688 -6.453125 25.890625 -5.332031 26.140625 -4.5 C 26.390625 -3.664062 26.765625 -3.023438 27.265625 -2.578125 C 27.765625 -2.128906 28.195312 -1.738281 28.5625 -1.40625 Z M 15.203125 -2.953125 C 15.609375 -2.546875 15.828125 -2.039062 15.859375 -1.4375 C 15.890625 -0.84375 15.671875 -0.3125 15.203125 0.15625 L 11.75 3.59375 L 8.296875 0.203125 C 7.867188 -0.265625 7.65625 -0.804688 7.65625 -1.421875 C 7.65625 -2.035156 7.867188 -2.5625 8.296875 -3 L 11.75 -6.40625 Z M 15.203125 -2.953125 "/></g></g></g><g fill="#333652" fill-opacity="1"><g transform="translate(117.628167, 54.857656)"><g><path d="M 27.265625 0 L 22.25 0 C 21.519531 2.5 20.222656 4.582031 18.359375 6.25 C 16.492188 7.914062 14.039062 8.75 11 8.75 C 9.5 8.75 8.222656 8.460938 7.171875 7.890625 C 6.128906 7.328125 5.28125 6.628906 4.625 5.796875 C 3.976562 4.960938 3.492188 4.128906 3.171875 3.296875 C 2.859375 2.460938 2.691406 1.78125 2.671875 1.25 C 2.660156 0.71875 2.753906 0.46875 2.953125 0.5 C 6.753906 1.269531 9.710938 1.519531 11.828125 1.25 C 13.941406 0.976562 15.269531 0.5625 15.8125 0 C 13.632812 -0.101562 11.679688 -0.363281 9.953125 -0.78125 C 8.222656 -1.195312 6.722656 -1.753906 5.453125 -2.453125 C 2.148438 -4.285156 0.5 -6.785156 0.5 -9.953125 C 0.5 -11.148438 0.78125 -12.441406 1.34375 -13.828125 C 1.914062 -15.210938 2.769531 -16.5625 3.90625 -17.875 C 5.039062 -19.195312 6.421875 -20.304688 8.046875 -21.203125 C 8.953125 -21.703125 9.632812 -22.082031 10.09375 -22.34375 C 10.5625 -22.613281 10.90625 -22.863281 11.125 -23.09375 C 11.34375 -23.332031 11.484375 -23.65625 11.546875 -24.0625 C 11.710938 -24.257812 11.984375 -24.257812 12.359375 -24.0625 C 14.660156 -22.925781 16.59375 -21.347656 18.15625 -19.328125 C 19.71875 -17.316406 20.898438 -15.125 21.703125 -12.75 L 22.25 -12.75 Z M 13.296875 -12.359375 C 13.566406 -12.359375 13.859375 -12.523438 14.171875 -12.859375 C 14.492188 -13.191406 14.65625 -13.472656 14.65625 -13.703125 C 14.65625 -13.898438 14.492188 -14.164062 14.171875 -14.5 C 13.859375 -14.832031 13.566406 -15 13.296875 -15 C 12.960938 -15 12.660156 -14.832031 12.390625 -14.5 C 12.128906 -14.164062 12 -13.898438 12 -13.703125 C 12 -13.472656 12.128906 -13.191406 12.390625 -12.859375 C 12.660156 -12.523438 12.960938 -12.359375 13.296875 -12.359375 Z M 13.296875 -12.359375 "/></g></g></g><g fill="#333652" fill-opacity="1"><g transform="translate(139.885152, 54.857656)"><g><path d="M 17.359375 -19.5 C 19.359375 -18.601562 20.972656 -17.210938 22.203125 -15.328125 C 23.441406 -13.441406 24.0625 -11.332031 24.0625 -9 L 24.0625 -8.953125 C 24.0625 -6.617188 23.441406 -4.507812 22.203125 -2.625 C 20.972656 -0.738281 19.359375 0.648438 17.359375 1.546875 C 16.585938 1.878906 15.867188 2.3125 15.203125 2.84375 C 14.535156 3.382812 13.921875 3.988281 13.359375 4.65625 L 12.859375 5.203125 C 12.753906 5.335938 12.617188 5.40625 12.453125 5.40625 C 12.285156 5.40625 12.148438 5.335938 12.046875 5.203125 L 11.546875 4.65625 C 11.015625 3.988281 10.40625 3.382812 9.71875 2.84375 C 9.039062 2.3125 8.316406 1.878906 7.546875 1.546875 C 6.921875 1.285156 6.332031 0.953125 5.78125 0.546875 C 5.226562 0.148438 4.71875 -0.265625 4.25 -0.703125 C 3.582031 -0.234375 2.832031 0 2 0 C 0.5 0 -0.65625 -0.582031 -1.46875 -1.75 C -2.289062 -2.914062 -2.859375 -4.460938 -3.171875 -6.390625 C -3.492188 -8.328125 -3.65625 -10.445312 -3.65625 -12.75 L 0.796875 -12.75 C 1.097656 -12.75 1.304688 -12.804688 1.421875 -12.921875 C 1.535156 -13.046875 1.628906 -13.207031 1.703125 -13.40625 C 2.234375 -14.769531 3.003906 -15.976562 4.015625 -17.03125 C 5.035156 -18.082031 6.210938 -18.90625 7.546875 -19.5 C 9.117188 -20.207031 10.453125 -21.242188 11.546875 -22.609375 L 11.90625 -23 C 12.070312 -23.164062 12.253906 -23.25 12.453125 -23.25 C 12.648438 -23.25 12.816406 -23.164062 12.953125 -23 L 13.359375 -22.609375 C 14.453125 -21.242188 15.785156 -20.207031 17.359375 -19.5 Z M 12.296875 -3.90625 C 12.535156 -3.90625 12.785156 -4.046875 13.046875 -4.328125 C 13.316406 -4.609375 13.453125 -4.847656 13.453125 -5.046875 C 13.453125 -5.285156 13.316406 -5.53125 13.046875 -5.78125 C 12.785156 -6.03125 12.535156 -6.15625 12.296875 -6.15625 C 12.066406 -6.15625 11.828125 -6.03125 11.578125 -5.78125 C 11.328125 -5.53125 11.203125 -5.285156 11.203125 -5.046875 C 11.203125 -4.847656 11.328125 -4.609375 11.578125 -4.328125 C 11.828125 -4.046875 12.066406 -3.90625 12.296875 -3.90625 Z M 12.296875 -3.90625 "/></g></g></g></g></g></svg>