<svg xmlns="http://www.w3.org/2000/svg" xmlns:xlink="http://www.w3.org/1999/xlink" width="1080" zoomAndPan="magnify" viewBox="0 0 810 1439.999935" height="1920" preserveAspectRatio="xMidYMid meet" version="1.0"><defs><g/><clipPath id="6290d95873"><rect x="0" width="564" y="0" height="243"/></clipPath></defs><g transform="matrix(1, 0, 0, 1, 123, 759)"><g clip-path="url(#6290d95873)"><g fill="#ffffff" fill-opacity="1"><g transform="translate(1.484795, 187.599185)"><g><path d="M 141.40625 -43.65625 L 137.140625 -42.109375 L 137.140625 -3.9375 C 137.140625 -1.65625 136.453125 -0.00390625 135.078125 1.015625 C 133.710938 2.046875 131.941406 2.617188 129.765625 2.734375 C 127.023438 2.734375 123.941406 2.019531 120.515625 0.59375 C 117.097656 -0.832031 114.019531 -2.828125 111.28125 -5.390625 C 108.539062 -7.960938 106.65625 -10.84375 105.625 -14.03125 L 105.125 -14.03125 C 105.351562 -9.125 104.523438 -5.472656 102.640625 -3.078125 C 100.753906 -0.679688 98.5 0.515625 95.875 0.515625 C 93.59375 0.398438 91.3125 -0.597656 89.03125 -2.484375 C 86.75 -4.367188 84.921875 -7.132812 83.546875 -10.78125 L 83.03125 -10.609375 C 83.71875 -3.878906 82.601562 2.617188 79.6875 8.890625 C 76.78125 15.171875 72.21875 20.304688 66 24.296875 C 59.78125 28.296875 52.046875 30.296875 42.796875 30.296875 C 35.265625 30.296875 28.390625 28.441406 22.171875 24.734375 C 15.953125 21.023438 10.988281 16.0625 7.28125 9.84375 C 3.570312 3.625 1.71875 -3.25 1.71875 -10.78125 C 1.71875 -19.113281 3.941406 -26.5625 8.390625 -33.125 C 12.835938 -39.6875 18.546875 -44.679688 25.515625 -48.109375 C 26.421875 -48.566406 27.242188 -48.535156 27.984375 -48.015625 C 28.734375 -47.503906 29.109375 -46.789062 29.109375 -45.875 C 29.109375 -45.3125 28.9375 -44.859375 28.59375 -44.515625 C 26.65625 -41.660156 25.6875 -38.40625 25.6875 -34.75 C 25.6875 -30.300781 26.710938 -26.535156 28.765625 -23.453125 C 30.816406 -20.367188 33.210938 -17.914062 35.953125 -16.09375 C 38.691406 -14.269531 41.085938 -12.957031 43.140625 -12.15625 C 45.191406 -11.351562 46.21875 -10.953125 46.21875 -10.953125 C 46.21875 -10.953125 47.128906 -11.460938 48.953125 -12.484375 C 50.785156 -13.515625 52.84375 -14.742188 55.125 -16.171875 C 57.40625 -17.597656 59.117188 -18.882812 60.265625 -20.03125 C 62.203125 -21.96875 63.113281 -23.734375 63 -25.328125 C 62.882812 -26.929688 62.34375 -28.617188 61.375 -30.390625 C 60.40625 -32.160156 59.40625 -34.097656 58.375 -36.203125 C 57.351562 -38.316406 56.84375 -40.800781 56.84375 -43.65625 C 56.84375 -46.738281 57.582031 -49.132812 59.0625 -50.84375 C 60.550781 -52.5625 62.578125 -53.988281 65.140625 -55.125 C 67.710938 -56.269531 70.535156 -57.5 73.609375 -58.8125 C 76.691406 -60.125 79.859375 -61.863281 83.109375 -64.03125 C 86.367188 -66.195312 89.425781 -69.222656 92.28125 -73.109375 C 92.507812 -73.453125 92.878906 -73.476562 93.390625 -73.1875 C 93.898438 -72.90625 94.039062 -72.535156 93.8125 -72.078125 C 93.476562 -71.273438 93.023438 -69.675781 92.453125 -67.28125 C 91.878906 -64.882812 91.25 -62.144531 90.5625 -59.0625 C 89.882812 -55.976562 89.144531 -52.953125 88.34375 -49.984375 C 87.539062 -47.023438 86.796875 -44.457031 86.109375 -42.28125 C 85.878906 -41.488281 86.363281 -40.773438 87.5625 -40.140625 C 88.769531 -39.515625 89.375 -39.203125 89.375 -39.203125 C 89.375 -39.203125 89.882812 -39.515625 90.90625 -40.140625 C 91.9375 -40.773438 92.453125 -41.488281 92.453125 -42.28125 C 92.453125 -46.96875 93.019531 -50.847656 94.15625 -53.921875 C 95.300781 -57.003906 96.84375 -59.6875 98.78125 -61.96875 C 100.71875 -64.257812 102.832031 -66.546875 105.125 -68.828125 C 106.257812 -69.960938 107.140625 -70.757812 107.765625 -71.21875 C 108.398438 -71.675781 108.601562 -70.765625 108.375 -68.484375 C 108.03125 -65.628906 107.539062 -61.773438 106.90625 -56.921875 C 106.28125 -52.078125 105.96875 -47.195312 105.96875 -42.28125 C 105.96875 -41.488281 106.507812 -40.773438 107.59375 -40.140625 C 108.6875 -39.515625 109.234375 -39.203125 109.234375 -39.203125 C 109.234375 -39.203125 109.800781 -39.515625 110.9375 -40.140625 C 112.082031 -40.773438 112.539062 -41.488281 112.3125 -42.28125 C 110.9375 -49.25 111.160156 -55.8125 112.984375 -61.96875 C 114.816406 -68.132812 117.957031 -74.269531 122.40625 -80.375 C 126.863281 -86.488281 132.34375 -92.796875 138.84375 -99.296875 C 139.300781 -99.753906 139.757812 -99.867188 140.21875 -99.640625 C 140.5625 -99.523438 140.617188 -99.125 140.390625 -98.4375 C 139.703125 -96.5 138.988281 -94.242188 138.25 -91.671875 C 137.507812 -89.109375 137.140625 -85.488281 137.140625 -80.8125 L 137.140625 -48.796875 C 137.140625 -47.765625 137.363281 -46.617188 137.8125 -45.359375 C 138.269531 -44.109375 139.46875 -43.539062 141.40625 -43.65625 Z M 141.40625 -43.65625 "/></g></g></g><g fill="#ffffff" fill-opacity="1"><g transform="translate(141.686161, 187.599185)"><g><path d="M 23.96875 -77.21875 L 12.328125 -88.859375 C 10.835938 -90.453125 10.09375 -92.300781 10.09375 -94.40625 C 10.09375 -96.519531 10.835938 -98.320312 12.328125 -99.8125 L 24.140625 -111.453125 L 35.953125 -99.640625 C 37.429688 -98.160156 38.171875 -96.390625 38.171875 -94.328125 C 38.171875 -92.273438 37.429688 -90.507812 35.953125 -89.03125 Z M 17.296875 0 C 11.359375 0 6.191406 -1.796875 1.796875 -5.390625 C -2.597656 -8.984375 -5.992188 -14.0625 -8.390625 -20.625 C -10.785156 -27.1875 -11.984375 -34.863281 -11.984375 -43.65625 L 14.375 -43.65625 C 18.71875 -43.65625 22.113281 -44.566406 24.5625 -46.390625 C 27.019531 -48.222656 28.988281 -50.566406 30.46875 -53.421875 C 32.644531 -57.410156 34.613281 -62.144531 36.375 -67.625 C 38.144531 -73.101562 40.972656 -78.582031 44.859375 -84.0625 C 45.203125 -84.40625 45.570312 -84.460938 45.96875 -84.234375 C 46.363281 -84.003906 46.445312 -83.660156 46.21875 -83.203125 C 45.082031 -80.234375 44.054688 -77.09375 43.140625 -73.78125 C 42.234375 -70.476562 41.722656 -66.367188 41.609375 -61.453125 C 41.492188 -56.546875 41.945312 -50.269531 42.96875 -42.625 C 45.019531 -27.90625 43.789062 -17.148438 39.28125 -10.359375 C 34.78125 -3.566406 27.453125 -0.113281 17.296875 0 Z M 17.296875 0 "/></g></g></g><g fill="#ffffff" fill-opacity="1"><g transform="translate(188.419943, 187.599185)"><g><path d="M 80.984375 -130.109375 C 81.210938 -130.453125 81.550781 -130.507812 82 -130.28125 C 82.457031 -130.050781 82.628906 -129.710938 82.515625 -129.265625 C 81.722656 -127.429688 81.007812 -125.144531 80.375 -122.40625 C 79.75 -119.664062 79.4375 -116.070312 79.4375 -111.625 L 79.4375 -37.671875 C 79.4375 -29.109375 78.4375 -22.085938 76.4375 -16.609375 C 74.445312 -11.128906 71.707031 -6.816406 68.21875 -3.671875 C 64.738281 -0.535156 60.859375 1.65625 56.578125 2.90625 C 52.296875 4.164062 47.816406 4.796875 43.140625 4.796875 C 38.117188 4.796875 33.15625 4.023438 28.25 2.484375 C 23.34375 0.941406 18.890625 -1.738281 14.890625 -5.5625 C 10.898438 -9.382812 7.707031 -14.601562 5.3125 -21.21875 C 2.914062 -27.84375 1.71875 -36.289062 1.71875 -46.5625 C 1.71875 -50.332031 2.914062 -51.472656 5.3125 -49.984375 C 9.757812 -47.359375 14.296875 -45.585938 18.921875 -44.671875 C 23.546875 -43.765625 29.023438 -43.335938 35.359375 -43.390625 C 41.691406 -43.453125 49.421875 -43.484375 58.546875 -43.484375 C 61.859375 -43.484375 64.679688 -44.679688 67.015625 -47.078125 C 69.359375 -49.472656 70.53125 -52.269531 70.53125 -55.46875 C 70.53125 -58.320312 69.757812 -61.144531 68.21875 -63.9375 C 66.675781 -66.738281 64.878906 -69.566406 62.828125 -72.421875 C 60.773438 -75.273438 58.976562 -78.097656 57.4375 -80.890625 C 55.894531 -83.691406 55.125 -86.519531 55.125 -89.375 C 55.125 -92.113281 56.007812 -94.992188 57.78125 -98.015625 C 59.550781 -101.035156 61.804688 -104.257812 64.546875 -107.6875 C 67.285156 -111.113281 70.109375 -114.679688 73.015625 -118.390625 C 75.929688 -122.097656 78.585938 -126.003906 80.984375 -130.109375 Z M 66.765625 -55.46875 C 66.765625 -52.84375 65.9375 -50.84375 64.28125 -49.46875 C 62.625 -48.101562 60.828125 -47.421875 58.890625 -47.421875 L 48.625 -47.421875 C 40.289062 -47.421875 34.695312 -48.988281 31.84375 -52.125 C 28.988281 -55.269531 27.617188 -59.296875 27.734375 -64.203125 C 27.847656 -68.992188 29.1875 -74.269531 31.75 -80.03125 C 34.320312 -85.800781 37.691406 -91.566406 41.859375 -97.328125 C 46.023438 -103.085938 50.503906 -108.367188 55.296875 -113.171875 C 55.984375 -113.847656 56.554688 -114.070312 57.015625 -113.84375 C 57.804688 -113.613281 58.035156 -113.046875 57.703125 -112.140625 C 56.785156 -109.742188 55.671875 -107.570312 54.359375 -105.625 C 53.046875 -103.6875 51.929688 -101.488281 51.015625 -99.03125 C 50.109375 -96.582031 49.65625 -93.472656 49.65625 -89.703125 C 49.65625 -86.859375 50.507812 -83.976562 52.21875 -81.0625 C 53.925781 -78.15625 55.921875 -75.273438 58.203125 -72.421875 C 60.492188 -69.566406 62.492188 -66.710938 64.203125 -63.859375 C 65.910156 -61.003906 66.765625 -58.207031 66.765625 -55.46875 Z M 66.765625 -55.46875 "/></g></g></g><g fill="#ffffff" fill-opacity="1"><g transform="translate(271.958735, 187.599185)"><g/></g></g><g fill="#ffffff" fill-opacity="1"><g transform="translate(302.772225, 187.599185)"><g><path d="M 97.75 -4.796875 C 98.78125 -3.878906 98.984375 -2.847656 98.359375 -1.703125 C 97.734375 -0.566406 96.675781 0 95.1875 0 L 75.671875 0 C 71.566406 0 68.085938 -0.796875 65.234375 -2.390625 C 62.378906 -3.992188 60.066406 -5.765625 58.296875 -7.703125 C 56.523438 -9.640625 55.125 -11.125 54.09375 -12.15625 L 40.234375 -26.015625 L 26.359375 -12.328125 C 24.304688 -10.046875 23.28125 -7.535156 23.28125 -4.796875 C 23.28125 -2.054688 24.304688 0.453125 26.359375 2.734375 L 40.234375 16.4375 C 44.453125 11.757812 48.390625 8.648438 52.046875 7.109375 C 55.703125 5.566406 59.609375 4.851562 63.765625 4.96875 C 67.929688 5.082031 72.753906 5.421875 78.234375 5.984375 C 79.835938 6.097656 80.804688 6.410156 81.140625 6.921875 C 81.484375 7.441406 81.375 8.5 80.8125 10.09375 C 79.09375 15.457031 76.320312 20.222656 72.5 24.390625 C 68.675781 28.554688 64.164062 31.835938 58.96875 34.234375 C 53.78125 36.628906 48.160156 37.828125 42.109375 37.828125 C 34.691406 37.828125 27.875 36 21.65625 32.34375 C 15.4375 28.695312 10.5 23.789062 6.84375 17.625 C 3.195312 11.46875 1.375 4.625 1.375 -2.90625 C 1.375 -11.007812 3.507812 -18.457031 7.78125 -25.25 C 12.0625 -32.039062 17.6875 -37.035156 24.65625 -40.234375 C 28.757812 -42.054688 33.4375 -43.164062 38.6875 -43.5625 C 43.9375 -43.96875 49.210938 -44 54.515625 -43.65625 C 59.828125 -43.3125 64.507812 -42.882812 68.5625 -42.375 C 72.613281 -41.863281 75.5 -41.609375 77.21875 -41.609375 C 78.125 -41.609375 78.976562 -42.148438 79.78125 -43.234375 C 80.582031 -44.316406 80.984375 -44.859375 80.984375 -44.859375 C 80.984375 -44.859375 80.582031 -45.367188 79.78125 -46.390625 C 78.976562 -47.421875 78.125 -47.9375 77.21875 -47.9375 C 71.507812 -47.9375 65.398438 -47.765625 58.890625 -47.421875 C 52.390625 -47.078125 45.96875 -46.847656 39.625 -46.734375 C 33.289062 -46.617188 27.523438 -46.960938 22.328125 -47.765625 C 17.140625 -48.566406 13.003906 -50.109375 9.921875 -52.390625 C 6.847656 -54.671875 5.3125 -57.976562 5.3125 -62.3125 L 5.3125 -101.6875 C 5.3125 -102.601562 5.707031 -103.257812 6.5 -103.65625 C 7.300781 -104.0625 8.046875 -104.035156 8.734375 -103.578125 C 10.210938 -102.546875 11.976562 -101.601562 14.03125 -100.75 C 16.09375 -99.894531 19.175781 -99.46875 23.28125 -99.46875 L 63.34375 -99.46875 C 69.851562 -99.46875 75.757812 -98.894531 81.0625 -97.75 C 86.375 -96.613281 90.597656 -94.390625 93.734375 -91.078125 C 96.867188 -87.765625 98.4375 -82.859375 98.4375 -76.359375 C 98.4375 -72.929688 98.007812 -68.421875 97.15625 -62.828125 C 96.300781 -57.234375 95.242188 -51.296875 93.984375 -45.015625 C 92.734375 -38.742188 91.363281 -32.695312 89.875 -26.875 C 88.738281 -22.082031 88.597656 -18.257812 89.453125 -15.40625 C 90.304688 -12.550781 91.585938 -10.351562 93.296875 -8.8125 C 95.015625 -7.269531 96.5 -5.929688 97.75 -4.796875 Z M 52.046875 -10.09375 C 53.410156 -8.726562 54.148438 -7.019531 54.265625 -4.96875 C 54.378906 -2.914062 53.640625 -1.085938 52.046875 0.515625 L 40.234375 12.328125 L 28.421875 0.6875 C 26.929688 -0.914062 26.1875 -2.769531 26.1875 -4.875 C 26.1875 -6.988281 26.929688 -8.785156 28.421875 -10.265625 L 40.234375 -21.90625 Z M 52.046875 -10.09375 "/></g></g></g><g fill="#ffffff" fill-opacity="1"><g transform="translate(402.231308, 187.599185)"><g><path d="M 93.3125 0 L 76.1875 0 C 73.675781 8.5625 69.222656 15.691406 62.828125 21.390625 C 56.441406 27.097656 48.054688 29.953125 37.671875 29.953125 C 32.523438 29.953125 28.15625 28.984375 24.5625 27.046875 C 20.96875 25.109375 18.054688 22.710938 15.828125 19.859375 C 13.609375 17.003906 11.957031 14.148438 10.875 11.296875 C 9.789062 8.441406 9.21875 6.101562 9.15625 4.28125 C 9.101562 2.457031 9.414062 1.601562 10.09375 1.71875 C 23.113281 4.34375 33.242188 5.195312 40.484375 4.28125 C 47.734375 3.363281 52.269531 1.9375 54.09375 0 C 46.675781 -0.34375 40 -1.226562 34.0625 -2.65625 C 28.132812 -4.082031 23 -5.992188 18.65625 -8.390625 C 7.363281 -14.671875 1.71875 -23.226562 1.71875 -34.0625 C 1.71875 -38.175781 2.6875 -42.597656 4.625 -47.328125 C 6.5625 -52.066406 9.46875 -56.691406 13.34375 -61.203125 C 17.226562 -65.710938 21.96875 -69.507812 27.5625 -72.59375 C 30.644531 -74.300781 32.984375 -75.609375 34.578125 -76.515625 C 36.179688 -77.429688 37.351562 -78.289062 38.09375 -79.09375 C 38.832031 -79.894531 39.316406 -80.976562 39.546875 -82.34375 C 40.117188 -83.03125 41.03125 -83.03125 42.28125 -82.34375 C 50.15625 -78.46875 56.773438 -73.078125 62.140625 -66.171875 C 67.503906 -59.265625 71.554688 -51.757812 74.296875 -43.65625 L 76.1875 -43.65625 Z M 45.546875 -42.28125 C 46.453125 -42.28125 47.445312 -42.851562 48.53125 -44 C 49.613281 -45.144531 50.15625 -46.113281 50.15625 -46.90625 C 50.15625 -47.59375 49.613281 -48.503906 48.53125 -49.640625 C 47.445312 -50.785156 46.453125 -51.359375 45.546875 -51.359375 C 44.398438 -51.359375 43.367188 -50.785156 42.453125 -49.640625 C 41.546875 -48.503906 41.09375 -47.59375 41.09375 -46.90625 C 41.09375 -46.113281 41.546875 -45.144531 42.453125 -44 C 43.367188 -42.851562 44.398438 -42.28125 45.546875 -42.28125 Z M 45.546875 -42.28125 "/></g></g></g><g fill="#ffffff" fill-opacity="1"><g transform="translate(478.409102, 187.599185)"><g><path d="M 59.40625 -66.765625 C 66.25 -63.679688 71.78125 -58.914062 76 -52.46875 C 80.226562 -46.019531 82.34375 -38.800781 82.34375 -30.8125 L 82.34375 -30.640625 C 82.34375 -22.648438 80.226562 -15.429688 76 -8.984375 C 71.78125 -2.535156 66.25 2.226562 59.40625 5.3125 C 56.78125 6.445312 54.328125 7.925781 52.046875 9.75 C 49.765625 11.582031 47.65625 13.640625 45.71875 15.921875 L 44 17.8125 C 43.65625 18.257812 43.195312 18.484375 42.625 18.484375 C 42.0625 18.484375 41.609375 18.257812 41.265625 17.8125 L 39.546875 15.921875 C 37.722656 13.640625 35.640625 11.582031 33.296875 9.75 C 30.960938 7.925781 28.484375 6.445312 25.859375 5.3125 C 23.679688 4.394531 21.648438 3.25 19.765625 1.875 C 17.890625 0.507812 16.148438 -0.910156 14.546875 -2.390625 C 12.265625 -0.796875 9.695312 0 6.84375 0 C 1.707031 0 -2.253906 -1.992188 -5.046875 -5.984375 C -7.847656 -9.984375 -9.789062 -15.289062 -10.875 -21.90625 C -11.957031 -28.53125 -12.5 -35.78125 -12.5 -43.65625 L 2.734375 -43.65625 C 3.765625 -43.65625 4.476562 -43.851562 4.875 -44.25 C 5.28125 -44.65625 5.597656 -45.195312 5.828125 -45.875 C 7.648438 -50.5625 10.300781 -54.703125 13.78125 -58.296875 C 17.257812 -61.890625 21.285156 -64.710938 25.859375 -66.765625 C 31.210938 -69.160156 35.773438 -72.703125 39.546875 -77.390625 L 40.75 -78.75 C 41.320312 -79.320312 41.945312 -79.609375 42.625 -79.609375 C 43.3125 -79.609375 43.882812 -79.320312 44.34375 -78.75 L 45.71875 -77.390625 C 49.476562 -72.703125 54.039062 -69.160156 59.40625 -66.765625 Z M 42.109375 -13.359375 C 42.910156 -13.359375 43.765625 -13.84375 44.671875 -14.8125 C 45.585938 -15.78125 46.046875 -16.609375 46.046875 -17.296875 C 46.046875 -18.085938 45.585938 -18.910156 44.671875 -19.765625 C 43.765625 -20.628906 42.910156 -21.0625 42.109375 -21.0625 C 41.316406 -21.0625 40.488281 -20.628906 39.625 -19.765625 C 38.769531 -18.910156 38.34375 -18.085938 38.34375 -17.296875 C 38.34375 -16.609375 38.769531 -15.78125 39.625 -14.8125 C 40.488281 -13.84375 41.316406 -13.359375 42.109375 -13.359375 Z M 42.109375 -13.359375 "/></g></g></g></g></g></svg>