<svg xmlns="http://www.w3.org/2000/svg" xmlns:xlink="http://www.w3.org/1999/xlink" width="500" zoomAndPan="magnify" viewBox="0 0 375 374.999991" height="500" preserveAspectRatio="xMidYMid meet" version="1.0"><defs><g/><clipPath id="70cd88bb35"><rect x="0" width="203" y="0" height="88"/></clipPath></defs><g transform="matrix(1, 0, 0, 1, 86, 201)"><g clip-path="url(#70cd88bb35)"><g fill="#ffffff" fill-opacity="1"><g transform="translate(1.070529, 67.626581)"><g><path d="M 50.625 -15.625 L 49.09375 -15.078125 L 49.09375 -1.40625 C 49.09375 -0.59375 48.847656 -0.00390625 48.359375 0.359375 C 47.867188 0.734375 47.238281 0.941406 46.46875 0.984375 C 45.476562 0.984375 44.367188 0.726562 43.140625 0.21875 C 41.921875 -0.289062 40.820312 -1.003906 39.84375 -1.921875 C 38.863281 -2.847656 38.1875 -3.882812 37.8125 -5.03125 L 37.640625 -5.03125 C 37.722656 -3.269531 37.425781 -1.957031 36.75 -1.09375 C 36.070312 -0.238281 35.265625 0.1875 34.328125 0.1875 C 33.503906 0.144531 32.6875 -0.210938 31.875 -0.890625 C 31.0625 -1.566406 30.40625 -2.554688 29.90625 -3.859375 L 29.734375 -3.796875 C 29.972656 -1.390625 29.570312 0.9375 28.53125 3.1875 C 27.488281 5.4375 25.851562 7.273438 23.625 8.703125 C 21.40625 10.128906 18.640625 10.84375 15.328125 10.84375 C 12.628906 10.84375 10.164062 10.175781 7.9375 8.84375 C 5.707031 7.519531 3.925781 5.742188 2.59375 3.515625 C 1.269531 1.296875 0.609375 -1.160156 0.609375 -3.859375 C 0.609375 -6.847656 1.40625 -9.515625 3 -11.859375 C 4.59375 -14.210938 6.640625 -16 9.140625 -17.21875 C 9.460938 -17.382812 9.753906 -17.375 10.015625 -17.1875 C 10.285156 -17.007812 10.421875 -16.753906 10.421875 -16.421875 C 10.421875 -16.222656 10.359375 -16.0625 10.234375 -15.9375 C 9.535156 -14.914062 9.1875 -13.75 9.1875 -12.4375 C 9.1875 -10.84375 9.554688 -9.492188 10.296875 -8.390625 C 11.035156 -7.296875 11.894531 -6.421875 12.875 -5.765625 C 13.851562 -5.109375 14.707031 -4.632812 15.4375 -4.34375 C 16.175781 -4.0625 16.546875 -3.921875 16.546875 -3.921875 C 16.546875 -3.921875 16.875 -4.101562 17.53125 -4.46875 C 18.1875 -4.84375 18.921875 -5.285156 19.734375 -5.796875 C 20.554688 -6.304688 21.171875 -6.765625 21.578125 -7.171875 C 22.273438 -7.867188 22.601562 -8.503906 22.5625 -9.078125 C 22.519531 -9.648438 22.320312 -10.25 21.96875 -10.875 C 21.625 -11.507812 21.265625 -12.203125 20.890625 -12.953125 C 20.523438 -13.710938 20.34375 -14.601562 20.34375 -15.625 C 20.34375 -16.726562 20.609375 -17.585938 21.140625 -18.203125 C 21.671875 -18.816406 22.394531 -19.328125 23.3125 -19.734375 C 24.238281 -20.140625 25.253906 -20.578125 26.359375 -21.046875 C 27.460938 -21.523438 28.59375 -22.148438 29.75 -22.921875 C 30.914062 -23.703125 32.007812 -24.785156 33.03125 -26.171875 C 33.113281 -26.296875 33.25 -26.304688 33.4375 -26.203125 C 33.625 -26.097656 33.675781 -25.96875 33.59375 -25.8125 C 33.46875 -25.519531 33.300781 -24.941406 33.09375 -24.078125 C 32.894531 -23.222656 32.671875 -22.242188 32.421875 -21.140625 C 32.179688 -20.046875 31.914062 -18.96875 31.625 -17.90625 C 31.34375 -16.84375 31.078125 -15.921875 30.828125 -15.140625 C 30.742188 -14.859375 30.914062 -14.601562 31.34375 -14.375 C 31.78125 -14.144531 32 -14.03125 32 -14.03125 C 32 -14.03125 32.179688 -14.144531 32.546875 -14.375 C 32.910156 -14.601562 33.09375 -14.859375 33.09375 -15.140625 C 33.09375 -16.816406 33.296875 -18.207031 33.703125 -19.3125 C 34.117188 -20.414062 34.671875 -21.375 35.359375 -22.1875 C 36.054688 -23.007812 36.816406 -23.828125 37.640625 -24.640625 C 38.046875 -25.046875 38.359375 -25.332031 38.578125 -25.5 C 38.804688 -25.664062 38.878906 -25.335938 38.796875 -24.515625 C 38.671875 -23.492188 38.492188 -22.113281 38.265625 -20.375 C 38.046875 -18.644531 37.9375 -16.898438 37.9375 -15.140625 C 37.9375 -14.859375 38.128906 -14.601562 38.515625 -14.375 C 38.910156 -14.144531 39.109375 -14.03125 39.109375 -14.03125 C 39.109375 -14.03125 39.3125 -14.144531 39.71875 -14.375 C 40.125 -14.601562 40.285156 -14.859375 40.203125 -15.140625 C 39.710938 -17.628906 39.796875 -19.976562 40.453125 -22.1875 C 41.109375 -24.394531 42.234375 -26.59375 43.828125 -28.78125 C 45.421875 -30.96875 47.382812 -33.222656 49.71875 -35.546875 C 49.875 -35.710938 50.035156 -35.753906 50.203125 -35.671875 C 50.328125 -35.628906 50.347656 -35.488281 50.265625 -35.25 C 50.015625 -34.550781 49.753906 -33.742188 49.484375 -32.828125 C 49.222656 -31.910156 49.09375 -30.613281 49.09375 -28.9375 L 49.09375 -17.46875 C 49.09375 -17.101562 49.175781 -16.691406 49.34375 -16.234375 C 49.507812 -15.785156 49.9375 -15.582031 50.625 -15.625 Z M 50.625 -15.625 "/></g></g></g><g fill="#ffffff" fill-opacity="1"><g transform="translate(51.265129, 67.626581)"><g><path d="M 8.578125 -27.640625 L 4.40625 -31.8125 C 3.875 -32.382812 3.609375 -33.046875 3.609375 -33.796875 C 3.609375 -34.554688 3.875 -35.203125 4.40625 -35.734375 L 8.640625 -39.90625 L 12.875 -35.671875 C 13.40625 -35.140625 13.671875 -34.503906 13.671875 -33.765625 C 13.671875 -33.035156 13.40625 -32.40625 12.875 -31.875 Z M 6.1875 0 C 4.0625 0 2.210938 -0.640625 0.640625 -1.921875 C -0.929688 -3.210938 -2.144531 -5.03125 -3 -7.375 C -3.863281 -9.726562 -4.296875 -12.476562 -4.296875 -15.625 L 5.15625 -15.625 C 6.707031 -15.625 7.921875 -15.953125 8.796875 -16.609375 C 9.671875 -17.265625 10.375 -18.101562 10.90625 -19.125 C 11.6875 -20.550781 12.390625 -22.242188 13.015625 -24.203125 C 13.648438 -26.171875 14.664062 -28.132812 16.0625 -30.09375 C 16.1875 -30.21875 16.316406 -30.238281 16.453125 -30.15625 C 16.597656 -30.070312 16.628906 -29.953125 16.546875 -29.796875 C 16.140625 -28.734375 15.769531 -27.609375 15.4375 -26.421875 C 15.113281 -25.234375 14.929688 -23.757812 14.890625 -22 C 14.847656 -20.25 15.015625 -18.003906 15.390625 -15.265625 C 16.117188 -9.992188 15.675781 -6.140625 14.0625 -3.703125 C 12.445312 -1.273438 9.820312 -0.0390625 6.1875 0 Z M 6.1875 0 "/></g></g></g><g fill="#ffffff" fill-opacity="1"><g transform="translate(67.99666, 67.626581)"><g><path d="M 29 -46.578125 C 29.070312 -46.703125 29.191406 -46.722656 29.359375 -46.640625 C 29.523438 -46.566406 29.585938 -46.445312 29.546875 -46.28125 C 29.253906 -45.625 28.992188 -44.804688 28.765625 -43.828125 C 28.546875 -42.847656 28.4375 -41.5625 28.4375 -39.96875 L 28.4375 -13.484375 C 28.4375 -10.421875 28.078125 -7.90625 27.359375 -5.9375 C 26.648438 -3.976562 25.671875 -2.4375 24.421875 -1.3125 C 23.179688 -0.1875 21.789062 0.597656 20.25 1.046875 C 18.71875 1.492188 17.117188 1.71875 15.453125 1.71875 C 13.648438 1.71875 11.867188 1.441406 10.109375 0.890625 C 8.359375 0.335938 6.765625 -0.617188 5.328125 -1.984375 C 3.898438 -3.359375 2.753906 -5.226562 1.890625 -7.59375 C 1.035156 -9.96875 0.609375 -12.992188 0.609375 -16.671875 C 0.609375 -18.023438 1.039062 -18.4375 1.90625 -17.90625 C 3.5 -16.957031 5.117188 -16.320312 6.765625 -16 C 8.421875 -15.675781 10.382812 -15.519531 12.65625 -15.53125 C 14.925781 -15.550781 17.695312 -15.5625 20.96875 -15.5625 C 22.144531 -15.5625 23.148438 -15.988281 23.984375 -16.84375 C 24.828125 -17.707031 25.25 -18.710938 25.25 -19.859375 C 25.25 -20.878906 24.972656 -21.890625 24.421875 -22.890625 C 23.867188 -23.890625 23.222656 -24.898438 22.484375 -25.921875 C 21.753906 -26.953125 21.113281 -27.96875 20.5625 -28.96875 C 20.007812 -29.96875 19.734375 -30.976562 19.734375 -32 C 19.734375 -32.976562 20.050781 -34.007812 20.6875 -35.09375 C 21.320312 -36.175781 22.128906 -37.328125 23.109375 -38.546875 C 24.085938 -39.773438 25.097656 -41.050781 26.140625 -42.375 C 27.179688 -43.707031 28.132812 -45.109375 29 -46.578125 Z M 23.90625 -19.859375 C 23.90625 -18.921875 23.609375 -18.207031 23.015625 -17.71875 C 22.421875 -17.226562 21.78125 -16.984375 21.09375 -16.984375 L 17.40625 -16.984375 C 14.425781 -16.984375 12.425781 -17.539062 11.40625 -18.65625 C 10.382812 -19.78125 9.894531 -21.222656 9.9375 -22.984375 C 9.96875 -24.703125 10.441406 -26.59375 11.359375 -28.65625 C 12.285156 -30.71875 13.492188 -32.78125 14.984375 -34.84375 C 16.472656 -36.90625 18.078125 -38.796875 19.796875 -40.515625 C 20.046875 -40.765625 20.25 -40.847656 20.40625 -40.765625 C 20.695312 -40.679688 20.78125 -40.476562 20.65625 -40.15625 C 20.332031 -39.289062 19.929688 -38.507812 19.453125 -37.8125 C 18.984375 -37.125 18.585938 -36.335938 18.265625 -35.453125 C 17.941406 -34.578125 17.78125 -33.46875 17.78125 -32.125 C 17.78125 -31.101562 18.082031 -30.070312 18.6875 -29.03125 C 19.300781 -27.988281 20.015625 -26.953125 20.828125 -25.921875 C 21.648438 -24.898438 22.367188 -23.878906 22.984375 -22.859375 C 23.597656 -21.835938 23.90625 -20.835938 23.90625 -19.859375 Z M 23.90625 -19.859375 "/></g></g></g><g fill="#ffffff" fill-opacity="1"><g transform="translate(97.905044, 67.626581)"><g/></g></g><g fill="#ffffff" fill-opacity="1"><g transform="translate(108.936826, 67.626581)"><g><path d="M 35 -1.71875 C 35.363281 -1.382812 35.429688 -1.015625 35.203125 -0.609375 C 34.984375 -0.203125 34.609375 0 34.078125 0 L 27.09375 0 C 25.625 0 24.378906 -0.285156 23.359375 -0.859375 C 22.335938 -1.429688 21.507812 -2.0625 20.875 -2.75 C 20.238281 -3.445312 19.738281 -3.984375 19.375 -4.359375 L 14.40625 -9.3125 L 9.4375 -4.40625 C 8.707031 -3.59375 8.34375 -2.695312 8.34375 -1.71875 C 8.34375 -0.738281 8.707031 0.160156 9.4375 0.984375 L 14.40625 5.890625 C 15.914062 4.210938 17.320312 3.097656 18.625 2.546875 C 19.9375 1.992188 21.335938 1.738281 22.828125 1.78125 C 24.328125 1.820312 26.054688 1.941406 28.015625 2.140625 C 28.585938 2.179688 28.929688 2.296875 29.046875 2.484375 C 29.171875 2.671875 29.132812 3.046875 28.9375 3.609375 C 28.320312 5.535156 27.328125 7.242188 25.953125 8.734375 C 24.585938 10.222656 22.972656 11.394531 21.109375 12.25 C 19.253906 13.113281 17.242188 13.546875 15.078125 13.546875 C 12.421875 13.546875 9.976562 12.890625 7.75 11.578125 C 5.519531 10.273438 3.75 8.519531 2.4375 6.3125 C 1.132812 4.101562 0.484375 1.648438 0.484375 -1.046875 C 0.484375 -3.941406 1.25 -6.601562 2.78125 -9.03125 C 4.320312 -11.46875 6.335938 -13.257812 8.828125 -14.40625 C 10.296875 -15.0625 11.96875 -15.457031 13.84375 -15.59375 C 15.726562 -15.738281 17.617188 -15.75 19.515625 -15.625 C 21.421875 -15.507812 23.097656 -15.359375 24.546875 -15.171875 C 25.992188 -14.984375 27.023438 -14.890625 27.640625 -14.890625 C 27.972656 -14.890625 28.28125 -15.082031 28.5625 -15.46875 C 28.851562 -15.863281 29 -16.0625 29 -16.0625 C 29 -16.0625 28.851562 -16.242188 28.5625 -16.609375 C 28.28125 -16.972656 27.972656 -17.15625 27.640625 -17.15625 C 25.597656 -17.15625 23.410156 -17.09375 21.078125 -16.96875 C 18.753906 -16.851562 16.457031 -16.773438 14.1875 -16.734375 C 11.914062 -16.691406 9.847656 -16.8125 7.984375 -17.09375 C 6.128906 -17.382812 4.648438 -17.9375 3.546875 -18.75 C 2.453125 -19.570312 1.90625 -20.757812 1.90625 -22.3125 L 1.90625 -36.40625 C 1.90625 -36.738281 2.046875 -36.972656 2.328125 -37.109375 C 2.617188 -37.253906 2.882812 -37.242188 3.125 -37.078125 C 3.65625 -36.710938 4.285156 -36.375 5.015625 -36.0625 C 5.753906 -35.757812 6.863281 -35.609375 8.34375 -35.609375 L 22.6875 -35.609375 C 25.007812 -35.609375 27.117188 -35.40625 29.015625 -35 C 30.921875 -34.59375 32.4375 -33.796875 33.5625 -32.609375 C 34.6875 -31.421875 35.25 -29.664062 35.25 -27.34375 C 35.25 -26.113281 35.09375 -24.5 34.78125 -22.5 C 34.476562 -20.5 34.101562 -18.375 33.65625 -16.125 C 33.207031 -13.875 32.71875 -11.707031 32.1875 -9.625 C 31.769531 -7.90625 31.710938 -6.535156 32.015625 -5.515625 C 32.328125 -4.492188 32.789062 -3.707031 33.40625 -3.15625 C 34.019531 -2.601562 34.550781 -2.125 35 -1.71875 Z M 18.640625 -3.609375 C 19.128906 -3.117188 19.394531 -2.503906 19.4375 -1.765625 C 19.476562 -1.035156 19.210938 -0.382812 18.640625 0.1875 L 14.40625 4.40625 L 10.171875 0.25 C 9.640625 -0.320312 9.375 -0.984375 9.375 -1.734375 C 9.375 -2.492188 9.640625 -3.140625 10.171875 -3.671875 L 14.40625 -7.84375 Z M 18.640625 -3.609375 "/></g></g></g><g fill="#ffffff" fill-opacity="1"><g transform="translate(144.544959, 67.626581)"><g><path d="M 33.40625 0 L 27.28125 0 C 26.375 3.0625 24.773438 5.613281 22.484375 7.65625 C 20.203125 9.707031 17.203125 10.734375 13.484375 10.734375 C 11.648438 10.734375 10.085938 10.382812 8.796875 9.6875 C 7.503906 8.988281 6.457031 8.128906 5.65625 7.109375 C 4.863281 6.085938 4.273438 5.066406 3.890625 4.046875 C 3.503906 3.023438 3.300781 2.1875 3.28125 1.53125 C 3.257812 0.875 3.367188 0.566406 3.609375 0.609375 C 8.273438 1.546875 11.90625 1.851562 14.5 1.53125 C 17.09375 1.207031 18.71875 0.695312 19.375 0 C 16.71875 -0.125 14.328125 -0.441406 12.203125 -0.953125 C 10.078125 -1.460938 8.238281 -2.144531 6.6875 -3 C 2.632812 -5.25 0.609375 -8.316406 0.609375 -12.203125 C 0.609375 -13.671875 0.957031 -15.253906 1.65625 -16.953125 C 2.351562 -18.648438 3.394531 -20.300781 4.78125 -21.90625 C 6.164062 -23.519531 7.863281 -24.878906 9.875 -25.984375 C 10.976562 -26.597656 11.8125 -27.066406 12.375 -27.390625 C 12.945312 -27.722656 13.363281 -28.03125 13.625 -28.3125 C 13.894531 -28.601562 14.070312 -28.992188 14.15625 -29.484375 C 14.363281 -29.734375 14.691406 -29.734375 15.140625 -29.484375 C 17.960938 -28.097656 20.332031 -26.164062 22.25 -23.6875 C 24.164062 -21.21875 25.617188 -18.53125 26.609375 -15.625 L 27.28125 -15.625 Z M 16.3125 -15.140625 C 16.632812 -15.140625 16.988281 -15.34375 17.375 -15.75 C 17.757812 -16.15625 17.953125 -16.503906 17.953125 -16.796875 C 17.953125 -17.035156 17.757812 -17.359375 17.375 -17.765625 C 16.988281 -18.179688 16.632812 -18.390625 16.3125 -18.390625 C 15.894531 -18.390625 15.523438 -18.179688 15.203125 -17.765625 C 14.878906 -17.359375 14.71875 -17.035156 14.71875 -16.796875 C 14.71875 -16.503906 14.878906 -16.15625 15.203125 -15.75 C 15.523438 -15.34375 15.894531 -15.140625 16.3125 -15.140625 Z M 16.3125 -15.140625 "/></g></g></g><g fill="#ffffff" fill-opacity="1"><g transform="translate(171.817974, 67.626581)"><g><path d="M 21.265625 -23.90625 C 23.722656 -22.800781 25.707031 -21.09375 27.21875 -18.78125 C 28.726562 -16.476562 29.484375 -13.894531 29.484375 -11.03125 L 29.484375 -10.96875 C 29.484375 -8.113281 28.726562 -5.53125 27.21875 -3.21875 C 25.707031 -0.90625 23.722656 0.800781 21.265625 1.90625 C 20.328125 2.3125 19.445312 2.835938 18.625 3.484375 C 17.8125 4.140625 17.054688 4.878906 16.359375 5.703125 L 15.75 6.375 C 15.625 6.539062 15.457031 6.625 15.25 6.625 C 15.050781 6.625 14.890625 6.539062 14.765625 6.375 L 14.15625 5.703125 C 13.5 4.878906 12.753906 4.140625 11.921875 3.484375 C 11.085938 2.835938 10.195312 2.3125 9.25 1.90625 C 8.476562 1.570312 7.753906 1.160156 7.078125 0.671875 C 6.398438 0.179688 5.773438 -0.328125 5.203125 -0.859375 C 4.390625 -0.285156 3.472656 0 2.453125 0 C 0.609375 0 -0.8125 -0.710938 -1.8125 -2.140625 C -2.8125 -3.578125 -3.503906 -5.476562 -3.890625 -7.84375 C -4.273438 -10.21875 -4.46875 -12.8125 -4.46875 -15.625 L 0.984375 -15.625 C 1.347656 -15.625 1.601562 -15.695312 1.75 -15.84375 C 1.894531 -15.988281 2.003906 -16.179688 2.078125 -16.421875 C 2.734375 -18.097656 3.679688 -19.578125 4.921875 -20.859375 C 6.171875 -22.148438 7.613281 -23.164062 9.25 -23.90625 C 11.175781 -24.757812 12.8125 -26.023438 14.15625 -27.703125 L 14.59375 -28.203125 C 14.789062 -28.398438 15.007812 -28.5 15.25 -28.5 C 15.5 -28.5 15.707031 -28.398438 15.875 -28.203125 L 16.359375 -27.703125 C 17.710938 -26.023438 19.347656 -24.757812 21.265625 -23.90625 Z M 15.078125 -4.78125 C 15.367188 -4.78125 15.675781 -4.953125 16 -5.296875 C 16.320312 -5.648438 16.484375 -5.945312 16.484375 -6.1875 C 16.484375 -6.476562 16.320312 -6.773438 16 -7.078125 C 15.675781 -7.390625 15.367188 -7.546875 15.078125 -7.546875 C 14.796875 -7.546875 14.5 -7.390625 14.1875 -7.078125 C 13.882812 -6.773438 13.734375 -6.476562 13.734375 -6.1875 C 13.734375 -5.945312 13.882812 -5.648438 14.1875 -5.296875 C 14.5 -4.953125 14.796875 -4.78125 15.078125 -4.78125 Z M 15.078125 -4.78125 "/></g></g></g></g></g></svg>